{
.appVersion = "1273";
copyright = "Copyright \\(c\\) 2017 by Matt Bailey. All rights reserved.";
customParameters = (
{
name = description;
value = "Copyright (c) 2017 by Matt Bailey. All rights reserved.";
},
{
name = licenseURL;
value = "http://scripts.sil.org/cms/scripts/page.php?site_id=nrsi&id=ofl_web";
},
{
name = license;

glyphs = (
{
glyphname = numbersign;
layers = (
{
hints = (
{
horizontal = 1;
place = "{0, 21}";
target = up;
type = BottomGhost;
},
{
horizontal = 1;
place = "{221, 142}";
type = Stem;
},
{
horizontal = 1;
place = "{491, 142}";
type = Stem;
},
{
horizontal = 1;
place = "{853, -20}";
target = down;
type = TopGhost;
},
{
place = "{68, 701}";
type = Stem;
}
);
layerId = "73AED77B-4167-4914-8C61-5564342D4816";
paths = (
{
closed = 1;
nodes = (
"68 633 LINE",
"68 491 LINE",
"202 491 LINE",
"187 363 LINE",
"68 363 LINE",
"68 221 LINE",
"170 221 LINE",
"145 0 LINE",
"286 0 LINE",
"311 221 LINE",
"474 221 LINE",
"449 0 LINE",
"590 0 LINE",
"615 221 LINE",
"769 221 LINE",
"769 363 LINE",
"633 363 LINE",
"648 491 LINE",
"769 491 LINE",
"769 633 LINE",
"664 633 LINE",
"691 853 LINE",
"549 853 LINE",
"523 633 LINE",
"360 633 LINE",
"387 853 LINE",
"245 853 LINE",
"219 633 LINE"
);
},
{
closed = 1;
nodes = (
"344 491 LINE",
"507 491 LINE",
"491 363 LINE",
"329 363 LINE"
);
}
);
width = 879;
}
);
note = numbersign;
rightKerningGroup = space;
unicode = 0023;
},
{
glyphname = dollar;
layers = (
{
hints = (
{
horizontal = 1;
place = "{-138, 21}";
target = up;
type = BottomGhost;
},
{
horizontal = 1;
place = "{-8, 196}";
type = Stem;
},
{
horizontal = 1;
place = "{640, 192}";
type = Stem;
},
{
horizontal = 1;
place = "{963, -20}";
target = down;
type = TopGhost;
},
{
place = "{91, 216}";
type = Stem;
},
{
place = "{416, 242}";
type = Stem;
},
{
place = "{303, 125}";
type = Stem;
}
);
layerId = "73AED77B-4167-4914-8C61-5564342D4816";
paths = (
{
closed = 1;
nodes = (
"91 495 OFFCURVE",
"151 416 OFFCURVE",
"246 373 CURVE SMOOTH",
"352 325 OFFCURVE",
"416 296 OFFCURVE",
"416 246 CURVE SMOOTH",
"416 207 OFFCURVE",
"391 188 OFFCURVE",
"338 188 CURVE SMOOTH",
"233 188 OFFCURVE",
"123 266 OFFCURVE",
"123 266 CURVE",
"14 79 LINE",
"14 79 OFFCURVE",
"114 -7 OFFCURVE",
"303 -15 CURVE",
"303 -138 LINE",
"428 -138 LINE",
"428 -8 LINE",
"554 15 OFFCURVE",
"658 90 OFFCURVE",
"658 259 CURVE SMOOTH",
"658 408 OFFCURVE",
"507 480 OFFCURVE",
"400 520 CURVE SMOOTH",
"320 550 OFFCURVE",
"307 570 OFFCURVE",
"307 587 CURVE SMOOTH",
"307 623 OFFCURVE",
"335 640 OFFCURVE",
"387 640 CURVE SMOOTH",
"471 640 OFFCURVE",
"552 592 OFFCURVE",
"552 592 CURVE",
"639 769 LINE",
"639 769 OFFCURVE",
"555 823 OFFCURVE",
"428 837 CURVE",
"428 963 LINE",
"303 963 LINE",
"303 832 LINE",
"191 805 OFFCURVE",
"91 712 OFFCURVE",
"91 579 CURVE SMOOTH"
);
}
);
width = 678;
}
);
leftKerningGroup = dollar;
note = dollar;
rightKerningGroup = space;
unicode = 0024;
},
{
glyphname = percent;
layers = (
{
hints = (
{
horizontal = 1;
place = "{-15, 122}";
type = Stem;
},
{
horizontal = 1;
place = "{257, 122}";
type = Stem;
},
{
horizontal = 1;
place = "{446, 122}";
type = Stem;
},
{
horizontal = 1;
place = "{718, 122}";
type = Stem;
},
{
place = "{16, 151}";
type = Stem;
},
{
place = "{321, 151}";
type = Stem;
},
{
place = "{503, 151}";
type = Stem;
},
{
place = "{808, 151}";
type = Stem;
},
{
horizontal = 1;
place = "{0, 21}";
target = up;
type = BottomGhost;
},
{
horizontal = 1;
place = "{825, -20}";
target = down;
type = TopGhost;
},
{
place = "{181, 617}";
type = Stem;
}
);
layerId = "73AED77B-4167-4914-8C61-5564342D4816";
paths = (
{
closed = 1;
nodes = (
"16 527 OFFCURVE",
"115 446 OFFCURVE",
"244 446 CURVE SMOOTH",
"373 446 OFFCURVE",
"472 527 OFFCURVE",
"472 643 CURVE SMOOTH",
"472 759 OFFCURVE",
"373 840 OFFCURVE",
"244 840 CURVE SMOOTH",
"115 840 OFFCURVE",
"16 759 OFFCURVE",
"16 643 CURVE SMOOTH"
);
},
{
closed = 1;
nodes = (
"167 687 OFFCURVE",
"203 718 OFFCURVE",
"244 718 CURVE SMOOTH",
"285 718 OFFCURVE",
"321 687 OFFCURVE",
"321 643 CURVE SMOOTH",
"321 599 OFFCURVE",
"285 568 OFFCURVE",
"244 568 CURVE SMOOTH",
"203 568 OFFCURVE",
"167 599 OFFCURVE",
"167 643 CURVE SMOOTH"
);
},
{
closed = 1;
nodes = (
"503 66 OFFCURVE",
"602 -15 OFFCURVE",
"731 -15 CURVE SMOOTH",
"860 -15 OFFCURVE",
"959 66 OFFCURVE",
"959 182 CURVE SMOOTH",
"959 298 OFFCURVE",
"860 379 OFFCURVE",
"731 379 CURVE SMOOTH",
"602 379 OFFCURVE",
"503 298 OFFCURVE",
"503 182 CURVE SMOOTH"
);
},
{
closed = 1;
nodes = (
"654 226 OFFCURVE",
"690 257 OFFCURVE",
"731 257 CURVE SMOOTH",
"772 257 OFFCURVE",
"808 226 OFFCURVE",
"808 182 CURVE SMOOTH",
"808 138 OFFCURVE",
"772 107 OFFCURVE",
"731 107 CURVE SMOOTH",
"690 107 OFFCURVE",
"654 138 OFFCURVE",
"654 182 CURVE SMOOTH"
);
},
{
closed = 1;
nodes = (
"181 0 LINE",
"318 0 LINE",
"798 825 LINE",
"661 825 LINE"
);
}
);
width = 975;
}
);
note = percent;
rightKerningGroup = space;
unicode = 0025;
},
{
glyphname = ampersand;
layers = (
{
hints = (
{
horizontal = 1;
place = "{-16, 210}";
type = Stem;
},
{
horizontal = 1;
place = "{687, 154}";
type = Stem;
},
{
place = "{20, 251}";
type = Stem;
},
{
place = "{495, 193}";
type = Stem;
},
{
place = "{147, 225}";
type = Stem;
}
);
layerId = "73AED77B-4167-4914-8C61-5564342D4816";
paths = (
{
closed = 1;
nodes = (
"20 54 OFFCURVE",
"147 -16 OFFCURVE",
"318 -16 CURVE SMOOTH",
"470 -16 OFFCURVE",
"581 75 OFFCURVE",
"581 75 CURVE",
"655 0 LINE",
"933 0 LINE",
"747 192 LINE",
"785 220 OFFCURVE",
"835 266 OFFCURVE",
"869 299 CURVE",
"869 299 OFFCURVE",
"869 299 OFFCURVE",
"734 433 CURVE",
"700 399 OFFCURVE",
"648 357 OFFCURVE",
"609 332 CURVE",
"528 413 LINE",
"601 452 OFFCURVE",
"688 530 OFFCURVE",
"688 615 CURVE SMOOTH",
"688 723 OFFCURVE",
"604 841 OFFCURVE",
"428 841 CURVE SMOOTH",
"246 841 OFFCURVE",
"147 753 OFFCURVE",
"147 615 CURVE SMOOTH",
"147 555 OFFCURVE",
"177 497 OFFCURVE",
"222 436 CURVE",
"114 396 OFFCURVE",
"20 325 OFFCURVE",
"20 220 CURVE SMOOTH"
);
},
{
closed = 1;
nodes = (
"372 667 OFFCURVE",
"398 687 OFFCURVE",
"428 687 CURVE SMOOTH",
"466 687 OFFCURVE",
"495 664 OFFCURVE",
"495 623 CURVE SMOOTH",
"495 582 OFFCURVE",
"446 549 OFFCURVE",
"419 532 CURVE",
"399 552 OFFCURVE",
"372 589 OFFCURVE",
"372 624 CURVE SMOOTH"
);
},
{
closed = 1;
nodes = (
"271 304 OFFCURVE",
"333 320 OFFCURVE",
"333 319 CURVE",
"436 224 LINE",
"436 224 OFFCURVE",
"391 194 OFFCURVE",
"341 194 CURVE SMOOTH",
"304 194 OFFCURVE",
"271 208 OFFCURVE",
"271 243 CURVE SMOOTH"
);
}
);
width = 853;
}
);
note = ampersand;
rightKerningGroup = space;
unicode = 0026;
},
{
glyphname = quotesingle;
layers = (
{
hints = (
{
horizontal = 1;
place = "{843, -20}";
target = down;
type = TopGhost;
},
{
place = "{64, 196}";
type = Stem;
}
);
layerId = "73AED77B-4167-4914-8C61-5564342D4816";
paths = (
{
closed = 1;
nodes = (
"64 843 LINE",
"101 433 LINE",
"223 433 LINE",
"260 843 LINE"
);
}
);
width = 324;
}
);
leftKerningGroup = quotesingle;
note = quotesingle;
rightKerningGroup = quotesingle;
unicode = 0027;
},
{
glyphname = quotedbl;
layers = (
{
hints = (
{
horizontal = 1;
place = "{433, 21}";
target = up;
type = BottomGhost;
},
{
horizontal = 1;
place = "{843, -20}";
target = down;
type = TopGhost;
},
{
place = "{64, 196}";
type = Stem;
},
{
place = "{318, 196}";
type = Stem;
}
);
layerId = "73AED77B-4167-4914-8C61-5564342D4816";
paths = (
{
closed = 1;
nodes = (
"64 843 LINE",
"101 433 LINE",
"223 433 LINE",
"260 843 LINE"
);
},
{
closed = 1;
nodes = (
"318 843 LINE",
"355 433 LINE",
"477 433 LINE",
"514 843 LINE"
);
}
);
width = 578;
}
);
note = quotedbl;
rightKerningGroup = space;
unicode = 0022;
},
{
glyphname = parenleft;
layers = (
{
hints = (
{
horizontal = 1;
place = "{-260, 21}";
target = up;
type = BottomGhost;
},
{
horizontal = 1;
place = "{875, -20}";
target = down;
type = TopGhost;
},
{
place = "{48, 189}";
type = Stem;
}
);
layerId = "73AED77B-4167-4914-8C61-5564342D4816";
paths = (
{
closed = 1;
nodes = (
"237 661 OFFCURVE",
"354 818 OFFCURVE",
"354 818 CURVE",
"220 875 LINE",
"220 875 OFFCURVE",
"48 659 OFFCURVE",
"48 307 CURVE SMOOTH",
"48 -45 OFFCURVE",
"220 -260 OFFCURVE",
"220 -260 CURVE",
"354 -203 LINE",
"354 -203 OFFCURVE",
"237 -47 OFFCURVE",
"237 307 CURVE SMOOTH"
);
}
);
width = 423;
}
);
note = parenleft;
rightKerningGroup = space;
unicode = 0028;
},
{
glyphname = parenright;
layers = (
{
hints = (
{
horizontal = 1;
place = "{-260, 21}";
target = up;
type = BottomGhost;
},
{
horizontal = 1;
place = "{875, -20}";
target = down;
type = TopGhost;
},
{
place = "{186, 189}";
type = Stem;
}
);
layerId = "73AED77B-4167-4914-8C61-5564342D4816";
paths = (
{
closed = 1;
nodes = (
"186 -47 OFFCURVE",
"69 -203 OFFCURVE",
"69 -203 CURVE",
"203 -260 LINE",
"203 -260 OFFCURVE",
"375 -45 OFFCURVE",
"375 307 CURVE SMOOTH",
"375 659 OFFCURVE",
"203 875 OFFCURVE",
"203 875 CURVE",
"69 818 LINE",
"69 818 OFFCURVE",
"186 661 OFFCURVE",
"186 307 CURVE SMOOTH"
);
}
);
width = 423;
}
);
note = parenright;
rightKerningGroup = space;
unicode = 0029;
},
{
glyphname = asterisk;
layers = (
{
hints = (
{
horizontal = 1;
place = "{476, 21}";
target = up;
type = BottomGhost;
},
{
horizontal = 1;
place = "{860, -20}";
target = down;
type = TopGhost;
},
{
place = "{222, 104}";
type = Stem;
}
);
layerId = "73AED77B-4167-4914-8C61-5564342D4816";
paths = (
{
closed = 1;
nodes = (
"222 860 LINE",
"222 735 LINE",
"100 773 LINE",
"70 679 LINE",
"191 635 LINE",
"121 529 LINE",
"199 476 LINE",
"274 573 LINE",
"349 476 LINE",
"427 529 LINE",
"357 635 LINE",
"478 679 LINE",
"448 773 LINE",
"326 735 LINE",
"326 860 LINE"
);
}
);
width = 548;
}
);
note = asterisk;
rightKerningGroup = space;
unicode = 002A;
},
{
glyphname = plus;
layers = (
{
hints = (
{
horizontal = 1;
place = "{158, 21}";
target = up;
type = BottomGhost;
},
{
horizontal = 1;
place = "{325, 180}";
type = Stem;
},
{
horizontal = 1;
place = "{672, -20}";
target = down;
type = TopGhost;
},
{
place = "{228, 180}";
type = Stem;
}
);
layerId = "73AED77B-4167-4914-8C61-5564342D4816";
paths = (
{
closed = 1;
nodes = (
"228 672 LINE",
"228 505 LINE",
"61 505 LINE",
"61 325 LINE",
"228 325 LINE",
"228 158 LINE",
"408 158 LINE",
"408 325 LINE",
"575 325 LINE",
"575 505 LINE",
"408 505 LINE",
"408 672 LINE"
);
}
);
width = 636;
}
);
note = plus;
rightKerningGroup = space;
unicode = 002B;
},
{
glyphname = minus;
layers = (
{
hints = (
{
horizontal = 1;
place = "{325, 180}";
type = Stem;
},
{
place = "{61, 514}";
type = Stem;
}
);
layerId = "73AED77B-4167-4914-8C61-5564342D4816";
paths = (
{
closed = 1;
nodes = (
"61 505 LINE",
"61 325 LINE",
"575 325 LINE",
"575 505 LINE"
);
}
);
width = 636;
}
);
note = minus;
rightKerningGroup = space;
unicode = 2212;
},
{
glyphname = multiply;
layers = (
{
hints = (
{
horizontal = 1;
place = "{146, 21}";
target = up;
type = BottomGhost;
},
{
horizontal = 1;
place = "{684, -20}";
target = down;
type = TopGhost;
},
{
place = "{56, 538}";
type = Stem;
}
);
layerId = "73AED77B-4167-4914-8C61-5564342D4816";
paths = (
{
closed = 1;
nodes = (
"56 559 LINE",
"199 415 LINE",
"56 271 LINE",
"182 146 LINE",
"325 288 LINE",
"468 146 LINE",
"594 271 LINE",
"451 415 LINE",
"594 559 LINE",
"468 684 LINE",
"325 542 LINE",
"182 684 LINE"
);
}
);
width = 650;
}
);
note = multiply;
rightKerningGroup = space;
unicode = 00D7;
},
{
glyphname = divide;
layers = (
{
hints = (
{
horizontal = 1;
place = "{103, 188}";
type = Stem;
},
{
horizontal = 1;
place = "{325, 180}";
type = Stem;
},
{
horizontal = 1;
place = "{538, 188}";
type = Stem;
},
{
place = "{56, 514}";
type = Stem;
},
{
place = "{222, 182}";
type = Stem;
}
);
layerId = "73AED77B-4167-4914-8C61-5564342D4816";
paths = (
{
closed = 1;
nodes = (
"56 505 LINE",
"56 325 LINE",
"570 325 LINE",
"570 505 LINE"
);
},
{
closed = 1;
nodes = (
"263 726 OFFCURVE",
"222 685 OFFCURVE",
"222 632 CURVE SMOOTH",
"222 579 OFFCURVE",
"263 538 OFFCURVE",
"313 538 CURVE SMOOTH",
"363 538 OFFCURVE",
"404 579 OFFCURVE",
"404 632 CURVE SMOOTH",
"404 685 OFFCURVE",
"363 726 OFFCURVE",
"313 726 CURVE SMOOTH"
);
},
{
closed = 1;
nodes = (
"263 291 OFFCURVE",
"222 250 OFFCURVE",
"222 197 CURVE SMOOTH",
"222 144 OFFCURVE",
"263 103 OFFCURVE",
"313 103 CURVE SMOOTH",
"363 103 OFFCURVE",
"404 144 OFFCURVE",
"404 197 CURVE SMOOTH",
"404 250 OFFCURVE",
"363 291 OFFCURVE",
"313 291 CURVE SMOOTH"
);
}
);
width = 626;
}
);
note = divide;
rightKerningGroup = space;
unicode = 00F7;
},
{
glyphname = less;
layers = (
{
hints = (
{
horizontal = 1;
place = "{135, 21}";
target = up;
type = BottomGhost;
},
{
horizontal = 1;
place = "{697, -20}";
target = down;
type = TopGhost;
},
{
place = "{71, 546}";
type = Stem;
}
);
layerId = "73AED77B-4167-4914-8C61-5564342D4816";
paths = (
{
closed = 1;
nodes = (
"71 485 LINE",
"71 347 LINE",
"617 135 LINE",
"617 300 LINE",
"292 416 LINE",
"617 532 LINE",
"617 697 LINE"
);
}
);
width = 673;
}
);
note = less;
rightKerningGroup = space;
unicode = 003C;
},
{
glyphname = equal;
layers = (
{
hints = (
{
horizontal = 1;
place = "{199, 180}";
type = Stem;
},
{
horizontal = 1;
place = "{452, 180}";
type = Stem;
},
{
place = "{61, 514}";
type = Stem;
}
);
layerId = "73AED77B-4167-4914-8C61-5564342D4816";
paths = (
{
closed = 1;
nodes = (
"61 632 LINE",
"61 452 LINE",
"575 452 LINE",
"575 632 LINE"
);
},
{
closed = 1;
nodes = (
"61 379 LINE",
"61 199 LINE",
"575 199 LINE",
"575 379 LINE"
);
}
);
width = 636;
}
);
note = equal;
rightKerningGroup = space;
unicode = 003D;
},
{
glyphname = greater;
layers = (
{
hints = (
{
horizontal = 1;
place = "{135, 21}";
target = up;
type = BottomGhost;
},
{
horizontal = 1;
place = "{697, -20}";
target = down;
type = TopGhost;
},
{
place = "{56, 546}";
type = Stem;
}
);
layerId = "73AED77B-4167-4914-8C61-5564342D4816";
paths = (
{
closed = 1;
nodes = (
"56 697 LINE",
"56 532 LINE",
"381 416 LINE",
"56 300 LINE",
"56 135 LINE",
"602 347 LINE",
"602 485 LINE"
);
}
);
width = 673;
}
);
note = greater;
rightKerningGroup = space;
unicode = 003E;
},
{
glyphname = plusminus;
layers = (
{
hints = (
{
horizontal = 1;
place = "{0, 180}";
type = Stem;
},
{
horizontal = 1;
place = "{355, 179}";
type = Stem;
},
{
place = "{223, 180}";
type = Stem;
},
{
place = "{56, 514}";
type = Stem;
}
);
layerId = "73AED77B-4167-4914-8C61-5564342D4816";
paths = (
{
closed = 1;
nodes = (
"223 671 LINE",
"223 534 LINE",
"56 534 LINE",
"56 355 LINE",
"223 355 LINE",
"223 218 LINE",
"403 218 LINE",
"403 355 LINE",
"570 355 LINE",
"570 534 LINE",
"403 534 LINE",
"403 671 LINE"
);
},
{
closed = 1;
nodes = (
"56 180 LINE",
"56 0 LINE",
"570 0 LINE",
"570 180 LINE"
);
}
);
width = 626;
}
);
note = plusminus;
rightKerningGroup = space;
unicode = 00B1;
},
{
glyphname = notequal;
layers = (
{
hints = (
{
horizontal = 1;
place = "{199, 180}";
type = Stem;
},
{
horizontal = 1;
place = "{452, 180}";
type = Stem;
},
{
horizontal = 1;
place = "{772, -20}";
target = down;
type = TopGhost;
},
{
place = "{62, 514}";
type = Stem;
}
);
layerId = "73AED77B-4167-4914-8C61-5564342D4816";
paths = (
{
closed = 1;
nodes = (
"62 632 LINE",
"62 452 LINE",
"251 452 LINE",
"209 379 LINE",
"62 379 LINE",
"62 199 LINE",
"104 199 LINE",
"20 53 LINE",
"157 53 LINE",
"241 199 LINE",
"576 199 LINE",
"576 379 LINE",
"346 379 LINE",
"388 452 LINE",
"576 452 LINE",
"576 632 LINE",
"493 632 LINE",
"574 772 LINE",
"437 772 LINE",
"356 632 LINE"
);
}
);
width = 638;
}
);
note = notequal;
rightKerningGroup = space;
unicode = 2260;
},
{
glyphname = lessequal;
layers = (
{
hints = (
{
horizontal = 1;
place = "{0, 180}";
type = Stem;
},
{
horizontal = 1;
place = "{837, -20}";
target = down;
type = TopGhost;
},
{
place = "{71, 548}";
type = Stem;
}
);
layerId = "73AED77B-4167-4914-8C61-5564342D4816";
paths = (
{
closed = 1;
nodes = (
"71 180 LINE",
"71 0 LINE",
"619 0 LINE",
"619 180 LINE"
);
},
{
closed = 1;
nodes = (
"71 625 LINE",
"71 487 LINE",
"619 275 LINE",
"619 440 LINE",
"293 554 LINE",
"619 671 LINE",
"619 837 LINE"
);
}
);
width = 681;
}
);
note = lessequal;
rightKerningGroup = space;
unicode = 2264;
},
{
glyphname = greaterequal;
layers = (
{
hints = (
{
horizontal = 1;
place = "{0, 180}";
type = Stem;
},
{
place = "{62, 548}";
type = Stem;
}
);
layerId = "73AED77B-4167-4914-8C61-5564342D4816";
paths = (
{
closed = 1;
nodes = (
"62 180 LINE",
"62 0 LINE",
"610 0 LINE",
"610 180 LINE"
);
},
{
closed = 1;
nodes = (
"62 837 LINE",
"62 671 LINE",
"388 554 LINE",
"62 440 LINE",
"62 275 LINE",
"610 487 LINE",
"610 625 LINE"
);
}
);
width = 681;
}
);
note = greaterequal;
rightKerningGroup = space;
unicode = 2265;
},
{
glyphname = fraction;
layers = (
{
hints = (
{
horizontal = 1;
place = "{0, 21}";
target = up;
type = BottomGhost;
},
{
horizontal = 1;
place = "{825, -20}";
target = down;
type = TopGhost;
},
{
place = "{-176, 617}";
type = Stem;
}
);
layerId = "73AED77B-4167-4914-8C61-5564342D4816";
paths = (
{
closed = 1;
nodes = (
"-176 0 LINE",
"-39 0 LINE",
"441 825 LINE",
"304 825 LINE"
);
}
);
width = 265;
}
);
note = fraction;
rightKerningGroup = space;
unicode = 2044;
},
{
glyphname = comma;
layers = (
{
hints = (
{
horizontal = 1;
place = "{-207, 21}";
target = up;
type = BottomGhost;
},
{
horizontal = 1;
place = "{250, -20}";
target = down;
type = TopGhost;
},
{
place = "{61, 265}";
type = Stem;
}
);
layerId = "73AED77B-4167-4914-8C61-5564342D4816";
paths = (
{
closed = 1;
nodes = (
"120 250 OFFCURVE",
"61 191 OFFCURVE",
"61 117 CURVE SMOOTH",
"61 56 OFFCURVE",
"103 10 OFFCURVE",
"159 -4 CURVE",
"140 -97 OFFCURVE",
"69 -161 OFFCURVE",
"72 -158 CURVE",
"132 -207 LINE",
"226 -129 OFFCURVE",
"326 -18 OFFCURVE",
"326 117 CURVE SMOOTH",
"326 191 OFFCURVE",
"267 250 OFFCURVE",
"193 250 CURVE SMOOTH"
);
}
);
width = 387;
}
);
leftKerningGroup = comma;
note = comma;
rightKerningGroup = space;
unicode = 002C;
},
{
glyphname = hyphen;
layers = (
{
hints = (
{
horizontal = 1;
place = "{200, 179}";
type = Stem;
},
{
place = "{58, 322}";
type = Stem;
}
);
layerId = "73AED77B-4167-4914-8C61-5564342D4816";
paths = (
{
closed = 1;
nodes = (
"58 379 LINE",
"58 200 LINE",
"380 200 LINE",
"380 379 LINE"
);
}
);
width = 438;
}
);
note = hyphen;
rightKerningGroup = space;
unicode = 002D;
},
{
glyphname = period;
layers = (
{
hints = (
{
horizontal = 1;
place = "{-16, 266}";
type = Stem;
},
{
place = "{61, 266}";
type = Stem;
}
);
layerId = "73AED77B-4167-4914-8C61-5564342D4816";
paths = (
{
closed = 1;
nodes = (
"120 250 OFFCURVE",
"61 191 OFFCURVE",
"61 117 CURVE SMOOTH",
"61 43 OFFCURVE",
"120 -16 OFFCURVE",
"194 -16 CURVE SMOOTH",
"268 -16 OFFCURVE",
"327 43 OFFCURVE",
"327 117 CURVE SMOOTH",
"327 191 OFFCURVE",
"268 250 OFFCURVE",
"194 250 CURVE SMOOTH"
);
}
);
width = 388;
}
);
leftKerningGroup = comma;
note = period;
rightKerningGroup = space;
unicode = 002E;
},
{
glyphname = slash;
layers = (
{
hints = (
{
horizontal = 1;
place = "{-120, 21}";
target = up;
type = BottomGhost;
},
{
horizontal = 1;
place = "{860, -20}";
target = down;
type = TopGhost;
},
{
place = "{28, 591}";
type = Stem;
}
);
layerId = "73AED77B-4167-4914-8C61-5564342D4816";
paths = (
{
closed = 1;
nodes = (
"28 -120 LINE",
"207 -120 LINE",
"619 860 LINE",
"440 860 LINE"
);
}
);
width = 647;
}
);
note = slash;
rightKerningGroup = space;
unicode = 002F;
},
{
glyphname = zero;
layers = (
{
hints = (
{
horizontal = 1;
place = "{-16, 193}";
type = Stem;
},
{
horizontal = 1;
place = "{647, 193}";
type = Stem;
},
{
place = "{16, 222}";
type = Stem;
},
{
place = "{466, 222}";
type = Stem;
}
);
layerId = "73AED77B-4167-4914-8C61-5564342D4816";
paths = (
{
closed = 1;
nodes = (
"688 698 OFFCURVE",
"529 840 OFFCURVE",
"352 840 CURVE SMOOTH",
"175 840 OFFCURVE",
"16 698 OFFCURVE",
"16 412 CURVE SMOOTH",
"16 126 OFFCURVE",
"175 -16 OFFCURVE",
"352 -16 CURVE SMOOTH",
"529 -16 OFFCURVE",
"688 126 OFFCURVE",
"688 412 CURVE SMOOTH"
);
},
{
closed = 1;
nodes = (
"277 177 OFFCURVE",
"238 267 OFFCURVE",
"238 412 CURVE SMOOTH",
"238 557 OFFCURVE",
"277 647 OFFCURVE",
"352 647 CURVE SMOOTH",
"427 647 OFFCURVE",
"466 557 OFFCURVE",
"466 412 CURVE SMOOTH",
"466 267 OFFCURVE",
"427 177 OFFCURVE",
"352 177 CURVE SMOOTH"
);
}
);
width = 704;
}
);
note = zero;
rightKerningGroup = space;
unicode = 0030;
},
{
glyphname = one;
layers = (
{
hints = (
{
horizontal = 1;
place = "{0, 21}";
target = up;
type = BottomGhost;
},
{
horizontal = 1;
place = "{609, 216}";
type = Stem;
},
{
place = "{163, 220}";
type = Stem;
}
);
layerId = "73AED77B-4167-4914-8C61-5564342D4816";
paths = (
{
closed = 1;
nodes = (
"10 825 LINE",
"10 609 LINE",
"163 609 LINE",
"163 0 LINE",
"383 0 LINE",
"383 825 LINE"
);
}
);
width = 432;
}
);
note = one;
rightKerningGroup = space;
unicode = 0031;
},
{
glyphname = two;
layers = (
{
hints = (
{
horizontal = 1;
place = "{0, 193}";
type = Stem;
},
{
horizontal = 1;
place = "{657, 184}";
type = Stem;
},
{
place = "{456, 237}";
type = Stem;
}
);
layerId = "73AED77B-4167-4914-8C61-5564342D4816";
paths = (
{
closed = 1;
nodes = (
"232 514 LINE",
"232 514 OFFCURVE",
"286 657 OFFCURVE",
"362 657 CURVE SMOOTH",
"424 657 OFFCURVE",
"456 627 OFFCURVE",
"456 553 CURVE SMOOTH",
"456 403 OFFCURVE",
"48 115 OFFCURVE",
"48 115 CURVE",
"48 0 LINE",
"708 0 LINE",
"708 193 LINE",
"438 193 LINE",
"438 193 OFFCURVE",
"693 347 OFFCURVE",
"693 545 CURVE SMOOTH",
"693 641 OFFCURVE",
"672 841 OFFCURVE",
"362 841 CURVE SMOOTH",
"122 841 OFFCURVE",
"50 605 OFFCURVE",
"50 605 CURVE"
);
}
);
width = 756;
}
);
note = two;
rightKerningGroup = space;
unicode = 0032;
},
{
glyphname = three;
layers = (
{
hints = (
{
horizontal = 1;
place = "{-16, 188}";
type = Stem;
},
{
horizontal = 1;
place = "{370, 135}";
type = Stem;
},
{
horizontal = 1;
place = "{664, 176}";
type = Stem;
},
{
place = "{416, 199}";
type = Stem;
},
{
place = "{433, 219}";
type = Stem;
}
);
layerId = "73AED77B-4167-4914-8C61-5564342D4816";
paths = (
{
closed = 1;
nodes = (
"219 578 LINE",
"219 578 OFFCURVE",
"237 664 OFFCURVE",
"330 664 CURVE SMOOTH",
"373 664 OFFCURVE",
"416 634 OFFCURVE",
"416 591 CURVE SMOOTH",
"416 541 OFFCURVE",
"375 505 OFFCURVE",
"337 505 CURVE SMOOTH",
"292 505 LINE",
"292 363 LINE",
"292 363 OFFCURVE",
"309 370 OFFCURVE",
"330 370 CURVE SMOOTH",
"388 370 OFFCURVE",
"433 328 OFFCURVE",
"433 265 CURVE SMOOTH",
"433 202 OFFCURVE",
"387 172 OFFCURVE",
"331 172 CURVE SMOOTH",
"220 172 OFFCURVE",
"212 286 OFFCURVE",
"212 286 CURVE",
"9 184 LINE",
"9 184 OFFCURVE",
"76 -16 OFFCURVE",
"332 -16 CURVE SMOOTH",
"513 -16 OFFCURVE",
"652 100 OFFCURVE",
"652 265 CURVE SMOOTH",
"652 350 OFFCURVE",
"615 407 OFFCURVE",
"558 449 CURVE",
"594 486 OFFCURVE",
"615 531 OFFCURVE",
"615 593 CURVE SMOOTH",
"615 737 OFFCURVE",
"497 840 OFFCURVE",
"332 840 CURVE SMOOTH",
"100 840 OFFCURVE",
"47 664 OFFCURVE",
"47 664 CURVE"
);
}
);
width = 673;
}
);
note = three;
rightKerningGroup = space;
unicode = 0033;
},
{
glyphname = four;
layers = (
{
hints = (
{
horizontal = 1;
place = "{0, 21}";
target = up;
type = BottomGhost;
},
{
horizontal = 1;
place = "{146, 193}";
type = Stem;
},
{
horizontal = 1;
place = "{825, -20}";
target = down;
type = TopGhost;
},
{
place = "{379, 206}";
type = Stem;
}
);
layerId = "73AED77B-4167-4914-8C61-5564342D4816";
paths = (
{
closed = 1;
nodes = (
"-31 146 LINE",
"379 146 LINE",
"379 0 LINE",
"585 0 LINE",
"585 146 LINE",
"681 146 LINE",
"681 339 LINE",
"585 339 LINE",
"585 825 LINE",
"367 825 LINE",
"-31 208 LINE"
);
},
{
closed = 1;
nodes = (
"271 339 LINE",
"379 532 LINE",
"379 339 LINE"
);
}
);
width = 691;
}
);
note = four;
rightKerningGroup = space;
unicode = 0034;
},
{
glyphname = five;
layers = (
{
hints = (
{
horizontal = 1;
place = "{-15, 184}";
type = Stem;
},
{
horizontal = 1;
place = "{384, 162}";
type = Stem;
},
{
horizontal = 1;
place = "{632, 193}";
type = Stem;
},
{
place = "{394, 221}";
type = Stem;
}
);
layerId = "73AED77B-4167-4914-8C61-5564342D4816";
paths = (
{
closed = 1;
nodes = (
"141 825 LINE",
"69 367 LINE",
"69 367 OFFCURVE",
"125 384 OFFCURVE",
"191 384 CURVE SMOOTH",
"290 384 OFFCURVE",
"394 361 OFFCURVE",
"394 263 CURVE SMOOTH",
"394 208 OFFCURVE",
"353 169 OFFCURVE",
"306 169 CURVE SMOOTH",
"231 169 OFFCURVE",
"196 202 OFFCURVE",
"184 248 CURVE",
"10 164 LINE",
"41 80 OFFCURVE",
"126 -15 OFFCURVE",
"306 -15 CURVE SMOOTH",
"480 -15 OFFCURVE",
"615 98 OFFCURVE",
"615 256 CURVE SMOOTH",
"615 483 OFFCURVE",
"472 545 OFFCURVE",
"317 546 CURVE",
"330 632 LINE",
"562 632 LINE",
"562 825 LINE"
);
}
);
width = 628;
}
);
note = five;
rightKerningGroup = space;
unicode = 0035;
},
{
glyphname = six;
layers = (
{
hints = (
{
horizontal = 1;
place = "{-16, 182}";
type = Stem;
},
{
horizontal = 1;
place = "{367, 188}";
type = Stem;
},
{
horizontal = 1;
place = "{825, -20}";
target = down;
type = TopGhost;
},
{
place = "{19, 229}";
type = Stem;
},
{
place = "{448, 221}";
type = Stem;
}
);
layerId = "73AED77B-4167-4914-8C61-5564342D4816";
paths = (
{
closed = 1;
nodes = (
"19 108 OFFCURVE",
"169 -16 OFFCURVE",
"358 -16 CURVE SMOOTH",
"504 -16 OFFCURVE",
"669 64 OFFCURVE",
"669 266 CURVE SMOOTH",
"669 463 OFFCURVE",
"514 555 OFFCURVE",
"410 555 CURVE SMOOTH",
"380 555 OFFCURVE",
"364 548 OFFCURVE",
"364 548 CURVE",
"603 825 LINE",
"332 825 LINE",
"161 622 LINE SMOOTH",
"55 497 OFFCURVE",
"19 424 OFFCURVE",
"19 266 CURVE SMOOTH"
);
},
{
closed = 1;
nodes = (
"248 326 OFFCURVE",
"292 367 OFFCURVE",
"347 367 CURVE SMOOTH",
"404 367 OFFCURVE",
"448 324 OFFCURVE",
"448 265 CURVE SMOOTH",
"448 208 OFFCURVE",
"405 166 OFFCURVE",
"347 166 CURVE SMOOTH",
"289 166 OFFCURVE",
"248 208 OFFCURVE",
"248 265 CURVE SMOOTH"
);
}
);
width = 688;
}
);
note = six;
rightKerningGroup = space;
unicode = 0036;
},
{
glyphname = seven;
layers = (
{
hints = (
{
horizontal = 1;
place = "{0, 21}";
target = up;
type = BottomGhost;
},
{
horizontal = 1;
place = "{632, 193}";
type = Stem;
}
);
layerId = "73AED77B-4167-4914-8C61-5564342D4816";
paths = (
{
closed = 1;
nodes = (
"85 825 LINE",
"85 632 LINE",
"425 632 LINE",
"55 0 LINE",
"315 0 LINE",
"751 762 LINE",
"751 825 LINE"
);
}
);
width = 721;
}
);
note = seven;
rightKerningGroup = space;
unicode = 0037;
},
{
glyphname = eight;
layers = (
{
hints = (
{
horizontal = 1;
place = "{-16, 190}";
type = Stem;
},
{
horizontal = 1;
place = "{344, 182}";
type = Stem;
},
{
horizontal = 1;
place = "{674, 166}";
type = Stem;
},
{
place = "{64, 212}";
type = Stem;
},
{
place = "{431, 241}";
type = Stem;
},
{
place = "{28, 241}";
type = Stem;
},
{
place = "{424, 212}";
type = Stem;
}
);
layerId = "73AED77B-4167-4914-8C61-5564342D4816";
paths = (
{
closed = 1;
nodes = (
"64 541 OFFCURVE",
"108 484 OFFCURVE",
"169 447 CURVE",
"88 408 OFFCURVE",
"28 337 OFFCURVE",
"28 223 CURVE SMOOTH",
"28 82 OFFCURVE",
"185 -16 OFFCURVE",
"350 -16 CURVE SMOOTH",
"515 -16 OFFCURVE",
"672 82 OFFCURVE",
"672 223 CURVE SMOOTH",
"672 337 OFFCURVE",
"612 408 OFFCURVE",
"531 447 CURVE",
"592 484 OFFCURVE",
"636 541 OFFCURVE",
"636 632 CURVE SMOOTH",
"636 756 OFFCURVE",
"490 840 OFFCURVE",
"350 840 CURVE SMOOTH",
"210 840 OFFCURVE",
"64 756 OFFCURVE",
"64 632 CURVE SMOOTH"
);
},
{
closed = 1;
nodes = (
"269 309 OFFCURVE",
"303 344 OFFCURVE",
"350 344 CURVE SMOOTH",
"397 344 OFFCURVE",
"431 309 OFFCURVE",
"431 259 CURVE SMOOTH",
"431 209 OFFCURVE",
"399 174 OFFCURVE",
"350 174 CURVE SMOOTH",
"301 174 OFFCURVE",
"269 209 OFFCURVE",
"269 259 CURVE SMOOTH"
);
},
{
closed = 1;
nodes = (
"276 641 OFFCURVE",
"307 674 OFFCURVE",
"350 674 CURVE SMOOTH",
"393 674 OFFCURVE",
"424 641 OFFCURVE",
"424 600 CURVE SMOOTH",
"424 555 OFFCURVE",
"390 526 OFFCURVE",
"350 526 CURVE SMOOTH",
"310 526 OFFCURVE",
"276 555 OFFCURVE",
"276 600 CURVE SMOOTH"
);
}
);
width = 700;
}
);
note = eight;
rightKerningGroup = space;
unicode = 0038;
},
{
glyphname = nine;
layers = (
{
hints = (
{
horizontal = 1;
place = "{0, 21}";
target = up;
type = BottomGhost;
},
{
horizontal = 1;
place = "{269, 188}";
type = Stem;
},
{
horizontal = 1;
place = "{658, 182}";
type = Stem;
},
{
place = "{19, 221}";
type = Stem;
},
{
place = "{440, 229}";
type = Stem;
}
);
layerId = "73AED77B-4167-4914-8C61-5564342D4816";
paths = (
{
closed = 1;
nodes = (
"19 361 OFFCURVE",
"174 269 OFFCURVE",
"278 269 CURVE SMOOTH",
"308 269 OFFCURVE",
"324 276 OFFCURVE",
"324 276 CURVE",
"85 0 LINE",
"356 0 LINE",
"527 202 LINE SMOOTH",
"633 327 OFFCURVE",
"669 400 OFFCURVE",
"669 558 CURVE SMOOTH",
"669 716 OFFCURVE",
"519 840 OFFCURVE",
"330 840 CURVE SMOOTH",
"184 840 OFFCURVE",
"19 760 OFFCURVE",
"19 558 CURVE SMOOTH"
);
},
{
closed = 1;
nodes = (
"240 616 OFFCURVE",
"283 658 OFFCURVE",
"341 658 CURVE SMOOTH",
"399 658 OFFCURVE",
"440 616 OFFCURVE",
"440 559 CURVE SMOOTH",
"440 498 OFFCURVE",
"396 457 OFFCURVE",
"341 457 CURVE SMOOTH",
"284 457 OFFCURVE",
"240 500 OFFCURVE",
"240 559 CURVE SMOOTH"
);
}
);
width = 688;
}
);
note = nine;
rightKerningGroup = space;
unicode = 0039;
},
{
glyphname = colon;
layers = (
{
hints = (
{
horizontal = 1;
place = "{-16, 266}";
type = Stem;
},
{
horizontal = 1;
place = "{318, 266}";
type = Stem;
},
{
place = "{61, 266}";
type = Stem;
}
);
layerId = "73AED77B-4167-4914-8C61-5564342D4816";
paths = (
{
closed = 1;
nodes = (
"120 250 OFFCURVE",
"61 191 OFFCURVE",
"61 117 CURVE SMOOTH",
"61 43 OFFCURVE",
"120 -16 OFFCURVE",
"194 -16 CURVE SMOOTH",
"268 -16 OFFCURVE",
"327 43 OFFCURVE",
"327 117 CURVE SMOOTH",
"327 191 OFFCURVE",
"268 250 OFFCURVE",
"194 250 CURVE SMOOTH"
);
},
{
closed = 1;
nodes = (
"120 584 OFFCURVE",
"61 525 OFFCURVE",
"61 451 CURVE SMOOTH",
"61 377 OFFCURVE",
"120 318 OFFCURVE",
"194 318 CURVE SMOOTH",
"268 318 OFFCURVE",
"327 377 OFFCURVE",
"327 451 CURVE SMOOTH",
"327 525 OFFCURVE",
"268 584 OFFCURVE",
"194 584 CURVE SMOOTH"
);
}
);
width = 388;
}
);
note = colon;
rightKerningGroup = space;
unicode = 003A;
},
{
glyphname = semicolon;
layers = (
{
hints = (
{
horizontal = 1;
place = "{318, 266}";
type = Stem;
},
{
place = "{61, 266}";
type = Stem;
},
{
horizontal = 1;
place = "{-207, 21}";
target = up;
type = BottomGhost;
},
{
horizontal = 1;
place = "{250, -20}";
target = down;
type = TopGhost;
},
{
place = "{61, 265}";
type = Stem;
}
);
layerId = "73AED77B-4167-4914-8C61-5564342D4816";
paths = (
{
closed = 1;
nodes = (
"120 584 OFFCURVE",
"61 525 OFFCURVE",
"61 451 CURVE SMOOTH",
"61 377 OFFCURVE",
"120 318 OFFCURVE",
"194 318 CURVE SMOOTH",
"268 318 OFFCURVE",
"327 377 OFFCURVE",
"327 451 CURVE SMOOTH",
"327 525 OFFCURVE",
"268 584 OFFCURVE",
"194 584 CURVE SMOOTH"
);
},
{
closed = 1;
nodes = (
"120 250 OFFCURVE",
"61 191 OFFCURVE",
"61 117 CURVE SMOOTH",
"61 56 OFFCURVE",
"103 10 OFFCURVE",
"159 -4 CURVE",
"140 -97 OFFCURVE",
"69 -161 OFFCURVE",
"72 -158 CURVE",
"132 -207 LINE",
"226 -129 OFFCURVE",
"326 -18 OFFCURVE",
"326 117 CURVE SMOOTH",
"326 191 OFFCURVE",
"267 250 OFFCURVE",
"193 250 CURVE SMOOTH"
);
}
);
width = 388;
}
);
note = semicolon;
rightKerningGroup = space;
unicode = 003B;
},
{
glyphname = exclam;
layers = (
{
hints = (
{
horizontal = 1;
place = "{-16, 266}";
type = Stem;
},
{
horizontal = 1;
place = "{860, -20}";
target = down;
type = TopGhost;
},
{
place = "{79, 208}";
type = Stem;
},
{
place = "{49, 266}";
type = Stem;
}
);
layerId = "73AED77B-4167-4914-8C61-5564342D4816";
paths = (
{
closed = 1;
nodes = (
"79 860 LINE",
"108 290 LINE",
"258 290 LINE",
"287 860 LINE"
);
},
{
closed = 1;
nodes = (
"108 250 OFFCURVE",
"49 191 OFFCURVE",
"49 117 CURVE SMOOTH",
"49 43 OFFCURVE",
"108 -16 OFFCURVE",
"182 -16 CURVE SMOOTH",
"256 -16 OFFCURVE",
"315 43 OFFCURVE",
"315 117 CURVE SMOOTH",
"315 191 OFFCURVE",
"256 250 OFFCURVE",
"182 250 CURVE SMOOTH"
);
}
);
width = 364;
}
);
note = exclam;
rightKerningGroup = space;
unicode = 0021;
},
{
glyphname = question;
layers = (
{
hints = (
{
horizontal = 1;
place = "{-16, 265}";
type = Stem;
},
{
horizontal = 1;
place = "{351, 173}";
type = Stem;
},
{
horizontal = 1;
place = "{657, 183}";
type = Stem;
},
{
place = "{167, 265}";
type = Stem;
},
{
horizontal = 1;
place = "{-16, 21}";
target = up;
type = BottomGhost;
},
{
place = "{386, 195}";
type = Stem;
},
{
place = "{203, 193}";
type = Stem;
}
);
layerId = "73AED77B-4167-4914-8C61-5564342D4816";
paths = (
{
closed = 1;
nodes = (
"226 249 OFFCURVE",
"167 190 OFFCURVE",
"167 116 CURVE SMOOTH",
"167 43 OFFCURVE",
"226 -16 OFFCURVE",
"299 -16 CURVE SMOOTH",
"373 -16 OFFCURVE",
"432 43 OFFCURVE",
"432 116 CURVE SMOOTH",
"432 190 OFFCURVE",
"373 249 OFFCURVE",
"299 249 CURVE SMOOTH"
);
},
{
closed = 1;
nodes = (
"190 602 LINE",
"204 620 OFFCURVE",
"219 657 OFFCURVE",
"298 657 CURVE SMOOTH",
"377 657 OFFCURVE",
"386 599 OFFCURVE",
"386 589 CURVE SMOOTH",
"386 579 OFFCURVE",
"376 524 OFFCURVE",
"301 524 CURVE SMOOTH",
"254 524 OFFCURVE",
"231 526 OFFCURVE",
"203 533 CURVE",
"203 287 LINE",
"396 287 LINE",
"396 351 LINE",
"533 392 OFFCURVE",
"581 516 OFFCURVE",
"581 589 CURVE SMOOTH",
"581 680 OFFCURVE",
"511 840 OFFCURVE",
"298 840 CURVE SMOOTH",
"118 840 OFFCURVE",
"42 723 OFFCURVE",
"20 640 CURVE"
);
}
);
width = 600;
}
);
note = question;
rightKerningGroup = space;
unicode = 003F;
},
{
glyphname = at;
layers = (
{
hints = (
{
horizontal = 1;
place = "{-16, 165}";
type = Stem;
},
{
horizontal = 1;
place = "{226, 141}";
type = Stem;
},
{
horizontal = 1;
place = "{464, 128}";
type = Stem;
},
{
horizontal = 1;
place = "{688, 152}";
type = Stem;
},
{
place = "{13, 169}";
type = Stem;
},
{
place = "{237, 159}";
type = Stem;
},
{
place = "{518, 137}";
type = Stem;
},
{
place = "{761, 137}";
type = Stem;
},
{
horizontal = 1;
place = "{216, 133}";
type = Stem;
}
);
layerId = "73AED77B-4167-4914-8C61-5564342D4816";
paths = (
{
closed = 1;
nodes = (
"13 157 OFFCURVE",
"226 -16 OFFCURVE",
"469 -16 CURVE SMOOTH",
"683 -16 OFFCURVE",
"765 108 OFFCURVE",
"765 108 CURVE",
"631 198 LINE",
"631 198 OFFCURVE",
"579 149 OFFCURVE",
"470 149 CURVE SMOOTH",
"314 149 OFFCURVE",
"182 263 OFFCURVE",
"182 413 CURVE SMOOTH",
"182 564 OFFCURVE",
"308 688 OFFCURVE",
"470 688 CURVE SMOOTH",
"636 688 OFFCURVE",
"761 591 OFFCURVE",
"761 448 CURVE SMOOTH",
"761 387 OFFCURVE",
"743 367 OFFCURVE",
"701 367 CURVE SMOOTH",
"674 367 OFFCURVE",
"655 382 OFFCURVE",
"655 410 CURVE SMOOTH",
"655 582 LINE",
"518 582 LINE",
"518 564 LINE",
"489 582 OFFCURVE",
"454 592 OFFCURVE",
"412 592 CURVE SMOOTH",
"309 592 OFFCURVE",
"237 507 OFFCURVE",
"237 403 CURVE SMOOTH",
"237 301 OFFCURVE",
"309 216 OFFCURVE",
"412 216 CURVE SMOOTH",
"466 216 OFFCURVE",
"502 240 OFFCURVE",
"528 267 CURVE",
"566 240 OFFCURVE",
"623 226 OFFCURVE",
"675 226 CURVE SMOOTH",
"776 226 OFFCURVE",
"898 284 OFFCURVE",
"898 448 CURVE SMOOTH",
"898 683 OFFCURVE",
"704 840 OFFCURVE",
"469 840 CURVE SMOOTH",
"222 840 OFFCURVE",
"13 670 OFFCURVE",
"13 413 CURVE SMOOTH"
);
},
{
closed = 1;
nodes = (
"396 440 OFFCURVE",
"424 464 OFFCURVE",
"456 464 CURVE SMOOTH",
"488 464 OFFCURVE",
"517 440 OFFCURVE",
"517 405 CURVE SMOOTH",
"517 372 OFFCURVE",
"491 349 OFFCURVE",
"456 349 CURVE SMOOTH",
"420 349 OFFCURVE",
"396 370 OFFCURVE",
"396 405 CURVE SMOOTH"
);
}
);
width = 909;
}
);
note = at;
rightKerningGroup = space;
unicode = 0040;
},
{
glyphname = A;
layers = (
{
hints = (
{
horizontal = 1;
place = "{0, 21}";
target = up;
type = BottomGhost;
},
{
horizontal = 1;
place = "{137, 193}";
type = Stem;
},
{
horizontal = 1;
place = "{825, -20}";
target = down;
type = TopGhost;
},
{
place = "{-34, 876}";
type = Stem;
}
);
layerId = "73AED77B-4167-4914-8C61-5564342D4816";
paths = (
{
closed = 1;
nodes = (
"302 825 LINE",
"-34 0 LINE",
"203 0 LINE",
"253 137 LINE",
"555 137 LINE",
"605 0 LINE",
"842 0 LINE",
"506 825 LINE"
);
},
{
closed = 1;
nodes = (
"327 330 LINE",
"404 526 LINE",
"481 330 LINE"
);
}
);
width = 808;
}
);
leftKerningGroup = A;
note = A;
rightKerningGroup = space;
unicode = 0041;
},
{
glyphname = B;
layers = (
{
hints = (
{
horizontal = 1;
place = "{0, 169}";
type = Stem;
},
{
horizontal = 1;
place = "{327, 21}";
target = up;
type = BottomGhost;
},
{
horizontal = 1;
place = "{656, 169}";
type = Stem;
},
{
place = "{49, 220}";
type = Stem;
},
{
place = "{423, 232}";
type = Stem;
},
{
horizontal = 1;
place = "{327, 189}";
type = Stem;
},
{
place = "{369, 213}";
type = Stem;
}
);
layerId = "73AED77B-4167-4914-8C61-5564342D4816";
paths = (
{
closed = 1;
nodes = (
"49 825 LINE",
"49 0 LINE",
"382 0 LINE SMOOTH",
"555 0 OFFCURVE",
"655 97 OFFCURVE",
"655 233 CURVE SMOOTH",
"655 369 OFFCURVE",
"582 422 OFFCURVE",
"484 440 CURVE",
"551 477 OFFCURVE",
"582 542 OFFCURVE",
"582 615 CURVE SMOOTH",
"582 776 OFFCURVE",
"466 825 OFFCURVE",
"328 825 CURVE SMOOTH"
);
},
{
closed = 1;
nodes = (
"269 656 LINE",
"264 656 LINE SMOOTH",
"334 656 OFFCURVE",
"369 639 OFFCURVE",
"369 592 CURVE SMOOTH",
"369 533 OFFCURVE",
"333 516 OFFCURVE",
"264 516 CURVE SMOOTH",
"269 516 LINE"
);
},
{
closed = 1;
nodes = (
"269 327 LINE",
"303 327 LINE SMOOTH",
"381 327 OFFCURVE",
"423 309 OFFCURVE",
"423 241 CURVE SMOOTH",
"423 187 OFFCURVE",
"381 169 OFFCURVE",
"303 169 CURVE SMOOTH",
"269 169 LINE"
);
}
);
width = 671;
}
);
note = B;
rightKerningGroup = space;
unicode = 0042;
},
{
glyphname = C;
layers = (
{
hints = (
{
horizontal = 1;
place = "{-16, 216}";
type = Stem;
},
{
horizontal = 1;
place = "{624, 216}";
type = Stem;
},
{
place = "{13, 238}";
type = Stem;
}
);
layerId = "73AED77B-4167-4914-8C61-5564342D4816";
paths = (
{
closed = 1;
nodes = (
"13 176 OFFCURVE",
"233 -16 OFFCURVE",
"464 -16 CURVE SMOOTH",
"644 -16 OFFCURVE",
"736 57 OFFCURVE",
"736 57 CURVE",
"643 245 LINE",
"643 245 OFFCURVE",
"585 200 OFFCURVE",
"498 200 CURVE SMOOTH",
"318 200 OFFCURVE",
"251 325 OFFCURVE",
"251 412 CURVE SMOOTH",
"251 499 OFFCURVE",
"318 624 OFFCURVE",
"498 624 CURVE SMOOTH",
"585 624 OFFCURVE",
"643 579 OFFCURVE",
"643 579 CURVE",
"736 767 LINE",
"736 767 OFFCURVE",
"644 840 OFFCURVE",
"464 840 CURVE SMOOTH",
"233 840 OFFCURVE",
"13 648 OFFCURVE",
"13 412 CURVE SMOOTH"
);
}
);
width = 738;
}
);
leftKerningGroup = C;
note = C;
rightKerningGroup = C;
unicode = 0043;
},
{
glyphname = D;
layers = (
{
hints = (
{
horizontal = 1;
place = "{0, 197}";
type = Stem;
},
{
horizontal = 1;
place = "{628, 197}";
type = Stem;
},
{
place = "{49, 220}";
type = Stem;
},
{
place = "{481, 238}";
type = Stem;
}
);
layerId = "73AED77B-4167-4914-8C61-5564342D4816";
paths = (
{
closed = 1;
nodes = (
"49 825 LINE",
"49 0 LINE",
"303 0 LINE SMOOTH",
"530 0 OFFCURVE",
"719 171 OFFCURVE",
"719 412 CURVE SMOOTH",
"719 652 OFFCURVE",
"529 825 OFFCURVE",
"303 825 CURVE SMOOTH"
);
},
{
closed = 1;
nodes = (
"269 628 LINE",
"277 628 LINE SMOOTH",
"403 628 OFFCURVE",
"481 532 OFFCURVE",
"481 412 CURVE SMOOTH",
"480 291 OFFCURVE",
"401 197 OFFCURVE",
"277 197 CURVE SMOOTH",
"269 197 LINE"
);
}
);
width = 732;
}
);
note = D;
rightKerningGroup = space;
unicode = 0044;
},
{
glyphname = E;
layers = (
{
hints = (
{
horizontal = 1;
place = "{0, 193}";
type = Stem;
},
{
horizontal = 1;
place = "{317, 193}";
type = Stem;
},
{
horizontal = 1;
place = "{632, 193}";
type = Stem;
},
{
place = "{49, 220}";
type = Stem;
}
);
layerId = "73AED77B-4167-4914-8C61-5564342D4816";
paths = (
{
closed = 1;
nodes = (
"49 825 LINE",
"49 0 LINE",
"537 0 LINE",
"537 193 LINE",
"269 193 LINE",
"269 317 LINE",
"525 317 LINE",
"525 510 LINE",
"269 510 LINE",
"269 632 LINE",
"537 632 LINE",
"537 825 LINE"
);
}
);
width = 580;
}
);
note = E;
rightKerningGroup = E;
unicode = 0045;
},
{
glyphname = F;
layers = (
{
hints = (
{
horizontal = 1;
place = "{0, 21}";
target = up;
type = BottomGhost;
},
{
horizontal = 1;
place = "{317, 193}";
type = Stem;
},
{
horizontal = 1;
place = "{632, 193}";
type = Stem;
},
{
place = "{49, 220}";
type = Stem;
}
);
layerId = "73AED77B-4167-4914-8C61-5564342D4816";
paths = (
{
closed = 1;
nodes = (
"49 825 LINE",
"49 0 LINE",
"269 0 LINE",
"269 317 LINE",
"521 317 LINE",
"521 510 LINE",
"269 510 LINE",
"269 632 LINE",
"543 632 LINE",
"543 825 LINE"
);
}
);
width = 580;
}
);
note = F;
rightKerningGroup = space;
unicode = 0046;
},
{
glyphname = G;
layers = (
{
hints = (
{
horizontal = 1;
place = "{-16, 203}";
type = Stem;
},
{
horizontal = 1;
place = "{316, 160}";
type = Stem;
},
{
horizontal = 1;
place = "{641, 199}";
type = Stem;
},
{
place = "{13, 238}";
type = Stem;
},
{
place = "{572, 224}";
type = Stem;
}
);
layerId = "73AED77B-4167-4914-8C61-5564342D4816";
paths = (
{
closed = 1;
nodes = (
"13 176 OFFCURVE",
"193 -16 OFFCURVE",
"415 -16 CURVE SMOOTH",
"664 -16 OFFCURVE",
"796 175 OFFCURVE",
"796 316 CURVE SMOOTH",
"796 476 LINE",
"415 476 LINE",
"415 307 LINE",
"572 307 LINE",
"572 226 OFFCURVE",
"493 187 OFFCURVE",
"428 187 CURVE SMOOTH",
"330 187 OFFCURVE",
"251 289 OFFCURVE",
"251 412 CURVE SMOOTH",
"251 539 OFFCURVE",
"332 641 OFFCURVE",
"428 641 CURVE SMOOTH",
"506 641 OFFCURVE",
"572 607 OFFCURVE",
"598 551 CURVE",
"733 699 LINE",
"663 791 OFFCURVE",
"555 840 OFFCURVE",
"415 840 CURVE SMOOTH",
"183 840 OFFCURVE",
"13 649 OFFCURVE",
"13 412 CURVE SMOOTH"
);
}
);
width = 806;
}
);
note = G;
rightKerningGroup = space;
unicode = 0047;
},
{
glyphname = H;
layers = (
{
hints = (
{
horizontal = 1;
place = "{0, 21}";
target = up;
type = BottomGhost;
},
{
horizontal = 1;
place = "{317, 193}";
type = Stem;
},
{
horizontal = 1;
place = "{825, -20}";
target = down;
type = TopGhost;
},
{
place = "{49, 220}";
type = Stem;
},
{
place = "{481, 220}";
type = Stem;
}
);
layerId = "73AED77B-4167-4914-8C61-5564342D4816";
paths = (
{
closed = 1;
nodes = (
"49 825 LINE",
"49 0 LINE",
"269 0 LINE",
"269 317 LINE",
"481 317 LINE",
"481 0 LINE",
"701 0 LINE",
"701 825 LINE",
"481 825 LINE",
"481 510 LINE",
"269 510 LINE",
"269 825 LINE"
);
}
);
width = 750;
}
);
note = H;
rightKerningGroup = space;
unicode = 0048;
},
{
glyphname = I;
layers = (
{
hints = (
{
horizontal = 1;
place = "{0, 21}";
target = up;
type = BottomGhost;
},
{
horizontal = 1;
place = "{825, -20}";
target = down;
type = TopGhost;
},
{
place = "{49, 220}";
type = Stem;
}
);
layerId = "73AED77B-4167-4914-8C61-5564342D4816";
paths = (
{
closed = 1;
nodes = (
"49 825 LINE",
"49 0 LINE",
"269 0 LINE",
"269 825 LINE"
);
}
);
width = 318;
}
);
leftKerningGroup = I;
note = I;
rightKerningGroup = space;
unicode = 0049;
},
{
glyphname = J;
layers = (
{
hints = (
{
horizontal = 1;
place = "{-16, 211}";
type = Stem;
},
{
horizontal = 1;
place = "{825, -20}";
target = down;
type = TopGhost;
},
{
place = "{196, 220}";
type = Stem;
}
);
layerId = "73AED77B-4167-4914-8C61-5564342D4816";
paths = (
{
closed = 1;
nodes = (
"196 825 LINE",
"196 287 LINE SMOOTH",
"196 219 OFFCURVE",
"163 195 OFFCURVE",
"128 195 CURVE SMOOTH",
"91 195 OFFCURVE",
"36 245 OFFCURVE",
"36 245 CURVE",
"-34 63 LINE",
"-34 63 OFFCURVE",
"41 -16 OFFCURVE",
"159 -16 CURVE SMOOTH",
"324 -16 OFFCURVE",
"416 70 OFFCURVE",
"416 232 CURVE SMOOTH",
"416 825 LINE"
);
}
);
width = 454;
}
);
note = J;
rightKerningGroup = space;
unicode = 004A;
},
{
glyphname = K;
layers = (
{
hints = (
{
horizontal = 1;
place = "{0, 21}";
target = up;
type = BottomGhost;
},
{
horizontal = 1;
place = "{825, -20}";
target = down;
type = TopGhost;
},
{
place = "{49, 220}";
type = Stem;
}
);
layerId = "73AED77B-4167-4914-8C61-5564342D4816";
paths = (
{
closed = 1;
nodes = (
"49 825 LINE",
"49 0 LINE",
"269 0 LINE",
"269 331 LINE",
"545 0 LINE",
"848 0 LINE",
"473 436 LINE",
"793 825 LINE",
"526 825 LINE",
"269 504 LINE",
"269 825 LINE"
);
}
);
width = 819;
}
);
note = K;
rightKerningGroup = space;
unicode = 004B;
},
{
glyphname = L;
layers = (
{
hints = (
{
horizontal = 1;
place = "{0, 193}";
type = Stem;
},
{
horizontal = 1;
place = "{825, -20}";
target = down;
type = TopGhost;
},
{
place = "{49, 220}";
type = Stem;
}
);
layerId = "73AED77B-4167-4914-8C61-5564342D4816";
paths = (
{
closed = 1;
nodes = (
"49 825 LINE",
"49 0 LINE",
"535 0 LINE",
"535 193 LINE",
"269 193 LINE",
"269 825 LINE"
);
}
);
width = 568;
}
);
note = L;
rightKerningGroup = L;
unicode = 004C;
},
{
glyphname = M;
layers = (
{
hints = (
{
horizontal = 1;
place = "{0, 21}";
target = up;
type = BottomGhost;
},
{
horizontal = 1;
place = "{825, -20}";
target = down;
type = TopGhost;
},
{
place = "{8, 930}";
type = Stem;
}
);
layerId = "73AED77B-4167-4914-8C61-5564342D4816";
paths = (
{
closed = 1;
nodes = (
"73 825 LINE",
"8 0 LINE",
"228 0 LINE",
"252 433 LINE",
"408 0 LINE",
"538 0 LINE",
"694 433 LINE",
"718 0 LINE",
"938 0 LINE",
"873 825 LINE",
"639 825 LINE",
"473 397 LINE",
"307 825 LINE"
);
}
);
width = 946;
}
);
note = M;
rightKerningGroup = space;
unicode = 004D;
},
{
glyphname = M.1;
layers = (
{
hints = (
{
horizontal = 1;
place = "{0, 21}";
target = up;
type = BottomGhost;
},
{
horizontal = 1;
place = "{825, -20}";
target = down;
type = TopGhost;
},
{
place = "{49, 220}";
type = Stem;
},
{
place = "{701, 220}";
type = Stem;
}
);
layerId = "73AED77B-4167-4914-8C61-5564342D4816";
paths = (
{
closed = 1;
nodes = (
"49 825 LINE",
"49 0 LINE",
"269 0 LINE",
"269 365 LINE",
"421 0 LINE",
"549 0 LINE",
"701 365 LINE",
"701 0 LINE",
"921 0 LINE",
"921 825 LINE",
"669 825 LINE",
"485 397 LINE",
"301 825 LINE"
);
}
);
width = 970;
}
);
note = M.1;
},
{
glyphname = N;
layers = (
{
hints = (
{
horizontal = 1;
place = "{0, 21}";
target = up;
type = BottomGhost;
},
{
horizontal = 1;
place = "{825, -20}";
target = down;
type = TopGhost;
},
{
place = "{49, 220}";
type = Stem;
},
{
place = "{565, 220}";
type = Stem;
}
);
layerId = "73AED77B-4167-4914-8C61-5564342D4816";
paths = (
{
closed = 1;
nodes = (
"49 825 LINE",
"49 0 LINE",
"269 0 LINE",
"269 460 LINE",
"565 0 LINE",
"785 0 LINE",
"785 825 LINE",
"565 825 LINE",
"565 365 LINE",
"269 825 LINE"
);
}
);
width = 834;
}
);
note = N;
rightKerningGroup = space;
unicode = 004E;
},
{
glyphname = O;
layers = (
{
hints = (
{
horizontal = 1;
place = "{-16, 212}";
type = Stem;
},
{
horizontal = 1;
place = "{628, 212}";
type = Stem;
},
{
place = "{13, 237}";
type = Stem;
},
{
place = "{608, 237}";
type = Stem;
}
);
layerId = "73AED77B-4167-4914-8C61-5564342D4816";
paths = (
{
closed = 1;
nodes = (
"13 171 OFFCURVE",
"202 -16 OFFCURVE",
"429 -16 CURVE SMOOTH",
"656 -16 OFFCURVE",
"845 171 OFFCURVE",
"845 412 CURVE SMOOTH",
"845 653 OFFCURVE",
"656 840 OFFCURVE",
"429 840 CURVE SMOOTH",
"202 840 OFFCURVE",
"13 653 OFFCURVE",
"13 412 CURVE SMOOTH"
);
},
{
closed = 1;
nodes = (
"250 514 OFFCURVE",
"297 628 OFFCURVE",
"429 628 CURVE SMOOTH",
"561 628 OFFCURVE",
"608 514 OFFCURVE",
"608 412 CURVE SMOOTH",
"608 310 OFFCURVE",
"561 196 OFFCURVE",
"429 196 CURVE SMOOTH",
"297 196 OFFCURVE",
"250 310 OFFCURVE",
"250 412 CURVE SMOOTH"
);
}
);
width = 858;
}
);
leftKerningGroup = O;
note = O;
rightKerningGroup = O;
unicode = 004F;
},
{
glyphname = P;
layers = (
{
hints = (
{
horizontal = 1;
place = "{0, 21}";
target = up;
type = BottomGhost;
},
{
horizontal = 1;
place = "{294, 174}";
type = Stem;
},
{
horizontal = 1;
place = "{650, 175}";
type = Stem;
},
{
place = "{49, 220}";
type = Stem;
},
{
place = "{430, 232}";
type = Stem;
}
);
layerId = "73AED77B-4167-4914-8C61-5564342D4816";
paths = (
{
closed = 1;
nodes = (
"49 825 LINE",
"49 0 LINE",
"269 0 LINE",
"269 294 LINE",
"375 294 LINE SMOOTH",
"535 294 OFFCURVE",
"662 388 OFFCURVE",
"662 565 CURVE SMOOTH",
"662 743 OFFCURVE",
"535 825 OFFCURVE",
"375 825 CURVE SMOOTH"
);
},
{
closed = 1;
nodes = (
"269 650 LINE",
"303 650 LINE SMOOTH",
"362 650 OFFCURVE",
"430 636 OFFCURVE",
"430 558 CURVE SMOOTH",
"430 481 OFFCURVE",
"362 468 OFFCURVE",
"303 468 CURVE SMOOTH",
"269 468 LINE"
);
}
);
width = 675;
}
);
note = P;
rightKerningGroup = space;
unicode = 0050;
},
{
glyphname = Q;
layers = (
{
hints = (
{
horizontal = 1;
place = "{-16, 212}";
type = Stem;
},
{
horizontal = 1;
place = "{628, 212}";
type = Stem;
},
{
place = "{13, 237}";
type = Stem;
},
{
place = "{608, 237}";
type = Stem;
},
{
horizontal = 1;
place = "{-27, 21}";
target = up;
type = BottomGhost;
}
);
layerId = "73AED77B-4167-4914-8C61-5564342D4816";
paths = (
{
closed = 1;
nodes = (
"13 171 OFFCURVE",
"202 -16 OFFCURVE",
"429 -16 CURVE SMOOTH",
"509 -16 OFFCURVE",
"585 7 OFFCURVE",
"649 48 CURVE",
"698 18 OFFCURVE",
"748 -7 OFFCURVE",
"800 -27 CURVE",
"897 169 LINE",
"862 178 OFFCURVE",
"827 189 OFFCURVE",
"792 202 CURVE",
"826 264 OFFCURVE",
"845 335 OFFCURVE",
"845 412 CURVE SMOOTH",
"845 653 OFFCURVE",
"656 840 OFFCURVE",
"429 840 CURVE SMOOTH",
"202 840 OFFCURVE",
"13 653 OFFCURVE",
"13 412 CURVE SMOOTH"
);
},
{
closed = 1;
nodes = (
"250 514 OFFCURVE",
"297 628 OFFCURVE",
"429 628 CURVE SMOOTH",
"561 628 OFFCURVE",
"608 514 OFFCURVE",
"608 412 CURVE SMOOTH",
"608 377 OFFCURVE",
"602 342 OFFCURVE",
"590 310 CURVE",
"542 343 OFFCURVE",
"498 382 OFFCURVE",
"459 424 CURVE",
"366 307 LINE",
"391 271 OFFCURVE",
"422 234 OFFCURVE",
"459 198 CURVE",
"459 198 OFFCURVE",
"446 196 OFFCURVE",
"429 196 CURVE SMOOTH",
"297 196 OFFCURVE",
"250 310 OFFCURVE",
"250 412 CURVE SMOOTH"
);
}
);
width = 858;
}
);
note = Q;
rightKerningGroup = space;
unicode = 0051;
},
{
glyphname = Q.1;
layers = (
{
hints = (
{
horizontal = 1;
place = "{-149, 139}";
type = Stem;
},
{
horizontal = 1;
place = "{628, 212}";
type = Stem;
},
{
place = "{13, 237}";
type = Stem;
},
{
place = "{608, 237}";
type = Stem;
},
{
horizontal = 1;
place = "{-236, 216}";
type = Stem;
}
);
layerId = "73AED77B-4167-4914-8C61-5564342D4816";
paths = (
{
closed = 1;
nodes = (
"13 195 OFFCURVE",
"165 22 OFFCURVE",
"361 -10 CURVE",
"283 -7 OFFCURVE",
"213 -105 OFFCURVE",
"213 -105 CURVE",
"265 -184 LINE",
"265 -184 OFFCURVE",
"304 -149 OFFCURVE",
"373 -149 CURVE SMOOTH",
"496 -149 OFFCURVE",
"554 -236 OFFCURVE",
"680 -236 CURVE SMOOTH",
"818 -236 OFFCURVE",
"874 -114 OFFCURVE",
"874 -114 CURVE",
"805 34 LINE",
"805 34 OFFCURVE",
"766 -20 OFFCURVE",
"681 -20 CURVE SMOOTH",
"638 -20 OFFCURVE",
"584 -4 OFFCURVE",
"539 0 CURVE",
"714 48 OFFCURVE",
"845 211 OFFCURVE",
"845 412 CURVE SMOOTH",
"845 653 OFFCURVE",
"656 840 OFFCURVE",
"429 840 CURVE SMOOTH",
"202 840 OFFCURVE",
"13 653 OFFCURVE",
"13 412 CURVE SMOOTH"
);
},
{
closed = 1;
nodes = (
"250 514 OFFCURVE",
"297 628 OFFCURVE",
"429 628 CURVE SMOOTH",
"561 628 OFFCURVE",
"608 514 OFFCURVE",
"608 412 CURVE SMOOTH",
"608 310 OFFCURVE",
"561 196 OFFCURVE",
"429 196 CURVE SMOOTH",
"297 196 OFFCURVE",
"250 310 OFFCURVE",
"250 412 CURVE SMOOTH"
);
}
);
width = 858;
}
);
note = Q.1;
rightKerningGroup = space;
},
{
glyphname = R;
layers = (
{
hints = (
{
horizontal = 1;
place = "{0, 21}";
target = up;
type = BottomGhost;
},
{
horizontal = 1;
place = "{286, 182}";
type = Stem;
},
{
horizontal = 1;
place = "{650, 175}";
type = Stem;
},
{
place = "{49, 220}";
type = Stem;
},
{
place = "{430, 232}";
type = Stem;
}
);
layerId = "73AED77B-4167-4914-8C61-5564342D4816";
paths = (
{
closed = 1;
nodes = (
"49 825 LINE",
"49 0 LINE",
"269 0 LINE",
"269 286 LINE",
"491 0 LINE",
"770 0 LINE",
"503 313 LINE",
"597 353 OFFCURVE",
"662 436 OFFCURVE",
"662 565 CURVE SMOOTH",
"662 743 OFFCURVE",
"535 825 OFFCURVE",
"375 825 CURVE SMOOTH"
);
},
{
closed = 1;
nodes = (
"269 650 LINE",
"303 650 LINE SMOOTH",
"362 650 OFFCURVE",
"430 636 OFFCURVE",
"430 558 CURVE SMOOTH",
"430 481 OFFCURVE",
"362 468 OFFCURVE",
"303 468 CURVE SMOOTH",
"269 468 LINE"
);
}
);
width = 749;
}
);
note = R;
rightKerningGroup = R;
unicode = 0052;
},
{
glyphname = R.1;
layers = (
{
hints = (
{
horizontal = 1;
place = "{-15, 197}";
type = Stem;
},
{
horizontal = 1;
place = "{650, 175}";
type = Stem;
},
{
place = "{49, 220}";
type = Stem;
},
{
place = "{430, 232}";
type = Stem;
}
);
layerId = "73AED77B-4167-4914-8C61-5564342D4816";
paths = (
{
closed = 1;
nodes = (
"49 825 LINE",
"49 0 LINE",
"269 0 LINE",
"269 294 LINE",
"262 294 LINE",
"426 84 LINE",
"426 84 OFFCURVE",
"492 -15 OFFCURVE",
"610 -15 CURVE SMOOTH",
"711 -15 OFFCURVE",
"763 39 OFFCURVE",
"763 39 CURVE",
"700 197 LINE",
"701 199 OFFCURVE",
"682 182 OFFCURVE",
"653 182 CURVE SMOOTH",
"635 182 OFFCURVE",
"617 185 OFFCURVE",
"583 223 CURVE SMOOTH",
"503 313 LINE",
"597 353 OFFCURVE",
"662 436 OFFCURVE",
"662 565 CURVE SMOOTH",
"662 743 OFFCURVE",
"535 825 OFFCURVE",
"375 825 CURVE SMOOTH"
);
},
{
closed = 1;
nodes = (
"269 650 LINE",
"303 650 LINE SMOOTH",
"362 650 OFFCURVE",
"430 636 OFFCURVE",
"430 558 CURVE SMOOTH",
"430 481 OFFCURVE",
"362 468 OFFCURVE",
"303 468 CURVE SMOOTH",
"269 468 LINE"
);
}
);
width = 742;
}
);
note = R.1;
rightKerningGroup = R;
},
{
glyphname = S;
layers = (
{
hints = (
{
horizontal = 1;
place = "{-16, 204}";
type = Stem;
},
{
horizontal = 1;
place = "{640, 200}";
type = Stem;
},
{
place = "{91, 216}";
type = Stem;
},
{
place = "{416, 242}";
type = Stem;
}
);
layerId = "73AED77B-4167-4914-8C61-5564342D4816";
paths = (
{
closed = 1;
nodes = (
"91 495 OFFCURVE",
"151 416 OFFCURVE",
"246 373 CURVE SMOOTH",
"352 325 OFFCURVE",
"416 296 OFFCURVE",
"416 246 CURVE SMOOTH",
"416 207 OFFCURVE",
"391 188 OFFCURVE",
"338 188 CURVE SMOOTH",
"233 188 OFFCURVE",
"123 266 OFFCURVE",
"123 266 CURVE",
"14 79 LINE",
"14 79 OFFCURVE",
"125 -16 OFFCURVE",
"334 -16 CURVE SMOOTH",
"498 -16 OFFCURVE",
"658 49 OFFCURVE",
"658 259 CURVE SMOOTH",
"658 408 OFFCURVE",
"507 480 OFFCURVE",
"400 520 CURVE SMOOTH",
"320 550 OFFCURVE",
"307 570 OFFCURVE",
"307 587 CURVE SMOOTH",
"307 623 OFFCURVE",
"335 640 OFFCURVE",
"387 640 CURVE SMOOTH",
"471 640 OFFCURVE",
"552 592 OFFCURVE",
"552 592 CURVE",
"639 769 LINE",
"639 769 OFFCURVE",
"530 840 OFFCURVE",
"371 840 CURVE SMOOTH",
"235 840 OFFCURVE",
"91 739 OFFCURVE",
"91 579 CURVE SMOOTH"
);
}
);
width = 678;
}
);
leftKerningGroup = dollar;
note = S;
rightKerningGroup = space;
unicode = 0053;
},
{
glyphname = T;
layers = (
{
hints = (
{
horizontal = 1;
place = "{0, 21}";
target = up;
type = BottomGhost;
},
{
horizontal = 1;
place = "{632, 193}";
type = Stem;
},
{
place = "{190, 220}";
type = Stem;
}
);
layerId = "73AED77B-4167-4914-8C61-5564342D4816";
paths = (
{
closed = 1;
nodes = (
"10 825 LINE",
"10 632 LINE",
"190 632 LINE",
"190 0 LINE",
"410 0 LINE",
"410 632 LINE",
"590 632 LINE",
"590 825 LINE"
);
}
);
width = 600;
}
);
leftKerningGroup = T;
note = T;
rightKerningGroup = T;
unicode = 0054;
},
{
glyphname = U;
layers = (
{
hints = (
{
horizontal = 1;
place = "{-16, 216}";
type = Stem;
},
{
horizontal = 1;
place = "{825, -20}";
target = down;
type = TopGhost;
},
{
place = "{38, 220}";
type = Stem;
},
{
place = "{484, 220}";
type = Stem;
}
);
layerId = "73AED77B-4167-4914-8C61-5564342D4816";
paths = (
{
closed = 1;
nodes = (
"484 825 LINE",
"484 357 LINE SMOOTH",
"484 229 OFFCURVE",
"450 200 OFFCURVE",
"371 200 CURVE SMOOTH",
"292 200 OFFCURVE",
"258 229 OFFCURVE",
"258 357 CURVE SMOOTH",
"258 825 LINE",
"38 825 LINE",
"38 291 LINE SMOOTH",
"38 87 OFFCURVE",
"154 -16 OFFCURVE",
"371 -16 CURVE SMOOTH",
"588 -16 OFFCURVE",
"704 87 OFFCURVE",
"704 291 CURVE SMOOTH",
"704 825 LINE"
);
}
);
width = 742;
}
);
note = U;
rightKerningGroup = space;
unicode = 0055;
},
{
glyphname = V;
layers = (
{
hints = (
{
horizontal = 1;
place = "{0, 21}";
target = up;
type = BottomGhost;
},
{
horizontal = 1;
place = "{825, -20}";
target = down;
type = TopGhost;
},
{
place = "{-20, 864}";
type = Stem;
}
);
layerId = "73AED77B-4167-4914-8C61-5564342D4816";
paths = (
{
closed = 1;
nodes = (
"-20 825 LINE",
"326 0 LINE",
"498 0 LINE",
"844 825 LINE",
"596 825 LINE",
"412 331 LINE",
"228 825 LINE"
);
}
);
width = 824;
}
);
leftKerningGroup = V;
note = V;
rightKerningGroup = V;
unicode = 0056;
},
{
glyphname = W;
layers = (
{
hints = (
{
horizontal = 1;
place = "{0, 21}";
target = up;
type = BottomGhost;
},
{
horizontal = 1;
place = "{825, -20}";
target = down;
type = TopGhost;
},
{
place = "{-20, 1160}";
type = Stem;
}
);
layerId = "73AED77B-4167-4914-8C61-5564342D4816";
paths = (
{
closed = 1;
nodes = (
"895 825 LINE",
"773 305 LINE",
"642 825 LINE",
"478 825 LINE",
"347 305 LINE",
"225 825 LINE",
"-20 825 LINE",
"213 0 LINE",
"457 0 LINE",
"560 402 LINE",
"663 0 LINE",
"907 0 LINE",
"1140 825 LINE"
);
}
);
width = 1120;
}
);
leftKerningGroup = V;
note = W;
rightKerningGroup = V;
unicode = 0057;
},
{
glyphname = X;
layers = (
{
hints = (
{
horizontal = 1;
place = "{0, 21}";
target = up;
type = BottomGhost;
},
{
horizontal = 1;
place = "{825, -20}";
target = down;
type = TopGhost;
},
{
place = "{-20, 892}";
type = Stem;
}
);
layerId = "73AED77B-4167-4914-8C61-5564342D4816";
paths = (
{
closed = 1;
nodes = (
"558 825 LINE",
"426 626 LINE",
"294 825 LINE",
"32 825 LINE",
"291 444 LINE",
"-20 0 LINE",
"252 0 LINE",
"426 253 LINE",
"600 0 LINE",
"872 0 LINE",
"561 444 LINE",
"820 825 LINE"
);
}
);
width = 852;
}
);
note = X;
rightKerningGroup = space;
unicode = 0058;
},
{
glyphname = Y;
layers = (
{
hints = (
{
horizontal = 1;
place = "{0, 21}";
target = up;
type = BottomGhost;
},
{
horizontal = 1;
place = "{825, -20}";
target = down;
type = TopGhost;
},
{
place = "{-20, 840}";
type = Stem;
},
{
place = "{290, 220}";
type = Stem;
}
);
layerId = "73AED77B-4167-4914-8C61-5564342D4816";
paths = (
{
closed = 1;
nodes = (
"-20 825 LINE",
"290 374 LINE",
"290 0 LINE",
"510 0 LINE",
"510 374 LINE",
"820 825 LINE",
"555 825 LINE",
"400 596 LINE",
"245 825 LINE"
);
}
);
width = 800;
}
);
leftKerningGroup = Y;
note = Y;
rightKerningGroup = Y;
unicode = 0059;
},
{
glyphname = Z;
layers = (
{
hints = (
{
horizontal = 1;
place = "{0, 192}";
type = Stem;
},
{
horizontal = 1;
place = "{633, 192}";
type = Stem;
},
{
place = "{9, 754}";
type = Stem;
}
);
layerId = "73AED77B-4167-4914-8C61-5564342D4816";
paths = (
{
closed = 1;
nodes = (
"68 825 LINE",
"68 633 LINE",
"380 633 LINE",
"9 0 LINE",
"737 0 LINE",
"737 192 LINE",
"392 192 LINE",
"763 825 LINE"
);
}
);
width = 773;
}
);
note = Z;
rightKerningGroup = space;
unicode = 005A;
},
{
glyphname = bracketleft;
layers = (
{
hints = (
{
horizontal = 1;
place = "{-260, 135}";
type = Stem;
},
{
horizontal = 1;
place = "{725, 135}";
type = Stem;
},
{
place = "{49, 178}";
type = Stem;
}
);
layerId = "73AED77B-4167-4914-8C61-5564342D4816";
paths = (
{
closed = 1;
nodes = (
"49 860 LINE",
"49 -260 LINE",
"403 -260 LINE",
"403 -125 LINE",
"227 -125 LINE",
"227 725 LINE",
"403 725 LINE",
"403 860 LINE"
);
}
);
width = 478;
}
);
note = bracketleft;
rightKerningGroup = space;
unicode = 005B;
},
{
glyphname = backslash;
layers = (
{
hints = (
{
horizontal = 1;
place = "{0, 21}";
target = up;
type = BottomGhost;
},
{
horizontal = 1;
place = "{860, -20}";
target = down;
type = TopGhost;
},
{
place = "{28, 591}";
type = Stem;
}
);
layerId = "73AED77B-4167-4914-8C61-5564342D4816";
paths = (
{
closed = 1;
nodes = (
"28 860 LINE",
"440 0 LINE",
"619 0 LINE",
"207 860 LINE"
);
}
);
width = 647;
}
);
note = backslash;
rightKerningGroup = space;
unicode = 005C;
},
{
glyphname = bracketright;
layers = (
{
hints = (
{
horizontal = 1;
place = "{-260, 135}";
type = Stem;
},
{
horizontal = 1;
place = "{725, 135}";
type = Stem;
},
{
place = "{252, 178}";
type = Stem;
}
);
layerId = "73AED77B-4167-4914-8C61-5564342D4816";
paths = (
{
closed = 1;
nodes = (
"76 860 LINE",
"76 725 LINE",
"252 725 LINE",
"252 -125 LINE",
"76 -125 LINE",
"76 -260 LINE",
"430 -260 LINE",
"430 860 LINE"
);
}
);
width = 478;
}
);
note = bracketright;
rightKerningGroup = space;
unicode = 005D;
},
{
glyphname = asciicircum;
layers = (
{
hints = (
{
horizontal = 1;
place = "{605, 21}";
target = up;
type = BottomGhost;
},
{
horizontal = 1;
place = "{841, -20}";
target = down;
type = TopGhost;
},
{
place = "{-6, 522}";
type = Stem;
}
);
layerId = "73AED77B-4167-4914-8C61-5564342D4816";
paths = (
{
closed = 1;
nodes = (
"201 841 LINE",
"-6 605 LINE",
"182 605 LINE",
"255 692 LINE",
"328 605 LINE",
"516 605 LINE",
"309 841 LINE"
);
}
);
width = 510;
}
);
note = asciicircum;
rightKerningGroup = space;
unicode = 005E;
},
{
glyphname = underscore;
layers = (
{
hints = (
{
horizontal = 1;
place = "{-101, 98}";
type = Stem;
},
{
place = "{0, 513}";
type = Stem;
}
);
layerId = "73AED77B-4167-4914-8C61-5564342D4816";
paths = (
{
closed = 1;
nodes = (
"0 -3 LINE",
"0 -101 LINE",
"513 -101 LINE",
"513 -3 LINE"
);
}
);
width = 513;
}
);
note = underscore;
rightKerningGroup = space;
unicode = 005F;
},
{
glyphname = grave;
layers = (
{
hints = (
{
horizontal = 1;
place = "{558, 21}";
target = up;
type = BottomGhost;
},
{
horizontal = 1;
place = "{840, -20}";
target = down;
type = TopGhost;
},
{
place = "{45, 326}";
type = Stem;
}
);
layerId = "73AED77B-4167-4914-8C61-5564342D4816";
paths = (
{
closed = 1;
nodes = (
"45 708 LINE",
"307 558 LINE",
"371 646 LINE",
"150 840 LINE"
);
}
);
width = 416;
}
);
note = grave;
rightKerningGroup = space;
unicode = 0060;
},
{
glyphname = a;
layers = (
{
hints = (
{
horizontal = 1;
place = "{-16, 176}";
type = Stem;
},
{
horizontal = 1;
place = "{512, -20}";
target = down;
type = TopGhost;
},
{
place = "{14, 220}";
type = Stem;
},
{
place = "{423, 208}";
type = Stem;
},
{
horizontal = 1;
place = "{0, 21}";
target = up;
type = BottomGhost;
},
{
horizontal = 1;
place = "{352, 176}";
type = Stem;
}
);
layerId = "73AED77B-4167-4914-8C61-5564342D4816";
paths = (
{
closed = 1;
nodes = (
"14 108 OFFCURVE",
"116 -16 OFFCURVE",
"267 -16 CURVE SMOOTH",
"329 -16 OFFCURVE",
"383 9 OFFCURVE",
"423 40 CURVE",
"423 0 LINE",
"631 0 LINE",
"631 512 LINE",
"423 512 LINE",
"423 479 LINE",
"381 511 OFFCURVE",
"329 528 OFFCURVE",
"267 528 CURVE SMOOTH",
"116 528 OFFCURVE",
"14 404 OFFCURVE",
"14 256 CURVE SMOOTH"
);
},
{
closed = 1;
nodes = (
"234 312 OFFCURVE",
"277 352 OFFCURVE",
"331 352 CURVE SMOOTH",
"383 352 OFFCURVE",
"427 312 OFFCURVE",
"427 256 CURVE SMOOTH",
"427 201 OFFCURVE",
"387 160 OFFCURVE",
"331 160 CURVE SMOOTH",
"271 160 OFFCURVE",
"234 201 OFFCURVE",
"234 256 CURVE SMOOTH"
);
}
);
width = 678;
}
);
leftKerningGroup = a;
note = a;
rightKerningGroup = a;
unicode = 0061;
},
{
glyphname = a.1;
layers = (
{
hints = (
{
horizontal = 1;
place = "{-16, 123}";
type = Stem;
},
{
horizontal = 1;
place = "{190, 108}";
type = Stem;
},
{
horizontal = 1;
place = "{364, 164}";
type = Stem;
},
{
place = "{40, 206}";
type = Stem;
},
{
place = "{372, 211}";
type = Stem;
}
);
layerId = "73AED77B-4167-4914-8C61-5564342D4816";
paths = (
{
closed = 1;
nodes = (
"40 41 OFFCURVE",
"122 -16 OFFCURVE",
"227 -16 CURVE SMOOTH",
"293 -16 OFFCURVE",
"339 0 OFFCURVE",
"372 13 CURVE",
"372 0 LINE",
"583 0 LINE",
"583 289 LINE SMOOTH",
"583 476 OFFCURVE",
"398 528 OFFCURVE",
"274 528 CURVE SMOOTH",
"148 528 OFFCURVE",
"74 484 OFFCURVE",
"74 484 CURVE",
"137 342 LINE",
"137 342 OFFCURVE",
"194 364 OFFCURVE",
"274 364 CURVE SMOOTH",
"312 364 OFFCURVE",
"372 339 OFFCURVE",
"372 297 CURVE SMOOTH",
"372 267 LINE",
"352 276 OFFCURVE",
"306 298 OFFCURVE",
"219 298 CURVE SMOOTH",
"103 298 OFFCURVE",
"40 224 OFFCURVE",
"40 133 CURVE SMOOTH"
);
},
{
closed = 1;
nodes = (
"246 177 OFFCURVE",
"276 190 OFFCURVE",
"313 190 CURVE SMOOTH",
"349 190 OFFCURVE",
"379 170 OFFCURVE",
"379 148 CURVE SMOOTH",
"379 126 OFFCURVE",
"349 107 OFFCURVE",
"313 107 CURVE SMOOTH",
"276 107 OFFCURVE",
"246 125 OFFCURVE",
"246 151 CURVE SMOOTH"
);
}
);
width = 632;
}
);
note = a.1;
},
{
glyphname = b;
layers = (
{
hints = (
{
horizontal = 1;
place = "{0, 21}";
target = up;
type = BottomGhost;
},
{
horizontal = 1;
place = "{352, 176}";
type = Stem;
},
{
horizontal = 1;
place = "{860, -20}";
target = down;
type = TopGhost;
},
{
place = "{47, 208}";
type = Stem;
},
{
place = "{444, 220}";
type = Stem;
},
{
horizontal = 1;
place = "{-16, 176}";
type = Stem;
}
);
layerId = "73AED77B-4167-4914-8C61-5564342D4816";
paths = (
{
closed = 1;
nodes = (
"664 404 OFFCURVE",
"562 528 OFFCURVE",
"411 528 CURVE SMOOTH",
"349 528 OFFCURVE",
"297 511 OFFCURVE",
"255 479 CURVE",
"255 860 LINE",
"47 860 LINE",
"47 0 LINE",
"255 0 LINE",
"255 40 LINE",
"295 9 OFFCURVE",
"349 -16 OFFCURVE",
"411 -16 CURVE SMOOTH",
"562 -16 OFFCURVE",
"664 108 OFFCURVE",
"664 256 CURVE SMOOTH"
);
},
{
closed = 1;
nodes = (
"444 201 OFFCURVE",
"407 160 OFFCURVE",
"347 160 CURVE SMOOTH",
"291 160 OFFCURVE",
"251 201 OFFCURVE",
"251 256 CURVE SMOOTH",
"251 312 OFFCURVE",
"295 352 OFFCURVE",
"347 352 CURVE SMOOTH",
"401 352 OFFCURVE",
"444 312 OFFCURVE",
"444 256 CURVE SMOOTH"
);
}
);
width = 678;
}
);
note = b;
rightKerningGroup = b;
unicode = 0062;
},
{
glyphname = c;
layers = (
{
hints = (
{
horizontal = 1;
place = "{-16, 169}";
type = Stem;
},
{
horizontal = 1;
place = "{359, 169}";
type = Stem;
},
{
place = "{14, 220}";
type = Stem;
}
);
layerId = "73AED77B-4167-4914-8C61-5564342D4816";
paths = (
{
closed = 1;
nodes = (
"14 107 OFFCURVE",
"152 -16 OFFCURVE",
"300 -16 CURVE SMOOTH",
"413 -16 OFFCURVE",
"471 30 OFFCURVE",
"471 30 CURVE",
"403 170 LINE",
"384 158 OFFCURVE",
"366 153 OFFCURVE",
"331 153 CURVE SMOOTH",
"279 153 OFFCURVE",
"234 201 OFFCURVE",
"234 256 CURVE SMOOTH",
"234 311 OFFCURVE",
"279 359 OFFCURVE",
"331 359 CURVE SMOOTH",
"366 359 OFFCURVE",
"384 354 OFFCURVE",
"403 342 CURVE",
"471 482 LINE",
"471 482 OFFCURVE",
"413 528 OFFCURVE",
"300 528 CURVE SMOOTH",
"152 528 OFFCURVE",
"14 405 OFFCURVE",
"14 256 CURVE SMOOTH"
);
}
);
width = 470;
}
);
leftKerningGroup = c;
note = c;
rightKerningGroup = c;
unicode = 0063;
},
{
glyphname = d;
layers = (
{
hints = (
{
horizontal = 1;
place = "{-16, 176}";
type = Stem;
},
{
horizontal = 1;
place = "{352, 176}";
type = Stem;
},
{
horizontal = 1;
place = "{860, -20}";
target = down;
type = TopGhost;
},
{
place = "{14, 220}";
type = Stem;
},
{
place = "{423, 208}";
type = Stem;
},
{
horizontal = 1;
place = "{0, 21}";
target = up;
type = BottomGhost;
}
);
layerId = "73AED77B-4167-4914-8C61-5564342D4816";
paths = (
{
closed = 1;
nodes = (
"14 108 OFFCURVE",
"116 -16 OFFCURVE",
"267 -16 CURVE SMOOTH",
"329 -16 OFFCURVE",
"383 9 OFFCURVE",
"423 40 CURVE",
"423 0 LINE",
"631 0 LINE",
"631 860 LINE",
"423 860 LINE",
"423 479 LINE",
"381 511 OFFCURVE",
"329 528 OFFCURVE",
"267 528 CURVE SMOOTH",
"116 528 OFFCURVE",
"14 404 OFFCURVE",
"14 256 CURVE SMOOTH"
);
},
{
closed = 1;
nodes = (
"234 312 OFFCURVE",
"277 352 OFFCURVE",
"331 352 CURVE SMOOTH",
"383 352 OFFCURVE",
"427 312 OFFCURVE",
"427 256 CURVE SMOOTH",
"427 201 OFFCURVE",
"387 160 OFFCURVE",
"331 160 CURVE SMOOTH",
"271 160 OFFCURVE",
"234 201 OFFCURVE",
"234 256 CURVE SMOOTH"
);
}
);
width = 678;
}
);
leftKerningGroup = d;
note = d;
rightKerningGroup = space;
unicode = 0064;
},
{
glyphname = e;
layers = (
{
hints = (
{
horizontal = 1;
place = "{-16, 164}";
type = Stem;
},
{
horizontal = 1;
place = "{227, 108}";
type = Stem;
},
{
horizontal = 1;
place = "{390, 138}";
type = Stem;
},
{
place = "{14, 215}";
type = Stem;
},
{
place = "{375, 201}";
type = Stem;
}
);
layerId = "73AED77B-4167-4914-8C61-5564342D4816";
paths = (
{
closed = 1;
nodes = (
"14 110 OFFCURVE",
"142 -16 OFFCURVE",
"298 -16 CURVE SMOOTH",
"414 -16 OFFCURVE",
"510 19 OFFCURVE",
"570 120 CURVE",
"421 194 LINE",
"378 153 OFFCURVE",
"363 148 OFFCURVE",
"313 148 CURVE SMOOTH",
"288 148 OFFCURVE",
"229 161 OFFCURVE",
"229 227 CURVE",
"576 227 LINE",
"577 239 OFFCURVE",
"578 251 OFFCURVE",
"578 262 CURVE SMOOTH",
"578 436 OFFCURVE",
"459 528 OFFCURVE",
"300 528 CURVE SMOOTH",
"143 528 OFFCURVE",
"14 407 OFFCURVE",
"14 257 CURVE SMOOTH"
);
},
{
closed = 1;
nodes = (
"235 335 LINE",
"236 366 OFFCURVE",
"257 390 OFFCURVE",
"306 390 CURVE SMOOTH",
"344 390 OFFCURVE",
"368 375 OFFCURVE",
"375 335 CURVE"
);
}
);
width = 592;
}
);
leftKerningGroup = c;
note = e;
rightKerningGroup = c;
unicode = 0065;
},
{
glyphname = f;
layers = (
{
hints = (
{
horizontal = 1;
place = "{0, 21}";
target = up;
type = BottomGhost;
},
{
horizontal = 1;
place = "{354, 158}";
type = Stem;
},
{
horizontal = 1;
place = "{691, 184}";
type = Stem;
},
{
place = "{85, 208}";
type = Stem;
}
);
layerId = "73AED77B-4167-4914-8C61-5564342D4816";
paths = (
{
closed = 1;
nodes = (
"5 512 LINE",
"5 354 LINE",
"85 354 LINE",
"85 0 LINE",
"293 0 LINE",
"293 354 LINE",
"407 354 LINE",
"407 512 LINE",
"293 512 LINE",
"293 594 LINE SMOOTH",
"293 662 OFFCURVE",
"298 691 OFFCURVE",
"341 691 CURVE SMOOTH",
"370 691 OFFCURVE",
"392 679 OFFCURVE",
"392 679 CURVE",
"464 824 LINE",
"464 824 OFFCURVE",
"404 875 OFFCURVE",
"304 875 CURVE SMOOTH",
"164 875 OFFCURVE",
"85 759 OFFCURVE",
"85 601 CURVE SMOOTH",
"85 512 LINE"
);
}
);
width = 419;
}
);
note = f;
rightKerningGroup = space;
unicode = 0066;
},
{
glyphname = g;
layers = (
{
hints = (
{
horizontal = 1;
place = "{-275, 180}";
type = Stem;
},
{
horizontal = 1;
place = "{-16, 176}";
type = Stem;
},
{
horizontal = 1;
place = "{512, -20}";
target = down;
type = TopGhost;
},
{
place = "{14, 220}";
type = Stem;
},
{
place = "{423, 208}";
type = Stem;
},
{
horizontal = 1;
place = "{352, 176}";
type = Stem;
}
);
layerId = "73AED77B-4167-4914-8C61-5564342D4816";
paths = (
{
closed = 1;
nodes = (
"14 108 OFFCURVE",
"116 -16 OFFCURVE",
"267 -16 CURVE SMOOTH",
"329 -16 OFFCURVE",
"383 9 OFFCURVE",
"423 40 CURVE",
"423 4 LINE SMOOTH",
"423 -80 OFFCURVE",
"349 -95 OFFCURVE",
"321 -95 CURVE SMOOTH",
"251 -95 OFFCURVE",
"217 -64 OFFCURVE",
"200 -43 CURVE",
"32 -126 LINE",
"90 -259 OFFCURVE",
"222 -275 OFFCURVE",
"322 -275 CURVE SMOOTH",
"497 -275 OFFCURVE",
"631 -188 OFFCURVE",
"631 -14 CURVE SMOOTH",
"631 512 LINE",
"423 512 LINE",
"423 479 LINE",
"381 511 OFFCURVE",
"329 528 OFFCURVE",
"267 528 CURVE SMOOTH",
"116 528 OFFCURVE",
"14 404 OFFCURVE",
"14 256 CURVE SMOOTH"
);
},
{
closed = 1;
nodes = (
"234 312 OFFCURVE",
"277 352 OFFCURVE",
"331 352 CURVE SMOOTH",
"383 352 OFFCURVE",
"427 312 OFFCURVE",
"427 256 CURVE SMOOTH",
"427 201 OFFCURVE",
"387 160 OFFCURVE",
"331 160 CURVE SMOOTH",
"271 160 OFFCURVE",
"234 201 OFFCURVE",
"234 256 CURVE SMOOTH"
);
}
);
width = 678;
}
);
leftKerningGroup = g;
note = g;
rightKerningGroup = g;
unicode = 0067;
},
{
glyphname = h;
layers = (
{
hints = (
{
horizontal = 1;
place = "{0, 21}";
target = up;
type = BottomGhost;
},
{
horizontal = 1;
place = "{367, 161}";
type = Stem;
},
{
horizontal = 1;
place = "{860, -20}";
target = down;
type = TopGhost;
},
{
place = "{49, 208}";
type = Stem;
},
{
place = "{425, 208}";
type = Stem;
}
);
layerId = "73AED77B-4167-4914-8C61-5564342D4816";
paths = (
{
closed = 1;
nodes = (
"49 860 LINE",
"49 0 LINE",
"257 0 LINE",
"257 278 LINE SMOOTH",
"257 324 OFFCURVE",
"298 367 OFFCURVE",
"349 367 CURVE SMOOTH",
"396 367 OFFCURVE",
"425 331 OFFCURVE",
"425 286 CURVE SMOOTH",
"425 0 LINE",
"633 0 LINE",
"633 342 LINE SMOOTH",
"633 489 OFFCURVE",
"486 528 OFFCURVE",
"403 528 CURVE SMOOTH",
"347 528 OFFCURVE",
"292 499 OFFCURVE",
"257 464 CURVE",
"257 860 LINE"
);
}
);
width = 673;
}
);
note = h;
rightKerningGroup = b;
unicode = 0068;
},
{
glyphname = i;
layers = (
{
hints = (
{
horizontal = 1;
place = "{0, 21}";
target = up;
type = BottomGhost;
},
{
horizontal = 1;
place = "{512, -20}";
target = down;
type = TopGhost;
},
{
horizontal = 1;
place = "{621, 244}";
type = Stem;
},
{
place = "{49, 208}";
type = Stem;
},
{
place = "{30, 244}";
type = Stem;
}
);
layerId = "73AED77B-4167-4914-8C61-5564342D4816";
paths = (
{
closed = 1;
nodes = (
"49 512 LINE",
"49 0 LINE",
"257 0 LINE",
"257 512 LINE"
);
},
{
closed = 1;
nodes = (
"85 865 OFFCURVE",
"30 810 OFFCURVE",
"30 743 CURVE SMOOTH",
"30 676 OFFCURVE",
"85 621 OFFCURVE",
"152 621 CURVE SMOOTH",
"219 621 OFFCURVE",
"274 676 OFFCURVE",
"274 743 CURVE SMOOTH",
"274 810 OFFCURVE",
"219 865 OFFCURVE",
"152 865 CURVE SMOOTH"
);
}
);
width = 306;
}
);
leftKerningGroup = I;
note = i;
rightKerningGroup = space;
unicode = 0069;
},
{
glyphname = j;
layers = (
{
hints = (
{
horizontal = 1;
place = "{-275, 187}";
type = Stem;
},
{
horizontal = 1;
place = "{512, -20}";
target = down;
type = TopGhost;
},
{
horizontal = 1;
place = "{621, 244}";
type = Stem;
},
{
place = "{49, 208}";
type = Stem;
},
{
place = "{30, 244}";
type = Stem;
}
);
layerId = "73AED77B-4167-4914-8C61-5564342D4816";
paths = (
{
closed = 1;
nodes = (
"49 512 LINE",
"49 -28 LINE SMOOTH",
"49 -69 OFFCURVE",
"34 -88 OFFCURVE",
"9 -88 CURVE SMOOTH",
"-9 -88 OFFCURVE",
"-32 -74 OFFCURVE",
"-32 -74 CURVE",
"-96 -241 LINE",
"-96 -241 OFFCURVE",
"-43 -275 OFFCURVE",
"58 -275 CURVE SMOOTH",
"213 -275 OFFCURVE",
"257 -157 OFFCURVE",
"257 -69 CURVE SMOOTH",
"257 512 LINE"
);
},
{
closed = 1;
nodes = (
"85 865 OFFCURVE",
"30 810 OFFCURVE",
"30 743 CURVE SMOOTH",
"30 676 OFFCURVE",
"85 621 OFFCURVE",
"152 621 CURVE SMOOTH",
"219 621 OFFCURVE",
"274 676 OFFCURVE",
"274 743 CURVE SMOOTH",
"274 810 OFFCURVE",
"219 865 OFFCURVE",
"152 865 CURVE SMOOTH"
);
}
);
width = 306;
}
);
note = j;
rightKerningGroup = space;
unicode = 006A;
},
{
glyphname = j.1;
layers = (
{
hints = (
{
horizontal = 1;
place = "{-260, 21}";
target = up;
type = BottomGhost;
},
{
horizontal = 1;
place = "{512, -20}";
target = down;
type = TopGhost;
},
{
horizontal = 1;
place = "{621, 244}";
type = Stem;
},
{
place = "{49, 208}";
type = Stem;
},
{
place = "{30, 244}";
type = Stem;
}
);
layerId = "73AED77B-4167-4914-8C61-5564342D4816";
paths = (
{
closed = 1;
nodes = (
"49 512 LINE",
"49 -260 LINE",
"257 -260 LINE",
"257 512 LINE"
);
},
{
closed = 1;
nodes = (
"85 865 OFFCURVE",
"30 810 OFFCURVE",
"30 743 CURVE SMOOTH",
"30 676 OFFCURVE",
"85 621 OFFCURVE",
"152 621 CURVE SMOOTH",
"219 621 OFFCURVE",
"274 676 OFFCURVE",
"274 743 CURVE SMOOTH",
"274 810 OFFCURVE",
"219 865 OFFCURVE",
"152 865 CURVE SMOOTH"
);
}
);
width = 306;
}
);
note = j.1;
},
{
glyphname = k;
layers = (
{
hints = (
{
horizontal = 1;
place = "{0, 21}";
target = up;
type = BottomGhost;
},
{
horizontal = 1;
place = "{860, -20}";
target = down;
type = TopGhost;
},
{
place = "{49, 208}";
type = Stem;
}
);
layerId = "73AED77B-4167-4914-8C61-5564342D4816";
paths = (
{
closed = 1;
nodes = (
"49 860 LINE",
"49 0 LINE",
"257 0 LINE",
"257 175 LINE",
"449 0 LINE",
"716 0 LINE",
"443 254 LINE",
"705 512 LINE",
"436 512 LINE",
"257 340 LINE",
"257 860 LINE"
);
}
);
width = 691;
}
);
note = k;
rightKerningGroup = space;
unicode = 006B;
},
{
glyphname = l;
layers = (
{
hints = (
{
horizontal = 1;
place = "{0, 21}";
target = up;
type = BottomGhost;
},
{
horizontal = 1;
place = "{860, -20}";
target = down;
type = TopGhost;
},
{
place = "{49, 208}";
type = Stem;
}
);
layerId = "73AED77B-4167-4914-8C61-5564342D4816";
paths = (
{
closed = 1;
nodes = (
"49 860 LINE",
"49 0 LINE",
"257 0 LINE",
"257 860 LINE"
);
}
);
width = 306;
}
);
leftKerningGroup = I;
note = l;
rightKerningGroup = space;
unicode = 006C;
},
{
glyphname = m;
layers = (
{
hints = (
{
horizontal = 1;
place = "{0, 21}";
target = up;
type = BottomGhost;
},
{
horizontal = 1;
place = "{512, -20}";
target = down;
type = TopGhost;
},
{
place = "{49, 208}";
type = Stem;
},
{
place = "{395, 208}";
type = Stem;
},
{
place = "{742, 208}";
type = Stem;
},
{
horizontal = 1;
place = "{363, 165}";
type = Stem;
}
);
layerId = "73AED77B-4167-4914-8C61-5564342D4816";
paths = (
{
closed = 1;
nodes = (
"49 512 LINE",
"49 0 LINE",
"257 0 LINE",
"257 287 LINE SMOOTH",
"257 326 OFFCURVE",
"270 363 OFFCURVE",
"322 363 CURVE SMOOTH",
"375 363 OFFCURVE",
"395 323 OFFCURVE",
"395 286 CURVE SMOOTH",
"395 0 LINE",
"603 0 LINE",
"603 294 LINE SMOOTH",
"603 331 OFFCURVE",
"620 363 OFFCURVE",
"669 363 CURVE SMOOTH",
"722 363 OFFCURVE",
"742 323 OFFCURVE",
"742 286 CURVE SMOOTH",
"742 0 LINE",
"950 0 LINE",
"950 342 LINE SMOOTH",
"950 489 OFFCURVE",
"833 528 OFFCURVE",
"749 528 CURVE SMOOTH",
"698 528 OFFCURVE",
"640 504 OFFCURVE",
"581 438 CURVE",
"542 507 OFFCURVE",
"463 528 OFFCURVE",
"402 528 CURVE SMOOTH",
"347 528 OFFCURVE",
"300 499 OFFCURVE",
"257 464 CURVE",
"257 512 LINE"
);
}
);
width = 990;
}
);
leftKerningGroup = m;
note = m;
rightKerningGroup = b;
unicode = 006D;
},
{
glyphname = n;
layers = (
{
hints = (
{
horizontal = 1;
place = "{0, 21}";
target = up;
type = BottomGhost;
},
{
horizontal = 1;
place = "{512, -20}";
target = down;
type = TopGhost;
},
{
place = "{49, 208}";
type = Stem;
},
{
place = "{425, 208}";
type = Stem;
},
{
horizontal = 1;
place = "{367, 161}";
type = Stem;
}
);
layerId = "73AED77B-4167-4914-8C61-5564342D4816";
paths = (
{
closed = 1;
nodes = (
"49 512 LINE",
"49 0 LINE",
"257 0 LINE",
"257 278 LINE SMOOTH",
"257 324 OFFCURVE",
"298 367 OFFCURVE",
"349 367 CURVE SMOOTH",
"396 367 OFFCURVE",
"425 331 OFFCURVE",
"425 286 CURVE SMOOTH",
"425 0 LINE",
"633 0 LINE",
"633 342 LINE SMOOTH",
"633 489 OFFCURVE",
"486 528 OFFCURVE",
"403 528 CURVE SMOOTH",
"347 528 OFFCURVE",
"292 499 OFFCURVE",
"257 464 CURVE",
"257 512 LINE"
);
}
);
width = 673;
}
);
leftKerningGroup = m;
note = n;
rightKerningGroup = b;
unicode = 006E;
},
{
glyphname = o;
layers = (
{
hints = (
{
horizontal = 1;
place = "{-16, 176}";
type = Stem;
},
{
horizontal = 1;
place = "{-16, 21}";
target = up;
type = BottomGhost;
},
{
horizontal = 1;
place = "{352, 176}";
type = Stem;
},
{
place = "{14, 218}";
type = Stem;
},
{
place = "{420, 218}";
type = Stem;
}
);
layerId = "73AED77B-4167-4914-8C61-5564342D4816";
paths = (
{
closed = 1;
nodes = (
"14 96 OFFCURVE",
"150 -16 OFFCURVE",
"326 -16 CURVE SMOOTH",
"502 -16 OFFCURVE",
"638 96 OFFCURVE",
"638 256 CURVE SMOOTH",
"638 416 OFFCURVE",
"502 528 OFFCURVE",
"326 528 CURVE SMOOTH",
"150 528 OFFCURVE",
"14 416 OFFCURVE",
"14 256 CURVE SMOOTH"
);
},
{
closed = 1;
nodes = (
"232 313 OFFCURVE",
"275 352 OFFCURVE",
"326 352 CURVE SMOOTH",
"377 352 OFFCURVE",
"420 313 OFFCURVE",
"420 256 CURVE SMOOTH",
"420 199 OFFCURVE",
"377 160 OFFCURVE",
"326 160 CURVE SMOOTH",
"275 160 OFFCURVE",
"232 199 OFFCURVE",
"232 256 CURVE SMOOTH"
);
}
);
width = 652;
}
);
leftKerningGroup = c;
note = o;
rightKerningGroup = c;
unicode = 006F;
},
{
glyphname = p;
layers = (
{
hints = (
{
horizontal = 1;
place = "{-260, 21}";
target = up;
type = BottomGhost;
},
{
horizontal = 1;
place = "{-16, 176}";
type = Stem;
},
{
horizontal = 1;
place = "{512, -20}";
target = down;
type = TopGhost;
},
{
place = "{47, 208}";
type = Stem;
},
{
place = "{444, 220}";
type = Stem;
},
{
horizontal = 1;
place = "{352, 176}";
type = Stem;
}
);
layerId = "73AED77B-4167-4914-8C61-5564342D4816";
paths = (
{
closed = 1;
nodes = (
"664 404 OFFCURVE",
"562 528 OFFCURVE",
"411 528 CURVE SMOOTH",
"349 528 OFFCURVE",
"297 511 OFFCURVE",
"255 479 CURVE",
"255 512 LINE",
"47 512 LINE",
"47 -260 LINE",
"255 -260 LINE",
"255 40 LINE",
"295 9 OFFCURVE",
"349 -16 OFFCURVE",
"411 -16 CURVE SMOOTH",
"562 -16 OFFCURVE",
"664 108 OFFCURVE",
"664 256 CURVE SMOOTH"
);
},
{
closed = 1;
nodes = (
"444 201 OFFCURVE",
"407 160 OFFCURVE",
"347 160 CURVE SMOOTH",
"291 160 OFFCURVE",
"251 201 OFFCURVE",
"251 256 CURVE SMOOTH",
"251 312 OFFCURVE",
"295 352 OFFCURVE",
"347 352 CURVE SMOOTH",
"401 352 OFFCURVE",
"444 312 OFFCURVE",
"444 256 CURVE SMOOTH"
);
}
);
width = 678;
}
);
leftKerningGroup = m;
note = p;
rightKerningGroup = b;
unicode = 0070;
},
{
glyphname = q;
layers = (
{
hints = (
{
horizontal = 1;
place = "{-260, 21}";
target = up;
type = BottomGhost;
},
{
horizontal = 1;
place = "{-16, 176}";
type = Stem;
},
{
horizontal = 1;
place = "{512, -20}";
target = down;
type = TopGhost;
},
{
place = "{14, 220}";
type = Stem;
},
{
place = "{423, 208}";
type = Stem;
},
{
horizontal = 1;
place = "{352, 176}";
type = Stem;
}
);
layerId = "73AED77B-4167-4914-8C61-5564342D4816";
paths = (
{
closed = 1;
nodes = (
"14 108 OFFCURVE",
"116 -16 OFFCURVE",
"267 -16 CURVE SMOOTH",
"329 -16 OFFCURVE",
"383 9 OFFCURVE",
"423 40 CURVE",
"423 -260 LINE",
"631 -260 LINE",
"631 512 LINE",
"423 512 LINE",
"423 479 LINE",
"381 511 OFFCURVE",
"329 528 OFFCURVE",
"267 528 CURVE SMOOTH",
"116 528 OFFCURVE",
"14 404 OFFCURVE",
"14 256 CURVE SMOOTH"
);
},
{
closed = 1;
nodes = (
"234 312 OFFCURVE",
"277 352 OFFCURVE",
"331 352 CURVE SMOOTH",
"383 352 OFFCURVE",
"427 312 OFFCURVE",
"427 256 CURVE SMOOTH",
"427 201 OFFCURVE",
"387 160 OFFCURVE",
"331 160 CURVE SMOOTH",
"271 160 OFFCURVE",
"234 201 OFFCURVE",
"234 256 CURVE SMOOTH"
);
}
);
width = 678;
}
);
leftKerningGroup = d;
note = q;
rightKerningGroup = space;
unicode = 0071;
},
{
glyphname = r;
layers = (
{
hints = (
{
horizontal = 1;
place = "{0, 21}";
target = up;
type = BottomGhost;
},
{
horizontal = 1;
place = "{512, -20}";
target = down;
type = TopGhost;
},
{
place = "{49, 208}";
type = Stem;
},
{
horizontal = 1;
place = "{348, 180}";
type = Stem;
}
);
layerId = "73AED77B-4167-4914-8C61-5564342D4816";
paths = (
{
closed = 1;
nodes = (
"49 512 LINE",
"49 0 LINE",
"257 0 LINE",
"257 251 LINE SMOOTH",
"257 257 OFFCURVE",
"262 348 OFFCURVE",
"354 348 CURVE SMOOTH",
"420 348 OFFCURVE",
"450 317 OFFCURVE",
"450 317 CURVE",
"537 492 LINE",
"537 492 OFFCURVE",
"490 528 OFFCURVE",
"418 528 CURVE SMOOTH",
"318 528 OFFCURVE",
"257 440 OFFCURVE",
"257 440 CURVE",
"257 512 LINE"
);
}
);
width = 525;
}
);
leftKerningGroup = m;
note = r;
rightKerningGroup = r;
unicode = 0072;
},
{
glyphname = s;
layers = (
{
hints = (
{
horizontal = 1;
place = "{-16, 152}";
type = Stem;
},
{
horizontal = 1;
place = "{384, 144}";
type = Stem;
},
{
place = "{50, 198}";
type = Stem;
},
{
place = "{256, 219}";
type = Stem;
}
);
layerId = "73AED77B-4167-4914-8C61-5564342D4816";
paths = (
{
closed = 1;
nodes = (
"147 528 OFFCURVE",
"50 468 OFFCURVE",
"50 355 CURVE SMOOTH",
"50 279 OFFCURVE",
"96 242 OFFCURVE",
"147 213 CURVE SMOOTH",
"203 181 OFFCURVE",
"256 181 OFFCURVE",
"256 153 CURVE SMOOTH",
"256 142 OFFCURVE",
"248 136 OFFCURVE",
"218 136 CURVE SMOOTH",
"164 136 OFFCURVE",
"97 183 OFFCURVE",
"97 183 CURVE",
"15 39 LINE",
"15 39 OFFCURVE",
"85 -16 OFFCURVE",
"217 -16 CURVE SMOOTH",
"326 -16 OFFCURVE",
"475 2 OFFCURVE",
"475 161 CURVE SMOOTH",
"475 267 OFFCURVE",
"387 309 OFFCURVE",
"319 330 CURVE SMOOTH",
"277 343 OFFCURVE",
"248 347 OFFCURVE",
"248 367 CURVE SMOOTH",
"248 379 OFFCURVE",
"256 384 OFFCURVE",
"290 384 CURVE SMOOTH",
"344 384 OFFCURVE",
"405 360 OFFCURVE",
"405 360 CURVE",
"470 497 LINE",
"470 497 OFFCURVE",
"396 528 OFFCURVE",
"290 528 CURVE SMOOTH"
);
}
);
width = 496;
}
);
leftKerningGroup = s;
note = s;
rightKerningGroup = s;
unicode = 0073;
},
{
glyphname = t;
layers = (
{
hints = (
{
horizontal = 1;
place = "{-16, 186}";
type = Stem;
},
{
horizontal = 1;
place = "{354, 158}";
type = Stem;
},
{
horizontal = 1;
place = "{704, -20}";
target = down;
type = TopGhost;
},
{
place = "{85, 208}";
type = Stem;
}
);
layerId = "73AED77B-4167-4914-8C61-5564342D4816";
paths = (
{
closed = 1;
nodes = (
"5 512 LINE",
"5 354 LINE",
"85 354 LINE",
"85 194 LINE SMOOTH",
"85 97 OFFCURVE",
"123 -16 OFFCURVE",
"276 -16 CURVE SMOOTH",
"355 -16 OFFCURVE",
"419 19 OFFCURVE",
"419 19 CURVE",
"367 186 LINE",
"367 186 OFFCURVE",
"347 170 OFFCURVE",
"327 170 CURVE SMOOTH",
"304 170 OFFCURVE",
"293 190 OFFCURVE",
"293 235 CURVE SMOOTH",
"293 354 LINE",
"395 354 LINE",
"395 512 LINE",
"293 512 LINE",
"293 704 LINE",
"85 704 LINE",
"85 512 LINE"
);
}
);
width = 415;
}
);
leftKerningGroup = t;
note = t;
rightKerningGroup = t;
unicode = 0074;
},
{
glyphname = t.1;
layers = (
{
hints = (
{
horizontal = 1;
place = "{354, 158}";
type = Stem;
},
{
place = "{49, 208}";
type = Stem;
}
);
layerId = "73AED77B-4167-4914-8C61-5564342D4816";
paths = (
{
closed = 1;
nodes = (
"49 704 LINE",
"49 512 LINE",
"-27 512 LINE",
"-27 354 LINE",
"49 354 LINE",
"49 0 LINE",
"257 0 LINE",
"257 354 LINE",
"363 354 LINE",
"363 512 LINE",
"257 512 LINE",
"257 704 LINE"
);
}
);
width = 297;
}
);
note = t.1;
},
{
glyphname = u;
layers = (
{
hints = (
{
horizontal = 1;
place = "{-16, 168}";
type = Stem;
},
{
horizontal = 1;
place = "{512, -20}";
target = down;
type = TopGhost;
},
{
place = "{40, 208}";
type = Stem;
},
{
place = "{424, 208}";
type = Stem;
}
);
layerId = "73AED77B-4167-4914-8C61-5564342D4816";
paths = (
{
closed = 1;
nodes = (
"424 512 LINE",
"424 279 LINE SMOOTH",
"424 191 OFFCURVE",
"405 152 OFFCURVE",
"336 152 CURVE SMOOTH",
"267 152 OFFCURVE",
"248 191 OFFCURVE",
"248 279 CURVE SMOOTH",
"248 512 LINE",
"40 512 LINE",
"40 227 LINE SMOOTH",
"40 54 OFFCURVE",
"130 -16 OFFCURVE",
"336 -16 CURVE SMOOTH",
"542 -16 OFFCURVE",
"632 54 OFFCURVE",
"632 227 CURVE SMOOTH",
"632 512 LINE"
);
}
);
width = 672;
}
);
leftKerningGroup = u;
note = u;
rightKerningGroup = u;
unicode = 0075;
},
{
glyphname = u.1;
layers = (
{
hints = (
{
horizontal = 1;
place = "{0, -20}";
target = down;
type = TopGhost;
},
{
horizontal = 1;
place = "{512, 21}";
target = up;
type = BottomGhost;
},
{
place = "{39, 208}";
type = Stem;
},
{
place = "{415, 208}";
type = Stem;
},
{
horizontal = 1;
place = "{-16, 161}";
type = Stem;
}
);
layerId = "73AED77B-4167-4914-8C61-5564342D4816";
paths = (
{
closed = 1;
nodes = (
"623 0 LINE",
"623 512 LINE",
"415 512 LINE",
"415 234 LINE SMOOTH",
"415 188 OFFCURVE",
"374 145 OFFCURVE",
"323 145 CURVE SMOOTH",
"276 145 OFFCURVE",
"247 181 OFFCURVE",
"247 226 CURVE SMOOTH",
"247 512 LINE",
"39 512 LINE",
"39 170 LINE SMOOTH",
"39 23 OFFCURVE",
"186 -16 OFFCURVE",
"269 -16 CURVE SMOOTH",
"325 -16 OFFCURVE",
"380 13 OFFCURVE",
"415 48 CURVE",
"415 0 LINE"
);
}
);
width = 673;
}
);
note = u.1;
},
{
glyphname = v;
layers = (
{
hints = (
{
horizontal = 1;
place = "{0, 21}";
target = up;
type = BottomGhost;
},
{
horizontal = 1;
place = "{512, -20}";
target = down;
type = TopGhost;
},
{
place = "{-25, 706}";
type = Stem;
}
);
layerId = "73AED77B-4167-4914-8C61-5564342D4816";
paths = (
{
closed = 1;
nodes = (
"-25 512 LINE",
"258 0 LINE",
"398 0 LINE",
"681 512 LINE",
"435 512 LINE",
"328 270 LINE",
"221 512 LINE"
);
}
);
width = 656;
}
);
leftKerningGroup = v;
note = v;
rightKerningGroup = v;
unicode = 0076;
},
{
glyphname = w;
layers = (
{
hints = (
{
horizontal = 1;
place = "{0, 21}";
target = up;
type = BottomGhost;
},
{
horizontal = 1;
place = "{512, -20}";
target = down;
type = TopGhost;
},
{
place = "{-25, 1058}";
type = Stem;
}
);
layerId = "73AED77B-4167-4914-8C61-5564342D4816";
paths = (
{
closed = 1;
nodes = (
"-25 512 LINE",
"258 0 LINE",
"398 0 LINE",
"504 226 LINE",
"610 0 LINE",
"750 0 LINE",
"1033 512 LINE",
"795 512 LINE",
"687 272 LINE",
"575 512 LINE",
"433 512 LINE",
"321 272 LINE",
"213 512 LINE"
);
}
);
width = 1008;
}
);
leftKerningGroup = v;
note = w;
rightKerningGroup = v;
unicode = 0077;
},
{
glyphname = x;
layers = (
{
hints = (
{
horizontal = 1;
place = "{0, 21}";
target = up;
type = BottomGhost;
},
{
horizontal = 1;
place = "{512, -20}";
target = down;
type = TopGhost;
},
{
place = "{-15, 690}";
type = Stem;
}
);
layerId = "73AED77B-4167-4914-8C61-5564342D4816";
paths = (
{
closed = 1;
nodes = (
"17 512 LINE",
"205 270 LINE",
"-15 0 LINE",
"235 0 LINE",
"330 124 LINE",
"425 0 LINE",
"675 0 LINE",
"455 270 LINE",
"643 512 LINE",
"401 512 LINE",
"330 415 LINE",
"259 512 LINE"
);
}
);
width = 660;
}
);
note = x;
rightKerningGroup = space;
unicode = 0078;
},
{
glyphname = y;
layers = (
{
hints = (
{
horizontal = 1;
place = "{-260, 21}";
target = up;
type = BottomGhost;
},
{
horizontal = 1;
place = "{512, -20}";
target = down;
type = TopGhost;
},
{
place = "{-24, 708}";
type = Stem;
}
);
layerId = "73AED77B-4167-4914-8C61-5564342D4816";
paths = (
{
closed = 1;
nodes = (
"-24 512 LINE",
"219 99 LINE",
"27 -260 LINE",
"266 -260 LINE",
"684 512 LINE",
"445 512 LINE",
"341 296 LINE",
"215 512 LINE"
);
}
);
width = 660;
}
);
leftKerningGroup = v;
note = y;
rightKerningGroup = v;
unicode = 0079;
},
{
glyphname = z;
layers = (
{
hints = (
{
horizontal = 1;
place = "{0, 156}";
type = Stem;
},
{
horizontal = 1;
place = "{356, 156}";
type = Stem;
},
{
place = "{-1, 562}";
type = Stem;
}
);
layerId = "73AED77B-4167-4914-8C61-5564342D4816";
paths = (
{
closed = 1;
nodes = (
"42 512 LINE",
"42 356 LINE",
"217 356 LINE",
"-1 0 LINE",
"539 0 LINE",
"539 156 LINE",
"343 156 LINE",
"561 512 LINE"
);
}
);
width = 560;
}
);
note = z;
rightKerningGroup = space;
unicode = 007A;
},
{
glyphname = braceleft;
layers = (
{
hints = (
{
place = "{133, 178}";
type = Stem;
}
);
layerId = "73AED77B-4167-4914-8C61-5564342D4816";
paths = (
{
closed = 1;
nodes = (
"55 246 LINE",
"102 246 OFFCURVE",
"133 226 OFFCURVE",
"133 177 CURVE SMOOTH",
"133 -79 LINE SMOOTH",
"133 -162 OFFCURVE",
"164 -260 OFFCURVE",
"292 -260 CURVE SMOOTH",
"405 -260 LINE",
"405 -112 LINE",
"360 -112 LINE SMOOTH",
"336 -112 OFFCURVE",
"311 -89 OFFCURVE",
"311 -61 CURVE SMOOTH",
"311 179 LINE SMOOTH",
"311 242 OFFCURVE",
"279 280 OFFCURVE",
"240 300 CURVE",
"279 320 OFFCURVE",
"311 356 OFFCURVE",
"311 421 CURVE SMOOTH",
"311 661 LINE SMOOTH",
"311 689 OFFCURVE",
"336 712 OFFCURVE",
"360 712 CURVE SMOOTH",
"405 712 LINE",
"405 860 LINE",
"292 860 LINE SMOOTH",
"164 860 OFFCURVE",
"133 762 OFFCURVE",
"133 679 CURVE SMOOTH",
"133 423 LINE SMOOTH",
"133 374 OFFCURVE",
"102 354 OFFCURVE",
"55 354 CURVE"
);
}
);
width = 483;
}
);
note = braceleft;
rightKerningGroup = space;
unicode = 007B;
},
{
glyphname = bar;
layers = (
{
hints = (
{
horizontal = 1;
place = "{0, 21}";
target = up;
type = BottomGhost;
},
{
horizontal = 1;
place = "{860, -20}";
target = down;
type = TopGhost;
},
{
place = "{49, 178}";
type = Stem;
}
);
layerId = "73AED77B-4167-4914-8C61-5564342D4816";
paths = (
{
closed = 1;
nodes = (
"49 860 LINE",
"49 0 LINE",
"227 0 LINE",
"227 860 LINE"
);
}
);
width = 276;
}
);
leftKerningGroup = I;
note = bar;
rightKerningGroup = space;
unicode = 007C;
},
{
glyphname = braceright;
layers = (
{
hints = (
{
place = "{172, 178}";
type = Stem;
}
);
layerId = "73AED77B-4167-4914-8C61-5564342D4816";
paths = (
{
closed = 1;
nodes = (
"78 860 LINE",
"78 712 LINE",
"123 712 LINE SMOOTH",
"147 712 OFFCURVE",
"172 689 OFFCURVE",
"172 661 CURVE SMOOTH",
"172 421 LINE SMOOTH",
"172 356 OFFCURVE",
"204 320 OFFCURVE",
"243 300 CURVE",
"204 280 OFFCURVE",
"172 242 OFFCURVE",
"172 179 CURVE SMOOTH",
"172 -61 LINE SMOOTH",
"172 -89 OFFCURVE",
"147 -112 OFFCURVE",
"123 -112 CURVE SMOOTH",
"78 -112 LINE",
"78 -260 LINE",
"191 -260 LINE SMOOTH",
"319 -260 OFFCURVE",
"350 -162 OFFCURVE",
"350 -79 CURVE SMOOTH",
"350 177 LINE SMOOTH",
"350 226 OFFCURVE",
"381 246 OFFCURVE",
"428 246 CURVE",
"428 354 LINE",
"381 354 OFFCURVE",
"350 374 OFFCURVE",
"350 423 CURVE SMOOTH",
"350 679 LINE SMOOTH",
"350 762 OFFCURVE",
"319 860 OFFCURVE",
"191 860 CURVE SMOOTH"
);
}
);
width = 483;
}
);
note = braceright;
rightKerningGroup = space;
unicode = 007D;
},
{
glyphname = asciitilde;
layers = (
{
hints = (
{
horizontal = 1;
place = "{288, 164}";
type = Stem;
},
{
place = "{57, 596}";
type = Stem;
},
{
horizontal = 1;
place = "{375, 164}";
type = Stem;
}
);
layerId = "73AED77B-4167-4914-8C61-5564342D4816";
paths = (
{
closed = 1;
nodes = (
"545 529 LINE",
"545 529 OFFCURVE",
"522 452 OFFCURVE",
"468 452 CURVE SMOOTH",
"443 452 OFFCURVE",
"420 471 OFFCURVE",
"399 483 CURVE SMOOTH",
"355 509 OFFCURVE",
"314 539 OFFCURVE",
"242 539 CURVE SMOOTH",
"127 539 OFFCURVE",
"61 401 OFFCURVE",
"57 392 CURVE",
"164 297 LINE",
"164 297 OFFCURVE",
"187 375 OFFCURVE",
"242 375 CURVE SMOOTH",
"267 375 OFFCURVE",
"290 356 OFFCURVE",
"311 344 CURVE SMOOTH",
"355 318 OFFCURVE",
"396 288 OFFCURVE",
"468 288 CURVE SMOOTH",
"582 288 OFFCURVE",
"649 426 OFFCURVE",
"653 435 CURVE"
);
}
);
width = 707;
}
);
note = asciitilde;
rightKerningGroup = space;
unicode = 007E;
},
{
glyphname = exclamdown;
layers = (
{
hints = (
{
horizontal = 1;
place = "{-261, 21}";
target = up;
type = BottomGhost;
},
{
horizontal = 1;
place = "{349, 266}";
type = Stem;
},
{
place = "{79, 208}";
type = Stem;
},
{
place = "{49, 266}";
type = Stem;
}
);
layerId = "73AED77B-4167-4914-8C61-5564342D4816";
paths = (
{
closed = 1;
nodes = (
"287 -261 LINE",
"258 309 LINE",
"108 309 LINE",
"79 -261 LINE"
);
},
{
closed = 1;
nodes = (
"256 349 OFFCURVE",
"315 408 OFFCURVE",
"315 482 CURVE SMOOTH",
"315 556 OFFCURVE",
"256 615 OFFCURVE",
"182 615 CURVE SMOOTH",
"108 615 OFFCURVE",
"49 556 OFFCURVE",
"49 482 CURVE SMOOTH",
"49 408 OFFCURVE",
"108 349 OFFCURVE",
"182 349 CURVE SMOOTH"
);
}
);
width = 364;
}
);
note = exclamdown;
rightKerningGroup = space;
unicode = 00A1;
},
{
glyphname = cent;
layers = (
{
hints = (
{
horizontal = 1;
place = "{-129, 21}";
target = up;
type = BottomGhost;
},
{
horizontal = 1;
place = "{-12, 165}";
type = Stem;
},
{
horizontal = 1;
place = "{359, 168}";
type = Stem;
},
{
horizontal = 1;
place = "{636, -20}";
target = down;
type = TopGhost;
},
{
place = "{232, 125}";
type = Stem;
},
{
place = "{14, 220}";
type = Stem;
},
{
place = "{200, 125}";
type = Stem;
}
);
layerId = "73AED77B-4167-4914-8C61-5564342D4816";
paths = (
{
closed = 1;
nodes = (
"232 -129 LINE",
"357 -129 LINE",
"357 -12 LINE",
"431 0 OFFCURVE",
"471 30 OFFCURVE",
"471 30 CURVE",
"403 170 LINE",
"384 158 OFFCURVE",
"366 153 OFFCURVE",
"331 153 CURVE SMOOTH",
"279 153 OFFCURVE",
"234 201 OFFCURVE",
"234 256 CURVE SMOOTH",
"234 311 OFFCURVE",
"279 359 OFFCURVE",
"331 359 CURVE SMOOTH",
"366 359 OFFCURVE",
"384 354 OFFCURVE",
"403 342 CURVE",
"471 482 LINE",
"471 482 OFFCURVE",
"421 521 OFFCURVE",
"325 527 CURVE",
"325 636 LINE",
"200 636 LINE",
"200 509 LINE",
"95 469 OFFCURVE",
"14 370 OFFCURVE",
"14 256 CURVE SMOOTH",
"14 130 OFFCURVE",
"112 23 OFFCURVE",
"232 -7 CURVE"
);
}
);
width = 470;
}
);
leftKerningGroup = c;
note = cent;
rightKerningGroup = c;
unicode = 00A2;
},
{
glyphname = sterling;
layers = (
{
hints = (
{
horizontal = 1;
place = "{36, 157}";
type = Stem;
},
{
horizontal = 1;
place = "{282, 113}";
type = Stem;
},
{
horizontal = 1;
place = "{663, 178}";
type = Stem;
},
{
place = "{44, 134}";
type = Stem;
},
{
horizontal = 1;
place = "{-15, 168}";
type = Stem;
},
{
place = "{97, 218}";
type = Stem;
}
);
layerId = "73AED77B-4167-4914-8C61-5564342D4816";
paths = (
{
closed = 1;
nodes = (
"51 395 LINE",
"51 282 LINE",
"197 282 LINE",
"197 282 OFFCURVE",
"206 263 OFFCURVE",
"206 238 CURVE SMOOTH",
"206 207 OFFCURVE",
"192 193 OFFCURVE",
"192 193 CURVE",
"99 195 OFFCURVE",
"42 55 OFFCURVE",
"44 0 CURVE",
"178 0 LINE",
"178 22 OFFCURVE",
"189 36 OFFCURVE",
"207 36 CURVE SMOOTH",
"301 36 OFFCURVE",
"402 -15 OFFCURVE",
"524 -15 CURVE SMOOTH",
"691 -15 OFFCURVE",
"710 132 OFFCURVE",
"710 132 CURVE",
"550 211 LINE",
"550 211 OFFCURVE",
"547 153 OFFCURVE",
"499 153 CURVE SMOOTH",
"433 153 OFFCURVE",
"366 174 OFFCURVE",
"366 174 CURVE",
"391 201 OFFCURVE",
"397 245 OFFCURVE",
"397 282 CURVE",
"508 282 LINE",
"508 395 LINE",
"356 395 LINE",
"337 443 OFFCURVE",
"315 480 OFFCURVE",
"315 554 CURVE SMOOTH",
"315 619 OFFCURVE",
"336 663 OFFCURVE",
"382 663 CURVE SMOOTH",
"461 663 OFFCURVE",
"471 565 OFFCURVE",
"471 565 CURVE",
"656 656 LINE",
"656 656 OFFCURVE",
"616 841 OFFCURVE",
"382 841 CURVE SMOOTH",
"190 841 OFFCURVE",
"97 712 OFFCURVE",
"97 554 CURVE SMOOTH",
"97 486 OFFCURVE",
"118 435 OFFCURVE",
"143 395 CURVE"
);
}
);
width = 747;
}
);
note = sterling;
rightKerningGroup = space;
unicode = 00A3;
},
{
glyphname = yen;
layers = (
{
hints = (
{
horizontal = 1;
place = "{96, 155}";
type = Stem;
},
{
horizontal = 1;
place = "{294, 155}";
type = Stem;
},
{
horizontal = 1;
place = "{825, -20}";
target = down;
type = TopGhost;
},
{
place = "{72, 653}";
type = Stem;
},
{
place = "{289, 220}";
type = Stem;
}
);
layerId = "73AED77B-4167-4914-8C61-5564342D4816";
paths = (
{
closed = 1;
nodes = (
"-21 825 LINE",
"237 449 LINE",
"72 449 LINE",
"72 294 LINE",
"289 294 LINE",
"289 251 LINE",
"72 251 LINE",
"72 96 LINE",
"289 96 LINE",
"289 0 LINE",
"509 0 LINE",
"509 96 LINE",
"725 96 LINE",
"725 251 LINE",
"509 251 LINE",
"509 294 LINE",
"725 294 LINE",
"725 449 LINE",
"560 449 LINE",
"819 825 LINE",
"554 825 LINE",
"399 596 LINE",
"244 825 LINE"
);
}
);
width = 798;
}
);
note = yen;
rightKerningGroup = space;
unicode = 00A5;
},
{
glyphname = brokenbar;
layers = (
{
hints = (
{
horizontal = 1;
place = "{0, 332}";
type = Stem;
},
{
horizontal = 1;
place = "{528, 332}";
type = Stem;
},
{
place = "{49, 178}";
type = Stem;
}
);
layerId = "73AED77B-4167-4914-8C61-5564342D4816";
paths = (
{
closed = 1;
nodes = (
"49 860 LINE",
"49 528 LINE",
"227 528 LINE",
"227 860 LINE"
);
},
{
closed = 1;
nodes = (
"49 332 LINE",
"49 0 LINE",
"227 0 LINE",
"227 332 LINE"
);
}
);
width = 276;
}
);
note = brokenbar;
rightKerningGroup = space;
unicode = 00A6;
},
{
glyphname = section;
layers = (
{
hints = (
{
horizontal = 1;
place = "{-275, 172}";
type = Stem;
},
{
horizontal = 1;
place = "{668, 172}";
type = Stem;
},
{
place = "{58, 229}";
type = Stem;
},
{
place = "{335, 231}";
type = Stem;
}
);
layerId = "73AED77B-4167-4914-8C61-5564342D4816";
paths = (
{
closed = 1;
nodes = (
"4 141 OFFCURVE",
"84 71 OFFCURVE",
"200 11 CURVE SMOOTH",
"274 -27 OFFCURVE",
"335 -48 OFFCURVE",
"335 -76 CURVE SMOOTH",
"335 -85 OFFCURVE",
"329 -103 OFFCURVE",
"280 -103 CURVE SMOOTH",
"217 -103 OFFCURVE",
"202 -43 OFFCURVE",
"202 -43 CURVE",
"14 -82 LINE",
"14 -82 OFFCURVE",
"40 -275 OFFCURVE",
"280 -275 CURVE SMOOTH",
"515 -275 OFFCURVE",
"566 -145 OFFCURVE",
"566 -68 CURVE SMOOTH",
"566 14 OFFCURVE",
"536 63 OFFCURVE",
"478 107 CURVE",
"569 148 OFFCURVE",
"616 219 OFFCURVE",
"621 297 CURVE",
"621 414 OFFCURVE",
"535 495 OFFCURVE",
"432 542 CURVE SMOOTH",
"348 580 OFFCURVE",
"287 615 OFFCURVE",
"287 639 CURVE SMOOTH",
"287 658 OFFCURVE",
"300 668 OFFCURVE",
"326 668 CURVE SMOOTH",
"373 668 OFFCURVE",
"388 637 OFFCURVE",
"388 611 CURVE",
"576 649 LINE",
"576 649 OFFCURVE",
"555 840 OFFCURVE",
"326 840 CURVE SMOOTH",
"133 840 OFFCURVE",
"58 736 OFFCURVE",
"58 631 CURVE SMOOTH",
"58 546 OFFCURVE",
"88 496 OFFCURVE",
"147 453 CURVE",
"56 411 OFFCURVE",
"9 339 OFFCURVE",
"4 263 CURVE"
);
},
{
closed = 1;
nodes = (
"196 344 OFFCURVE",
"243 362 OFFCURVE",
"285 374 CURVE",
"297 369 OFFCURVE",
"309 363 OFFCURVE",
"316 359 CURVE SMOOTH",
"359 334 OFFCURVE",
"428 300 OFFCURVE",
"428 261 CURVE SMOOTH",
"428 218 OFFCURVE",
"382 195 OFFCURVE",
"339 185 CURVE",
"317 194 OFFCURVE",
"290 207 OFFCURVE",
"267 220 CURVE",
"233 243 OFFCURVE",
"196 268 OFFCURVE",
"196 298 CURVE SMOOTH"
);
}
);
width = 640;
}
);
note = section;
rightKerningGroup = space;
unicode = 00A7;
},
{
glyphname = dieresis;
layers = (
{
hints = (
{
horizontal = 1;
place = "{593, 212}";
type = Stem;
},
{
place = "{69, 212}";
type = Stem;
},
{
place = "{305, 212}";
type = Stem;
}
);
layerId = "73AED77B-4167-4914-8C61-5564342D4816";
paths = (
{
closed = 1;
nodes = (
"116 805 OFFCURVE",
"69 758 OFFCURVE",
"69 699 CURVE SMOOTH",
"69 640 OFFCURVE",
"116 593 OFFCURVE",
"175 593 CURVE SMOOTH",
"234 593 OFFCURVE",
"281 640 OFFCURVE",
"281 699 CURVE SMOOTH",
"281 758 OFFCURVE",
"234 805 OFFCURVE",
"175 805 CURVE SMOOTH"
);
},
{
closed = 1;
nodes = (
"352 805 OFFCURVE",
"305 758 OFFCURVE",
"305 699 CURVE SMOOTH",
"305 640 OFFCURVE",
"352 593 OFFCURVE",
"411 593 CURVE SMOOTH",
"470 593 OFFCURVE",
"517 640 OFFCURVE",
"517 699 CURVE SMOOTH",
"517 758 OFFCURVE",
"470 805 OFFCURVE",
"411 805 CURVE SMOOTH"
);
}
);
width = 586;
}
);
note = dieresis;
rightKerningGroup = space;
unicode = 00A8;
},
{
glyphname = copyright;
layers = (
{
hints = (
{
horizontal = 1;
place = "{-15, 132}";
type = Stem;
},
{
horizontal = 1;
place = "{220, 123}";
type = Stem;
},
{
horizontal = 1;
place = "{488, 124}";
type = Stem;
},
{
horizontal = 1;
place = "{709, 131}";
type = Stem;
},
{
place = "{13, 131}";
type = Stem;
},
{
place = "{258, 164}";
type = Stem;
},
{
place = "{742, 130}";
type = Stem;
}
);
layerId = "73AED77B-4167-4914-8C61-5564342D4816";
paths = (
{
closed = 1;
nodes = (
"13 178 OFFCURVE",
"209 -15 OFFCURVE",
"442 -15 CURVE SMOOTH",
"678 -15 OFFCURVE",
"872 178 OFFCURVE",
"872 412 CURVE SMOOTH",
"872 647 OFFCURVE",
"679 840 OFFCURVE",
"442 840 CURVE SMOOTH",
"205 840 OFFCURVE",
"13 647 OFFCURVE",
"13 412 CURVE SMOOTH"
);
},
{
closed = 1;
nodes = (
"144 574 OFFCURVE",
"278 709 OFFCURVE",
"442 709 CURVE SMOOTH",
"607 709 OFFCURVE",
"742 574 OFFCURVE",
"742 412 CURVE SMOOTH",
"742 251 OFFCURVE",
"606 117 OFFCURVE",
"442 117 CURVE SMOOTH",
"281 117 OFFCURVE",
"144 251 OFFCURVE",
"144 412 CURVE SMOOTH"
);
},
{
closed = 1;
nodes = (
"258 307 OFFCURVE",
"360 220 OFFCURVE",
"465 220 CURVE SMOOTH",
"544 220 OFFCURVE",
"596 255 OFFCURVE",
"587 247 CURVE",
"570 284 OFFCURVE",
"554 314 OFFCURVE",
"538 351 CURVE",
"540 355 OFFCURVE",
"524 343 OFFCURVE",
"490 343 CURVE SMOOTH",
"454 343 OFFCURVE",
"422 375 OFFCURVE",
"422 416 CURVE SMOOTH",
"422 454 OFFCURVE",
"454 488 OFFCURVE",
"490 488 CURVE SMOOTH",
"518 488 OFFCURVE",
"548 472 OFFCURVE",
"539 479 CURVE",
"587 582 LINE",
"593 578 OFFCURVE",
"553 612 OFFCURVE",
"465 612 CURVE SMOOTH",
"360 612 OFFCURVE",
"258 522 OFFCURVE",
"258 413 CURVE SMOOTH"
);
}
);
width = 885;
}
);
note = copyright;
rightKerningGroup = space;
unicode = 00A9;
},
{
glyphname = ordfeminine;
layers = (
{
hints = (
{
horizontal = 1;
place = "{504, 109}";
type = Stem;
},
{
horizontal = 1;
place = "{830, -20}";
target = down;
type = TopGhost;
},
{
place = "{76, 135}";
type = Stem;
},
{
place = "{328, 129}";
type = Stem;
},
{
horizontal = 1;
place = "{514, 21}";
target = up;
type = BottomGhost;
},
{
horizontal = 1;
place = "{731, 109}";
type = Stem;
}
);
layerId = "73AED77B-4167-4914-8C61-5564342D4816";
paths = (
{
closed = 1;
nodes = (
"76 581 OFFCURVE",
"139 504 OFFCURVE",
"232 504 CURVE SMOOTH",
"270 504 OFFCURVE",
"304 520 OFFCURVE",
"328 539 CURVE",
"328 514 LINE",
"457 514 LINE",
"457 830 LINE",
"328 830 LINE",
"328 810 LINE",
"302 830 OFFCURVE",
"270 840 OFFCURVE",
"232 840 CURVE SMOOTH",
"139 840 OFFCURVE",
"76 764 OFFCURVE",
"76 672 CURVE SMOOTH"
);
},
{
closed = 1;
nodes = (
"211 707 OFFCURVE",
"238 731 OFFCURVE",
"271 731 CURVE SMOOTH",
"304 731 OFFCURVE",
"331 707 OFFCURVE",
"331 672 CURVE SMOOTH",
"331 638 OFFCURVE",
"306 613 OFFCURVE",
"271 613 CURVE SMOOTH",
"234 613 OFFCURVE",
"211 638 OFFCURVE",
"211 672 CURVE SMOOTH"
);
}
);
width = 526;
}
);
note = ordfeminine;
rightKerningGroup = space;
unicode = 00AA;
},
{
glyphname = guillemotleft;
layers = (
{
hints = (
{
horizontal = 1;
place = "{28, 21}";
target = up;
type = BottomGhost;
},
{
horizontal = 1;
place = "{528, -20}";
target = down;
type = TopGhost;
},
{
place = "{38, 552}";
type = Stem;
}
);
layerId = "73AED77B-4167-4914-8C61-5564342D4816";
paths = (
{
closed = 1;
nodes = (
"233 528 LINE",
"38 278 LINE",
"233 28 LINE",
"340 112 LINE",
"210 278 LINE",
"340 444 LINE"
);
},
{
closed = 1;
nodes = (
"483 528 LINE",
"288 278 LINE",
"483 28 LINE",
"590 112 LINE",
"460 278 LINE",
"590 444 LINE"
);
}
);
width = 650;
}
);
note = guillemotleft;
rightKerningGroup = space;
unicode = 00AB;
},
{
glyphname = registered;
layers = (
{
hints = (
{
horizontal = 1;
place = "{392, 69}";
type = Stem;
},
{
horizontal = 1;
place = "{522, 21}";
target = up;
type = BottomGhost;
},
{
horizontal = 1;
place = "{587, 45}";
type = Stem;
},
{
horizontal = 1;
place = "{668, 44}";
type = Stem;
},
{
horizontal = 1;
place = "{771, 69}";
type = Stem;
},
{
place = "{20, 70}";
type = Stem;
},
{
place = "{175, 56}";
type = Stem;
},
{
place = "{266, 59}";
type = Stem;
},
{
place = "{399, 69}";
type = Stem;
}
);
layerId = "73AED77B-4167-4914-8C61-5564342D4816";
paths = (
{
closed = 1;
nodes = (
"20 492 OFFCURVE",
"121 392 OFFCURVE",
"243 392 CURVE SMOOTH",
"368 392 OFFCURVE",
"468 492 OFFCURVE",
"468 615 CURVE SMOOTH",
"468 739 OFFCURVE",
"368 840 OFFCURVE",
"243 840 CURVE SMOOTH",
"121 840 OFFCURVE",
"20 739 OFFCURVE",
"20 615 CURVE SMOOTH"
);
},
{
closed = 1;
nodes = (
"90 701 OFFCURVE",
"160 771 OFFCURVE",
"243 771 CURVE SMOOTH",
"331 771 OFFCURVE",
"399 701 OFFCURVE",
"399 615 CURVE SMOOTH",
"399 530 OFFCURVE",
"331 461 OFFCURVE",
"243 461 CURVE SMOOTH",
"160 461 OFFCURVE",
"90 530 OFFCURVE",
"90 615 CURVE SMOOTH"
);
},
{
closed = 1;
nodes = (
"175 712 LINE",
"175 522 LINE",
"231 522 LINE",
"231 587 LINE",
"281 522 LINE",
"351 522 LINE",
"291 593 LINE",
"310 603 OFFCURVE",
"325 622 OFFCURVE",
"325 651 CURVE SMOOTH",
"325 694 OFFCURVE",
"295 712 OFFCURVE",
"258 712 CURVE SMOOTH"
);
},
{
closed = 1;
nodes = (
"231 668 LINE",
"240 668 LINE SMOOTH",
"252 668 OFFCURVE",
"266 666 OFFCURVE",
"266 650 CURVE SMOOTH",
"266 632 OFFCURVE",
"252 632 OFFCURVE",
"240 632 CURVE SMOOTH",
"231 632 LINE"
);
}
);
width = 489;
}
);
note = registered;
rightKerningGroup = space;
unicode = 00AE;
},
{
glyphname = macron;
layers = (
{
hints = (
{
horizontal = 1;
place = "{624, 140}";
type = Stem;
},
{
place = "{70, 408}";
type = Stem;
}
);
layerId = "73AED77B-4167-4914-8C61-5564342D4816";
paths = (
{
closed = 1;
nodes = (
"70 764 LINE",
"70 624 LINE",
"478 624 LINE",
"478 764 LINE"
);
}
);
width = 548;
}
);
note = macron;
rightKerningGroup = space;
unicode = 00AF;
},
{
glyphname = degree;
layers = (
{
hints = (
{
horizontal = 1;
place = "{669, 65}";
type = Stem;
},
{
horizontal = 1;
place = "{810, 65}";
type = Stem;
},
{
place = "{78, 83}";
type = Stem;
},
{
place = "{233, 83}";
type = Stem;
}
);
layerId = "73AED77B-4167-4914-8C61-5564342D4816";
paths = (
{
closed = 1;
nodes = (
"78 711 OFFCURVE",
"130 669 OFFCURVE",
"197 669 CURVE SMOOTH",
"264 669 OFFCURVE",
"316 711 OFFCURVE",
"316 772 CURVE SMOOTH",
"316 833 OFFCURVE",
"264 875 OFFCURVE",
"197 875 CURVE SMOOTH",
"130 875 OFFCURVE",
"78 833 OFFCURVE",
"78 772 CURVE SMOOTH"
);
},
{
closed = 1;
nodes = (
"161 794 OFFCURVE",
"177 810 OFFCURVE",
"197 810 CURVE SMOOTH",
"217 810 OFFCURVE",
"233 794 OFFCURVE",
"233 772 CURVE SMOOTH",
"233 750 OFFCURVE",
"217 734 OFFCURVE",
"197 734 CURVE SMOOTH",
"177 734 OFFCURVE",
"161 750 OFFCURVE",
"161 772 CURVE SMOOTH"
);
}
);
width = 393;
}
);
note = degree;
rightKerningGroup = space;
unicode = 00B0;
},
{
glyphname = onesuperior;
layers = (
{
hints = (
{
horizontal = 1;
place = "{513, 21}";
target = up;
type = BottomGhost;
},
{
horizontal = 1;
place = "{743, 82}";
type = Stem;
},
{
place = "{61, 83}";
type = Stem;
}
);
layerId = "73AED77B-4167-4914-8C61-5564342D4816";
paths = (
{
closed = 1;
nodes = (
"3 825 LINE",
"3 743 LINE",
"61 743 LINE",
"61 513 LINE",
"144 513 LINE",
"144 825 LINE"
);
}
);
width = 146;
}
);
note = onesuperior;
rightKerningGroup = space;
unicode = 00B9;
},
{
glyphname = twosuperior;
layers = (
{
hints = (
{
horizontal = 1;
place = "{513, 75}";
type = Stem;
},
{
horizontal = 1;
place = "{769, 72}";
type = Stem;
},
{
place = "{192, 92}";
type = Stem;
}
);
layerId = "73AED77B-4167-4914-8C61-5564342D4816";
paths = (
{
closed = 1;
nodes = (
"104 713 LINE",
"104 713 OFFCURVE",
"125 769 OFFCURVE",
"155 769 CURVE SMOOTH",
"179 769 OFFCURVE",
"192 758 OFFCURVE",
"192 729 CURVE SMOOTH",
"192 670 OFFCURVE",
"33 558 OFFCURVE",
"33 558 CURVE",
"33 513 LINE",
"290 513 LINE",
"290 588 LINE",
"185 588 LINE",
"185 588 OFFCURVE",
"284 648 OFFCURVE",
"284 726 CURVE SMOOTH",
"284 763 OFFCURVE",
"276 841 OFFCURVE",
"155 841 CURVE SMOOTH",
"62 841 OFFCURVE",
"33 749 OFFCURVE",
"33 749 CURVE"
);
}
);
width = 265;
}
);
note = twosuperior;
rightKerningGroup = space;
unicode = 00B2;
},
{
glyphname = threesuperior;
layers = (
{
hints = (
{
horizontal = 1;
place = "{513, 72}";
type = Stem;
},
{
horizontal = 1;
place = "{660, 52}";
type = Stem;
},
{
horizontal = 1;
place = "{773, 67}";
type = Stem;
},
{
place = "{162, 76}";
type = Stem;
},
{
place = "{169, 83}";
type = Stem;
}
);
layerId = "73AED77B-4167-4914-8C61-5564342D4816";
paths = (
{
closed = 1;
nodes = (
"87 740 LINE",
"87 740 OFFCURVE",
"94 773 OFFCURVE",
"129 773 CURVE SMOOTH",
"146 773 OFFCURVE",
"162 761 OFFCURVE",
"162 745 CURVE SMOOTH",
"162 726 OFFCURVE",
"146 712 OFFCURVE",
"132 712 CURVE SMOOTH",
"115 712 LINE",
"115 658 LINE",
"115 658 OFFCURVE",
"121 660 OFFCURVE",
"129 660 CURVE SMOOTH",
"151 660 OFFCURVE",
"169 644 OFFCURVE",
"169 620 CURVE SMOOTH",
"169 596 OFFCURVE",
"151 585 OFFCURVE",
"130 585 CURVE SMOOTH",
"87 585 OFFCURVE",
"84 628 OFFCURVE",
"84 628 CURVE",
"6 589 LINE",
"6 589 OFFCURVE",
"32 513 OFFCURVE",
"130 513 CURVE SMOOTH",
"199 513 OFFCURVE",
"252 557 OFFCURVE",
"252 620 CURVE SMOOTH",
"252 653 OFFCURVE",
"238 674 OFFCURVE",
"216 691 CURVE",
"230 705 OFFCURVE",
"238 722 OFFCURVE",
"238 746 CURVE SMOOTH",
"238 801 OFFCURVE",
"193 840 OFFCURVE",
"130 840 CURVE SMOOTH",
"41 840 OFFCURVE",
"21 773 OFFCURVE",
"21 773 CURVE"
);
}
);
width = 255;
}
);
note = threesuperior;
rightKerningGroup = space;
unicode = 00B3;
},
{
glyphname = acute;
layers = (
{
hints = (
{
horizontal = 1;
place = "{558, 21}";
target = up;
type = BottomGhost;
},
{
horizontal = 1;
place = "{840, -20}";
target = down;
type = TopGhost;
},
{
place = "{152, 326}";
type = Stem;
}
);
layerId = "73AED77B-4167-4914-8C61-5564342D4816";
paths = (
{
closed = 1;
nodes = (
"152 646 LINE",
"216 558 LINE",
"478 708 LINE",
"373 840 LINE"
);
}
);
width = 629;
}
);
note = acute;
rightKerningGroup = space;
unicode = 00B4;
},
{
glyphname = mu;
layers = (
{
hints = (
{
horizontal = 1;
place = "{-16, 161}";
type = Stem;
},
{
horizontal = 1;
place = "{512, -20}";
target = down;
type = TopGhost;
},
{
place = "{72, 208}";
type = Stem;
},
{
place = "{448, 208}";
type = Stem;
},
{
horizontal = 1;
place = "{0, 21}";
target = up;
type = BottomGhost;
}
);
layerId = "73AED77B-4167-4914-8C61-5564342D4816";
paths = (
{
closed = 1;
nodes = (
"72 206 LINE SMOOTH",
"72 33 OFFCURVE",
"39 -60 OFFCURVE",
"39 -160 CURVE",
"279 -160 LINE",
"279 -15 LINE",
"279 -15 OFFCURVE",
"291 -16 OFFCURVE",
"302 -16 CURVE SMOOTH",
"358 -16 OFFCURVE",
"413 13 OFFCURVE",
"448 48 CURVE",
"448 0 LINE",
"656 0 LINE",
"656 512 LINE",
"448 512 LINE",
"448 234 LINE SMOOTH",
"448 188 OFFCURVE",
"407 145 OFFCURVE",
"356 145 CURVE SMOOTH",
"309 145 OFFCURVE",
"280 181 OFFCURVE",
"280 226 CURVE SMOOTH",
"280 512 LINE",
"72 512 LINE"
);
}
);
width = 706;
}
);
note = mu;
unicode = 00B5;
},
{
glyphname = paragraph;
layers = (
{
hints = (
{
horizontal = 1;
place = "{0, 21}";
target = up;
type = BottomGhost;
},
{
horizontal = 1;
place = "{705, 120}";
type = Stem;
},
{
place = "{372, 118}";
type = Stem;
},
{
place = "{558, 118}";
type = Stem;
}
);
layerId = "73AED77B-4167-4914-8C61-5564342D4816";
paths = (
{
closed = 1;
nodes = (
"13 424 OFFCURVE",
"115 294 OFFCURVE",
"276 294 CURVE SMOOTH",
"372 294 LINE",
"372 0 LINE",
"490 0 LINE",
"490 705 LINE",
"558 705 LINE",
"558 0 LINE",
"676 0 LINE",
"676 825 LINE",
"276 825 LINE SMOOTH",
"115 825 OFFCURVE",
"13 707 OFFCURVE",
"13 565 CURVE SMOOTH"
);
}
);
width = 725;
}
);
note = paragraph;
rightKerningGroup = space;
unicode = 00B6;
},
{
glyphname = periodcentered;
layers = (
{
hints = (
{
horizontal = 1;
place = "{137, 266}";
type = Stem;
},
{
place = "{61, 266}";
type = Stem;
}
);
layerId = "73AED77B-4167-4914-8C61-5564342D4816";
paths = (
{
closed = 1;
nodes = (
"120 403 OFFCURVE",
"61 344 OFFCURVE",
"61 270 CURVE SMOOTH",
"61 196 OFFCURVE",
"120 137 OFFCURVE",
"194 137 CURVE SMOOTH",
"268 137 OFFCURVE",
"327 196 OFFCURVE",
"327 270 CURVE SMOOTH",
"327 344 OFFCURVE",
"268 403 OFFCURVE",
"194 403 CURVE SMOOTH"
);
}
);
width = 388;
}
);
note = periodcentered;
rightKerningGroup = space;
unicode = 00B7;
},
{
glyphname = cedilla;
layers = (
{
hints = (
{
horizontal = 1;
place = "{-294, 103}";
type = Stem;
},
{
horizontal = 1;
place = "{-123, 65}";
type = Stem;
},
{
horizontal = 1;
place = "{27, -20}";
target = down;
type = TopGhost;
},
{
place = "{268, 117}";
type = Stem;
}
);
layerId = "73AED77B-4167-4914-8C61-5564342D4816";
paths = (
{
closed = 1;
nodes = (
"152 -119 LINE",
"164 -129 LINE",
"164 -129 OFFCURVE",
"175 -123 OFFCURVE",
"209 -123 CURVE SMOOTH",
"233 -123 OFFCURVE",
"268 -133 OFFCURVE",
"268 -160 CURVE SMOOTH",
"268 -172 OFFCURVE",
"262 -191 OFFCURVE",
"227 -191 CURVE SMOOTH",
"185 -191 OFFCURVE",
"150 -147 OFFCURVE",
"150 -147 CURVE",
"68 -209 LINE",
"68 -209 OFFCURVE",
"134 -294 OFFCURVE",
"227 -294 CURVE SMOOTH",
"345 -294 OFFCURVE",
"385 -225 OFFCURVE",
"385 -160 CURVE SMOOTH",
"385 -94 OFFCURVE",
"318 -58 OFFCURVE",
"259 -58 CURVE",
"279 2 LINE",
"200 27 LINE"
);
}
);
width = 458;
}
);
note = cedilla;
rightKerningGroup = space;
unicode = 00B8;
},
{
glyphname = ordmasculine;
layers = (
{
hints = (
{
horizontal = 1;
place = "{502, 108}";
type = Stem;
},
{
horizontal = 1;
place = "{732, 108}";
type = Stem;
},
{
place = "{81, 136}";
type = Stem;
},
{
place = "{323, 136}";
type = Stem;
}
);
layerId = "73AED77B-4167-4914-8C61-5564342D4816";
paths = (
{
closed = 1;
nodes = (
"81 572 OFFCURVE",
"163 502 OFFCURVE",
"270 502 CURVE SMOOTH",
"377 502 OFFCURVE",
"459 572 OFFCURVE",
"459 671 CURVE SMOOTH",
"459 770 OFFCURVE",
"377 840 OFFCURVE",
"270 840 CURVE SMOOTH",
"163 840 OFFCURVE",
"81 770 OFFCURVE",
"81 671 CURVE SMOOTH"
);
},
{
closed = 1;
nodes = (
"217 707 OFFCURVE",
"240 732 OFFCURVE",
"270 732 CURVE SMOOTH",
"300 732 OFFCURVE",
"323 707 OFFCURVE",
"323 671 CURVE SMOOTH",
"323 635 OFFCURVE",
"300 610 OFFCURVE",
"270 610 CURVE SMOOTH",
"240 610 OFFCURVE",
"217 635 OFFCURVE",
"217 671 CURVE SMOOTH"
);
}
);
width = 537;
}
);
note = ordmasculine;
rightKerningGroup = space;
unicode = 00BA;
},
{
glyphname = guillemotright;
layers = (
{
hints = (
{
horizontal = 1;
place = "{28, 21}";
target = up;
type = BottomGhost;
},
{
horizontal = 1;
place = "{528, -20}";
target = down;
type = TopGhost;
},
{
place = "{60, 552}";
type = Stem;
}
);
layerId = "73AED77B-4167-4914-8C61-5564342D4816";
paths = (
{
closed = 1;
nodes = (
"310 444 LINE",
"440 278 LINE",
"310 112 LINE",
"417 28 LINE",
"612 278 LINE",
"417 528 LINE"
);
},
{
closed = 1;
nodes = (
"60 444 LINE",
"190 278 LINE",
"60 112 LINE",
"167 28 LINE",
"362 278 LINE",
"167 528 LINE"
);
}
);
width = 650;
}
);
note = guillemotright;
rightKerningGroup = space;
unicode = 00BB;
},
{
glyphname = onequarter;
layers = (
{
hints = (
{
horizontal = 1;
place = "{0, 21}";
target = up;
type = BottomGhost;
},
{
horizontal = 1;
place = "{825, -20}";
target = down;
type = TopGhost;
},
{
place = "{114, 617}";
type = Stem;
},
{
horizontal = 1;
place = "{345, 21}";
target = up;
type = BottomGhost;
},
{
horizontal = 1;
place = "{699, 126}";
type = Stem;
},
{
place = "{146, 128}";
type = Stem;
},
{
horizontal = 1;
place = "{85, 112}";
type = Stem;
},
{
horizontal = 1;
place = "{480, -20}";
target = down;
type = TopGhost;
},
{
place = "{708, 120}";
type = Stem;
}
);
layerId = "73AED77B-4167-4914-8C61-5564342D4816";
paths = (
{
closed = 1;
nodes = (
"114 0 LINE",
"251 0 LINE",
"731 825 LINE",
"594 825 LINE"
);
},
{
closed = 1;
nodes = (
"57 825 LINE",
"57 699 LINE",
"146 699 LINE",
"146 345 LINE",
"274 345 LINE",
"274 825 LINE"
);
},
{
closed = 1;
nodes = (
"470 85 LINE",
"708 85 LINE",
"708 0 LINE",
"828 0 LINE",
"828 85 LINE",
"884 85 LINE",
"884 197 LINE",
"828 197 LINE",
"828 480 LINE",
"701 480 LINE",
"470 121 LINE"
);
},
{
closed = 1;
nodes = (
"646 197 LINE",
"708 310 LINE",
"708 197 LINE"
);
}
);
width = 916;
}
);
note = onequarter;
rightKerningGroup = space;
unicode = 00BC;
},
{
glyphname = onehalf;
layers = (
{
hints = (
{
horizontal = 1;
place = "{0, 21}";
target = up;
type = BottomGhost;
},
{
horizontal = 1;
place = "{825, -20}";
target = down;
type = TopGhost;
},
{
place = "{114, 617}";
type = Stem;
},
{
horizontal = 1;
place = "{345, 21}";
target = up;
type = BottomGhost;
},
{
horizontal = 1;
place = "{699, 126}";
type = Stem;
},
{
place = "{146, 128}";
type = Stem;
},
{
horizontal = 1;
place = "{0, 111}";
type = Stem;
},
{
horizontal = 1;
place = "{377, 105}";
type = Stem;
},
{
place = "{784, 136}";
type = Stem;
}
);
layerId = "73AED77B-4167-4914-8C61-5564342D4816";
paths = (
{
closed = 1;
nodes = (
"114 0 LINE",
"251 0 LINE",
"731 825 LINE",
"594 825 LINE"
);
},
{
closed = 1;
nodes = (
"57 825 LINE",
"57 699 LINE",
"146 699 LINE",
"146 345 LINE",
"274 345 LINE",
"274 825 LINE"
);
},
{
closed = 1;
nodes = (
"656 295 LINE",
"656 295 OFFCURVE",
"687 377 OFFCURVE",
"730 377 CURVE SMOOTH",
"766 377 OFFCURVE",
"784 359 OFFCURVE",
"784 317 CURVE SMOOTH",
"784 231 OFFCURVE",
"550 66 OFFCURVE",
"550 66 CURVE",
"550 0 LINE",
"928 0 LINE",
"928 111 LINE",
"774 111 LINE",
"774 111 OFFCURVE",
"920 199 OFFCURVE",
"920 312 CURVE SMOOTH",
"920 367 OFFCURVE",
"908 482 OFFCURVE",
"730 482 CURVE SMOOTH",
"593 482 OFFCURVE",
"552 347 OFFCURVE",
"552 347 CURVE"
);
}
);
width = 956;
}
);
note = onehalf;
rightKerningGroup = space;
unicode = 00BD;
},
{
glyphname = threequarters;
layers = (
{
hints = (
{
horizontal = 1;
place = "{0, 21}";
target = up;
type = BottomGhost;
},
{
horizontal = 1;
place = "{85, 112}";
type = Stem;
},
{
horizontal = 1;
place = "{342, 107}";
type = Stem;
},
{
horizontal = 1;
place = "{480, -20}";
target = down;
type = TopGhost;
},
{
horizontal = 1;
place = "{561, 77}";
type = Stem;
},
{
horizontal = 1;
place = "{825, -20}";
target = down;
type = TopGhost;
},
{
place = "{197, 617}";
type = Stem;
},
{
horizontal = 1;
place = "{728, 100}";
type = Stem;
},
{
place = "{266, 113}";
type = Stem;
},
{
place = "{791, 120}";
type = Stem;
},
{
place = "{276, 124}";
type = Stem;
}
);
layerId = "73AED77B-4167-4914-8C61-5564342D4816";
paths = (
{
closed = 1;
nodes = (
"197 0 LINE",
"334 0 LINE",
"814 825 LINE",
"677 825 LINE"
);
},
{
closed = 1;
nodes = (
"154 679 LINE",
"154 679 OFFCURVE",
"165 728 OFFCURVE",
"217 728 CURVE SMOOTH",
"242 728 OFFCURVE",
"266 711 OFFCURVE",
"266 687 CURVE SMOOTH",
"266 658 OFFCURVE",
"243 638 OFFCURVE",
"221 638 CURVE SMOOTH",
"196 638 LINE",
"196 557 LINE",
"196 557 OFFCURVE",
"205 561 OFFCURVE",
"217 561 CURVE SMOOTH",
"250 561 OFFCURVE",
"276 537 OFFCURVE",
"276 501 CURVE SMOOTH",
"276 466 OFFCURVE",
"250 449 OFFCURVE",
"218 449 CURVE SMOOTH",
"155 449 OFFCURVE",
"150 513 OFFCURVE",
"150 513 CURVE",
"35 455 LINE",
"35 455 OFFCURVE",
"73 342 OFFCURVE",
"218 342 CURVE SMOOTH",
"321 342 OFFCURVE",
"400 408 OFFCURVE",
"400 501 CURVE SMOOTH",
"400 550 OFFCURVE",
"379 582 OFFCURVE",
"347 606 CURVE",
"367 627 OFFCURVE",
"379 652 OFFCURVE",
"379 688 CURVE SMOOTH",
"379 769 OFFCURVE",
"312 828 OFFCURVE",
"218 828 CURVE SMOOTH",
"87 828 OFFCURVE",
"57 728 OFFCURVE",
"57 728 CURVE"
);
},
{
closed = 1;
nodes = (
"553 85 LINE",
"791 85 LINE",
"791 0 LINE",
"911 0 LINE",
"911 85 LINE",
"967 85 LINE",
"967 197 LINE",
"911 197 LINE",
"911 480 LINE",
"784 480 LINE",
"553 121 LINE"
);
},
{
closed = 1;
nodes = (
"729 197 LINE",
"791 310 LINE",
"791 197 LINE"
);
}
);
width = 999;
}
);
note = threequarters;
rightKerningGroup = space;
unicode = 00BE;
},
{
glyphname = questiondown;
layers = (
{
hints = (
{
horizontal = 1;
place = "{-275, 183}";
type = Stem;
},
{
horizontal = 1;
place = "{41, 173}";
type = Stem;
},
{
horizontal = 1;
place = "{316, 265}";
type = Stem;
},
{
place = "{166, 265}";
type = Stem;
},
{
horizontal = 1;
place = "{581, 21}";
target = up;
type = BottomGhost;
},
{
place = "{17, 195}";
type = Stem;
},
{
place = "{202, 193}";
type = Stem;
}
);
layerId = "73AED77B-4167-4914-8C61-5564342D4816";
paths = (
{
closed = 1;
nodes = (
"372 316 OFFCURVE",
"431 375 OFFCURVE",
"431 449 CURVE SMOOTH",
"431 522 OFFCURVE",
"372 581 OFFCURVE",
"299 581 CURVE SMOOTH",
"225 581 OFFCURVE",
"166 522 OFFCURVE",
"166 449 CURVE SMOOTH",
"166 375 OFFCURVE",
"225 316 OFFCURVE",
"299 316 CURVE SMOOTH"
);
},
{
closed = 1;
nodes = (
"408 -37 LINE",
"394 -55 OFFCURVE",
"379 -92 OFFCURVE",
"300 -92 CURVE SMOOTH",
"221 -92 OFFCURVE",
"212 -34 OFFCURVE",
"212 -24 CURVE SMOOTH",
"212 -14 OFFCURVE",
"222 41 OFFCURVE",
"297 41 CURVE SMOOTH",
"344 41 OFFCURVE",
"367 39 OFFCURVE",
"395 32 CURVE",
"395 278 LINE",
"202 278 LINE",
"202 214 LINE",
"65 173 OFFCURVE",
"17 49 OFFCURVE",
"17 -24 CURVE SMOOTH",
"17 -115 OFFCURVE",
"87 -275 OFFCURVE",
"300 -275 CURVE SMOOTH",
"480 -275 OFFCURVE",
"556 -158 OFFCURVE",
"578 -75 CURVE"
);
}
);
width = 600;
}
);
note = questiondown;
rightKerningGroup = space;
unicode = 00BF;
},
{
glyphname = Agrave;
layers = (
{
hints = (
{
horizontal = 1;
place = "{0, 21}";
target = up;
type = BottomGhost;
},
{
horizontal = 1;
place = "{137, 193}";
type = Stem;
},
{
horizontal = 1;
place = "{825, -20}";
target = down;
type = TopGhost;
},
{
place = "{-34, 876}";
type = Stem;
},
{
horizontal = 1;
place = "{899, 21}";
target = up;
type = BottomGhost;
},
{
horizontal = 1;
place = "{1181, -20}";
target = down;
type = TopGhost;
},
{
place = "{142, 326}";
type = Stem;
}
);
layerId = "73AED77B-4167-4914-8C61-5564342D4816";
paths = (
{
closed = 1;
nodes = (
"302 825 LINE",
"-34 0 LINE",
"203 0 LINE",
"253 137 LINE",
"555 137 LINE",
"605 0 LINE",
"842 0 LINE",
"506 825 LINE"
);
},
{
closed = 1;
nodes = (
"327 330 LINE",
"404 526 LINE",
"481 330 LINE"
);
},
{
closed = 1;
nodes = (
"142 1049 LINE",
"404 899 LINE",
"468 987 LINE",
"247 1181 LINE"
);
}
);
width = 808;
}
);
leftKerningGroup = A;
note = Agrave;
rightKerningGroup = space;
unicode = 00C0;
},
{
glyphname = Aacute;
layers = (
{
hints = (
{
horizontal = 1;
place = "{0, 21}";
target = up;
type = BottomGhost;
},
{
horizontal = 1;
place = "{137, 193}";
type = Stem;
},
{
horizontal = 1;
place = "{825, -20}";
target = down;
type = TopGhost;
},
{
place = "{-34, 876}";
type = Stem;
},
{
horizontal = 1;
place = "{899, 21}";
target = up;
type = BottomGhost;
},
{
horizontal = 1;
place = "{1181, -20}";
target = down;
type = TopGhost;
},
{
place = "{340, 326}";
type = Stem;
}
);
layerId = "73AED77B-4167-4914-8C61-5564342D4816";
paths = (
{
closed = 1;
nodes = (
"302 825 LINE",
"-34 0 LINE",
"203 0 LINE",
"253 137 LINE",
"555 137 LINE",
"605 0 LINE",
"842 0 LINE",
"506 825 LINE"
);
},
{
closed = 1;
nodes = (
"327 330 LINE",
"404 526 LINE",
"481 330 LINE"
);
},
{
closed = 1;
nodes = (
"340 987 LINE",
"404 899 LINE",
"666 1049 LINE",
"561 1181 LINE"
);
}
);
width = 808;
}
);
leftKerningGroup = A;
note = Aacute;
rightKerningGroup = space;
unicode = 00C1;
},
{
glyphname = Acircumflex;
layers = (
{
hints = (
{
horizontal = 1;
place = "{0, 21}";
target = up;
type = BottomGhost;
},
{
horizontal = 1;
place = "{137, 193}";
type = Stem;
},
{
horizontal = 1;
place = "{825, -20}";
target = down;
type = TopGhost;
},
{
place = "{-34, 876}";
type = Stem;
},
{
horizontal = 1;
place = "{899, 21}";
target = up;
type = BottomGhost;
},
{
horizontal = 1;
place = "{1174, -20}";
target = down;
type = TopGhost;
},
{
place = "{173, 462}";
type = Stem;
}
);
layerId = "73AED77B-4167-4914-8C61-5564342D4816";
paths = (
{
closed = 1;
nodes = (
"302 825 LINE",
"-34 0 LINE",
"203 0 LINE",
"253 137 LINE",
"555 137 LINE",
"605 0 LINE",
"842 0 LINE",
"506 825 LINE"
);
},
{
closed = 1;
nodes = (
"327 330 LINE",
"404 526 LINE",
"481 330 LINE"
);
},
{
closed = 1;
nodes = (
"173 1004 LINE",
"251 899 LINE",
"404 1011 LINE",
"557 899 LINE",
"635 1004 LINE",
"404 1174 LINE"
);
}
);
width = 808;
}
);
leftKerningGroup = A;
note = Acircumflex;
rightKerningGroup = space;
unicode = 00C2;
},
{
glyphname = Atilde;
layers = (
{
hints = (
{
horizontal = 1;
place = "{0, 21}";
target = up;
type = BottomGhost;
},
{
horizontal = 1;
place = "{137, 193}";
type = Stem;
},
{
horizontal = 1;
place = "{825, -20}";
target = down;
type = TopGhost;
},
{
horizontal = 1;
place = "{986, 164}";
type = Stem;
},
{
place = "{-34, 876}";
type = Stem;
},
{
place = "{106, 596}";
type = Stem;
}
);
layerId = "73AED77B-4167-4914-8C61-5564342D4816";
paths = (
{
closed = 1;
nodes = (
"302 825 LINE",
"-34 0 LINE",
"203 0 LINE",
"253 137 LINE",
"555 137 LINE",
"605 0 LINE",
"842 0 LINE",
"506 825 LINE"
);
},
{
closed = 1;
nodes = (
"327 330 LINE",
"404 526 LINE",
"481 330 LINE"
);
},
{
closed = 1;
nodes = (
"594 1141 LINE",
"594 1141 OFFCURVE",
"575 1063 OFFCURVE",
"517 1063 CURVE SMOOTH",
"492 1063 OFFCURVE",
"469 1081 OFFCURVE",
"448 1094 CURVE SMOOTH",
"408 1120 OFFCURVE",
"363 1150 OFFCURVE",
"291 1150 CURVE SMOOTH",
"176 1150 OFFCURVE",
"108 1009 OFFCURVE",
"106 1003 CURVE",
"214 908 LINE",
"214 908 OFFCURVE",
"233 986 OFFCURVE",
"291 986 CURVE SMOOTH",
"316 986 OFFCURVE",
"339 968 OFFCURVE",
"360 955 CURVE SMOOTH",
"400 929 OFFCURVE",
"445 899 OFFCURVE",
"517 899 CURVE SMOOTH",
"632 899 OFFCURVE",
"700 1039 OFFCURVE",
"702 1046 CURVE"
);
}
);
width = 808;
}
);
leftKerningGroup = A;
note = Atilde;
rightKerningGroup = space;
unicode = 00C3;
},
{
glyphname = Adieresis;
layers = (
{
hints = (
{
horizontal = 1;
place = "{0, 21}";
target = up;
type = BottomGhost;
},
{
horizontal = 1;
place = "{137, 193}";
type = Stem;
},
{
horizontal = 1;
place = "{825, -20}";
target = down;
type = TopGhost;
},
{
place = "{-34, 876}";
type = Stem;
},
{
horizontal = 1;
place = "{905, 212}";
type = Stem;
},
{
place = "{180, 212}";
type = Stem;
},
{
place = "{416, 212}";
type = Stem;
}
);
layerId = "73AED77B-4167-4914-8C61-5564342D4816";
paths = (
{
closed = 1;
nodes = (
"302 825 LINE",
"-34 0 LINE",
"203 0 LINE",
"253 137 LINE",
"555 137 LINE",
"605 0 LINE",
"842 0 LINE",
"506 825 LINE"
);
},
{
closed = 1;
nodes = (
"327 330 LINE",
"404 526 LINE",
"481 330 LINE"
);
},
{
closed = 1;
nodes = (
"227 1117 OFFCURVE",
"180 1070 OFFCURVE",
"180 1011 CURVE SMOOTH",
"180 952 OFFCURVE",
"227 905 OFFCURVE",
"286 905 CURVE SMOOTH",
"345 905 OFFCURVE",
"392 952 OFFCURVE",
"392 1011 CURVE SMOOTH",
"392 1070 OFFCURVE",
"345 1117 OFFCURVE",
"286 1117 CURVE SMOOTH"
);
},
{
closed = 1;
nodes = (
"463 1117 OFFCURVE",
"416 1070 OFFCURVE",
"416 1011 CURVE SMOOTH",
"416 952 OFFCURVE",
"463 905 OFFCURVE",
"522 905 CURVE SMOOTH",
"581 905 OFFCURVE",
"628 952 OFFCURVE",
"628 1011 CURVE SMOOTH",
"628 1070 OFFCURVE",
"581 1117 OFFCURVE",
"522 1117 CURVE SMOOTH"
);
}
);
width = 808;
}
);
leftKerningGroup = A;
note = Adieresis;
rightKerningGroup = space;
unicode = 00C4;
},
{
glyphname = Aring;
layers = (
{
hints = (
{
horizontal = 1;
place = "{-422, 21}";
target = up;
type = BottomGhost;
},
{
horizontal = 1;
place = "{0, 21}";
target = up;
type = BottomGhost;
},
{
horizontal = 1;
place = "{137, 193}";
type = Stem;
},
{
horizontal = 1;
place = "{891, 89}";
type = Stem;
},
{
horizontal = 1;
place = "{1107, 91}";
type = Stem;
},
{
place = "{-34, 875}";
type = Stem;
},
{
place = "{230, 115}";
type = Stem;
},
{
place = "{462, 115}";
type = Stem;
}
);
layerId = "73AED77B-4167-4914-8C61-5564342D4816";
paths = (
{
closed = 1;
nodes = (
"604 0 LINE",
"841 0 LINE",
"505 825 LINE",
"302 825 LINE",
"-34 0 LINE",
"203 0 LINE",
"253 137 LINE",
"555 137 LINE"
);
},
{
closed = 1;
nodes = (
"327 330 LINE",
"404 526 LINE",
"480 330 LINE"
);
},
{
closed = 1;
nodes = (
"230 954 OFFCURVE",
"300 891 OFFCURVE",
"404 891 CURVE SMOOTH",
"505 891 OFFCURVE",
"577 954 OFFCURVE",
"577 1045 CURVE SMOOTH",
"577 1135 OFFCURVE",
"502 1198 OFFCURVE",
"404 1198 CURVE SMOOTH",
"306 1198 OFFCURVE",
"230 1135 OFFCURVE",
"230 1045 CURVE SMOOTH"
);
},
{
closed = 1;
nodes = (
"345 1079 OFFCURVE",
"372 1107 OFFCURVE",
"404 1107 CURVE SMOOTH",
"436 1107 OFFCURVE",
"462 1079 OFFCURVE",
"462 1045 CURVE SMOOTH",
"462 1010 OFFCURVE",
"437 980 OFFCURVE",
"404 980 CURVE SMOOTH",
"369 980 OFFCURVE",
"345 1010 OFFCURVE",
"345 1045 CURVE SMOOTH"
);
}
);
width = 807;
}
);
leftKerningGroup = A;
note = Aring;
rightKerningGroup = space;
unicode = 00C5;
},
{
glyphname = AE;
layers = (
{
hints = (
{
horizontal = 1;
place = "{0, 193}";
type = Stem;
},
{
horizontal = 1;
place = "{317, 193}";
type = Stem;
},
{
horizontal = 1;
place = "{632, 193}";
type = Stem;
},
{
place = "{449, 220}";
type = Stem;
},
{
horizontal = 1;
place = "{137, 193}";
type = Stem;
}
);
layerId = "73AED77B-4167-4914-8C61-5564342D4816";
paths = (
{
closed = 1;
nodes = (
"346 825 LINE",
"-42 0 LINE",
"194 0 LINE",
"255 137 LINE",
"449 137 LINE",
"449 0 LINE",
"937 0 LINE",
"937 193 LINE",
"669 193 LINE",
"669 317 LINE",
"925 317 LINE",
"925 510 LINE",
"669 510 LINE",
"669 632 LINE",
"937 632 LINE",
"937 825 LINE"
);
},
{
closed = 1;
nodes = (
"332 330 LINE",
"449 600 LINE",
"449 330 LINE"
);
}
);
width = 980;
}
);
note = AE;
rightKerningGroup = space;
unicode = 00C6;
},
{
glyphname = Ccedilla;
layers = (
{
hints = (
{
horizontal = 1;
place = "{-294, 103}";
type = Stem;
},
{
horizontal = 1;
place = "{-123, 65}";
type = Stem;
},
{
horizontal = 1;
place = "{-16, 216}";
type = Stem;
},
{
horizontal = 1;
place = "{624, 216}";
type = Stem;
},
{
place = "{15, 238}";
type = Stem;
},
{
place = "{386, 117}";
type = Stem;
}
);
layerId = "73AED77B-4167-4914-8C61-5564342D4816";
paths = (
{
closed = 1;
nodes = (
"270 -119 LINE",
"282 -129 LINE",
"282 -129 OFFCURVE",
"293 -123 OFFCURVE",
"327 -123 CURVE SMOOTH",
"351 -123 OFFCURVE",
"386 -133 OFFCURVE",
"386 -160 CURVE SMOOTH",
"386 -172 OFFCURVE",
"380 -191 OFFCURVE",
"345 -191 CURVE SMOOTH",
"303 -191 OFFCURVE",
"268 -147 OFFCURVE",
"268 -147 CURVE",
"186 -209 LINE",
"186 -209 OFFCURVE",
"252 -294 OFFCURVE",
"345 -294 CURVE SMOOTH",
"463 -294 OFFCURVE",
"503 -225 OFFCURVE",
"503 -160 CURVE SMOOTH",
"503 -94 OFFCURVE",
"436 -58 OFFCURVE",
"377 -58 CURVE",
"393 -10 LINE",
"417 -14 OFFCURVE",
"441 -16 OFFCURVE",
"466 -16 CURVE SMOOTH",
"646 -16 OFFCURVE",
"738 57 OFFCURVE",
"738 57 CURVE",
"645 245 LINE",
"645 245 OFFCURVE",
"587 200 OFFCURVE",
"500 200 CURVE SMOOTH",
"320 200 OFFCURVE",
"253 325 OFFCURVE",
"253 412 CURVE SMOOTH",
"253 499 OFFCURVE",
"320 624 OFFCURVE",
"500 624 CURVE SMOOTH",
"587 624 OFFCURVE",
"645 579 OFFCURVE",
"645 579 CURVE",
"738 767 LINE",
"738 767 OFFCURVE",
"646 840 OFFCURVE",
"466 840 CURVE SMOOTH",
"235 840 OFFCURVE",
"15 648 OFFCURVE",
"15 412 CURVE SMOOTH",
"15 229 OFFCURVE",
"146 73 OFFCURVE",
"313 12 CURVE"
);
}
);
width = 740;
}
);
leftKerningGroup = C;
note = Ccedilla;
rightKerningGroup = C;
unicode = 00C7;
},
{
glyphname = Egrave;
layers = (
{
hints = (
{
horizontal = 1;
place = "{0, 193}";
type = Stem;
},
{
horizontal = 1;
place = "{317, 193}";
type = Stem;
},
{
horizontal = 1;
place = "{632, 193}";
type = Stem;
},
{
place = "{49, 220}";
type = Stem;
},
{
horizontal = 1;
place = "{899, 21}";
target = up;
type = BottomGhost;
},
{
horizontal = 1;
place = "{1181, -20}";
target = down;
type = TopGhost;
},
{
place = "{100, 326}";
type = Stem;
}
);
layerId = "73AED77B-4167-4914-8C61-5564342D4816";
paths = (
{
closed = 1;
nodes = (
"49 825 LINE",
"49 0 LINE",
"537 0 LINE",
"537 193 LINE",
"269 193 LINE",
"269 317 LINE",
"525 317 LINE",
"525 510 LINE",
"269 510 LINE",
"269 632 LINE",
"537 632 LINE",
"537 825 LINE"
);
},
{
closed = 1;
nodes = (
"100 1049 LINE",
"362 899 LINE",
"426 987 LINE",
"205 1181 LINE"
);
}
);
width = 580;
}
);
note = Egrave;
rightKerningGroup = E;
unicode = 00C8;
},
{
glyphname = Eacute;
layers = (
{
hints = (
{
horizontal = 1;
place = "{0, 193}";
type = Stem;
},
{
horizontal = 1;
place = "{317, 193}";
type = Stem;
},
{
horizontal = 1;
place = "{632, 193}";
type = Stem;
},
{
place = "{49, 220}";
type = Stem;
},
{
horizontal = 1;
place = "{899, 21}";
target = up;
type = BottomGhost;
},
{
horizontal = 1;
place = "{1181, -20}";
target = down;
type = TopGhost;
},
{
place = "{160, 326}";
type = Stem;
}
);
layerId = "73AED77B-4167-4914-8C61-5564342D4816";
paths = (
{
closed = 1;
nodes = (
"49 825 LINE",
"49 0 LINE",
"537 0 LINE",
"537 193 LINE",
"269 193 LINE",
"269 317 LINE",
"525 317 LINE",
"525 510 LINE",
"269 510 LINE",
"269 632 LINE",
"537 632 LINE",
"537 825 LINE"
);
},
{
closed = 1;
nodes = (
"160 987 LINE",
"224 899 LINE",
"486 1049 LINE",
"381 1181 LINE"
);
}
);
width = 580;
}
);
note = Eacute;
rightKerningGroup = E;
unicode = 00C9;
},
{
glyphname = Ecircumflex;
layers = (
{
hints = (
{
horizontal = 1;
place = "{0, 193}";
type = Stem;
},
{
horizontal = 1;
place = "{317, 193}";
type = Stem;
},
{
horizontal = 1;
place = "{632, 193}";
type = Stem;
},
{
place = "{49, 220}";
type = Stem;
},
{
horizontal = 1;
place = "{899, 21}";
target = up;
type = BottomGhost;
},
{
horizontal = 1;
place = "{1174, -20}";
target = down;
type = TopGhost;
},
{
place = "{62, 462}";
type = Stem;
}
);
layerId = "73AED77B-4167-4914-8C61-5564342D4816";
paths = (
{
closed = 1;
nodes = (
"49 825 LINE",
"49 0 LINE",
"537 0 LINE",
"537 193 LINE",
"269 193 LINE",
"269 317 LINE",
"525 317 LINE",
"525 510 LINE",
"269 510 LINE",
"269 632 LINE",
"537 632 LINE",
"537 825 LINE"
);
},
{
closed = 1;
nodes = (
"62 1004 LINE",
"140 899 LINE",
"293 1011 LINE",
"446 899 LINE",
"524 1004 LINE",
"293 1174 LINE"
);
}
);
width = 580;
}
);
note = Ecircumflex;
rightKerningGroup = E;
unicode = 00CA;
},
{
glyphname = Edieresis;
layers = (
{
hints = (
{
horizontal = 1;
place = "{0, 193}";
type = Stem;
},
{
horizontal = 1;
place = "{317, 193}";
type = Stem;
},
{
horizontal = 1;
place = "{632, 193}";
type = Stem;
},
{
place = "{49, 220}";
type = Stem;
},
{
horizontal = 1;
place = "{905, 212}";
type = Stem;
},
{
place = "{69, 212}";
type = Stem;
},
{
place = "{305, 212}";
type = Stem;
}
);
layerId = "73AED77B-4167-4914-8C61-5564342D4816";
paths = (
{
closed = 1;
nodes = (
"49 825 LINE",
"49 0 LINE",
"537 0 LINE",
"537 193 LINE",
"269 193 LINE",
"269 317 LINE",
"525 317 LINE",
"525 510 LINE",
"269 510 LINE",
"269 632 LINE",
"537 632 LINE",
"537 825 LINE"
);
},
{
closed = 1;
nodes = (
"116 1117 OFFCURVE",
"69 1070 OFFCURVE",
"69 1011 CURVE SMOOTH",
"69 952 OFFCURVE",
"116 905 OFFCURVE",
"175 905 CURVE SMOOTH",
"234 905 OFFCURVE",
"281 952 OFFCURVE",
"281 1011 CURVE SMOOTH",
"281 1070 OFFCURVE",
"234 1117 OFFCURVE",
"175 1117 CURVE SMOOTH"
);
},
{
closed = 1;
nodes = (
"352 1117 OFFCURVE",
"305 1070 OFFCURVE",
"305 1011 CURVE SMOOTH",
"305 952 OFFCURVE",
"352 905 OFFCURVE",
"411 905 CURVE SMOOTH",
"470 905 OFFCURVE",
"517 952 OFFCURVE",
"517 1011 CURVE SMOOTH",
"517 1070 OFFCURVE",
"470 1117 OFFCURVE",
"411 1117 CURVE SMOOTH"
);
}
);
width = 580;
}
);
note = Edieresis;
rightKerningGroup = E;
unicode = 00CB;
},
{
glyphname = Igrave;
layers = (
{
hints = (
{
horizontal = 1;
place = "{0, 21}";
target = up;
type = BottomGhost;
},
{
horizontal = 1;
place = "{825, -20}";
target = down;
type = TopGhost;
},
{
place = "{49, 220}";
type = Stem;
},
{
horizontal = 1;
place = "{899, 21}";
target = up;
type = BottomGhost;
},
{
horizontal = 1;
place = "{1181, -20}";
target = down;
type = TopGhost;
},
{
place = "{-103, 326}";
type = Stem;
}
);
layerId = "73AED77B-4167-4914-8C61-5564342D4816";
paths = (
{
closed = 1;
nodes = (
"49 825 LINE",
"49 0 LINE",
"269 0 LINE",
"269 825 LINE"
);
},
{
closed = 1;
nodes = (
"-103 1049 LINE",
"159 899 LINE",
"223 987 LINE",
"2 1181 LINE"
);
}
);
width = 318;
}
);
leftKerningGroup = I;
note = Igrave;
rightKerningGroup = space;
unicode = 00CC;
},
{
glyphname = Iacute;
layers = (
{
hints = (
{
horizontal = 1;
place = "{0, 21}";
target = up;
type = BottomGhost;
},
{
horizontal = 1;
place = "{825, -20}";
target = down;
type = TopGhost;
},
{
place = "{49, 220}";
type = Stem;
},
{
horizontal = 1;
place = "{899, 21}";
target = up;
type = BottomGhost;
},
{
horizontal = 1;
place = "{1181, -20}";
target = down;
type = TopGhost;
},
{
place = "{95, 326}";
type = Stem;
}
);
layerId = "73AED77B-4167-4914-8C61-5564342D4816";
paths = (
{
closed = 1;
nodes = (
"49 825 LINE",
"49 0 LINE",
"269 0 LINE",
"269 825 LINE"
);
},
{
closed = 1;
nodes = (
"95 987 LINE",
"159 899 LINE",
"421 1049 LINE",
"316 1181 LINE"
);
}
);
width = 318;
}
);
leftKerningGroup = I;
note = Iacute;
rightKerningGroup = space;
unicode = 00CD;
},
{
glyphname = Icircumflex;
layers = (
{
hints = (
{
horizontal = 1;
place = "{0, 21}";
target = up;
type = BottomGhost;
},
{
horizontal = 1;
place = "{825, -20}";
target = down;
type = TopGhost;
},
{
place = "{49, 220}";
type = Stem;
},
{
horizontal = 1;
place = "{899, 21}";
target = up;
type = BottomGhost;
},
{
horizontal = 1;
place = "{1174, -20}";
target = down;
type = TopGhost;
},
{
place = "{-72, 462}";
type = Stem;
}
);
layerId = "73AED77B-4167-4914-8C61-5564342D4816";
paths = (
{
closed = 1;
nodes = (
"49 825 LINE",
"49 0 LINE",
"269 0 LINE",
"269 825 LINE"
);
},
{
closed = 1;
nodes = (
"-72 1004 LINE",
"6 899 LINE",
"159 1011 LINE",
"312 899 LINE",
"390 1004 LINE",
"159 1174 LINE"
);
}
);
width = 318;
}
);
leftKerningGroup = Icircumflex;
note = Icircumflex;
rightKerningGroup = Icircumflex;
unicode = 00CE;
},
{
glyphname = Idieresis;
layers = (
{
hints = (
{
horizontal = 1;
place = "{0, 21}";
target = up;
type = BottomGhost;
},
{
horizontal = 1;
place = "{825, -20}";
target = down;
type = TopGhost;
},
{
place = "{49, 220}";
type = Stem;
},
{
horizontal = 1;
place = "{905, 212}";
type = Stem;
},
{
place = "{-65, 212}";
type = Stem;
},
{
place = "{171, 212}";
type = Stem;
}
);
layerId = "73AED77B-4167-4914-8C61-5564342D4816";
paths = (
{
closed = 1;
nodes = (
"49 825 LINE",
"49 0 LINE",
"269 0 LINE",
"269 825 LINE"
);
},
{
closed = 1;
nodes = (
"-18 1117 OFFCURVE",
"-65 1070 OFFCURVE",
"-65 1011 CURVE SMOOTH",
"-65 952 OFFCURVE",
"-18 905 OFFCURVE",
"41 905 CURVE SMOOTH",
"100 905 OFFCURVE",
"147 952 OFFCURVE",
"147 1011 CURVE SMOOTH",
"147 1070 OFFCURVE",
"100 1117 OFFCURVE",
"41 1117 CURVE SMOOTH"
);
},
{
closed = 1;
nodes = (
"218 1117 OFFCURVE",
"171 1070 OFFCURVE",
"171 1011 CURVE SMOOTH",
"171 952 OFFCURVE",
"218 905 OFFCURVE",
"277 905 CURVE SMOOTH",
"336 905 OFFCURVE",
"383 952 OFFCURVE",
"383 1011 CURVE SMOOTH",
"383 1070 OFFCURVE",
"336 1117 OFFCURVE",
"277 1117 CURVE SMOOTH"
);
}
);
width = 318;
}
);
leftKerningGroup = Icircumflex;
note = Idieresis;
rightKerningGroup = Icircumflex;
unicode = 00CF;
},
{
glyphname = Eth;
layers = (
{
hints = (
{
place = "{49, 228}";
type = Stem;
},
{
place = "{481, 238}";
type = Stem;
}
);
layerId = "73AED77B-4167-4914-8C61-5564342D4816";
paths = (
{
closed = 1;
nodes = (
"-33 323 LINE",
"49 323 LINE",
"49 0 LINE",
"303 0 LINE SMOOTH",
"530 0 OFFCURVE",
"719 171 OFFCURVE",
"719 412 CURVE SMOOTH",
"719 652 OFFCURVE",
"529 825 OFFCURVE",
"303 825 CURVE SMOOTH",
"49 825 LINE",
"49 502 LINE",
"-33 502 LINE"
);
},
{
closed = 1;
nodes = (
"269 628 LINE",
"277 628 LINE SMOOTH",
"403 628 OFFCURVE",
"481 532 OFFCURVE",
"481 412 CURVE SMOOTH",
"480 291 OFFCURVE",
"401 197 OFFCURVE",
"277 197 CURVE SMOOTH",
"269 197 LINE",
"269 323 LINE",
"346 323 LINE",
"346 502 LINE",
"269 502 LINE"
);
}
);
width = 732;
}
);
note = Eth;
rightKerningGroup = space;
unicode = 00D0;
},
{
glyphname = Ntilde;
layers = (
{
hints = (
{
horizontal = 1;
place = "{0, 21}";
target = up;
type = BottomGhost;
},
{
horizontal = 1;
place = "{825, -20}";
target = down;
type = TopGhost;
},
{
horizontal = 1;
place = "{991, 164}";
type = Stem;
},
{
place = "{49, 220}";
type = Stem;
},
{
place = "{565, 220}";
type = Stem;
},
{
place = "{119, 596}";
type = Stem;
}
);
layerId = "73AED77B-4167-4914-8C61-5564342D4816";
paths = (
{
closed = 1;
nodes = (
"49 825 LINE",
"49 0 LINE",
"269 0 LINE",
"269 460 LINE",
"565 0 LINE",
"785 0 LINE",
"785 825 LINE",
"565 825 LINE",
"565 365 LINE",
"269 825 LINE"
);
},
{
closed = 1;
nodes = (
"607 1146 LINE",
"607 1146 OFFCURVE",
"588 1068 OFFCURVE",
"530 1068 CURVE SMOOTH",
"505 1068 OFFCURVE",
"482 1086 OFFCURVE",
"461 1099 CURVE SMOOTH",
"421 1125 OFFCURVE",
"376 1155 OFFCURVE",
"304 1155 CURVE SMOOTH",
"189 1155 OFFCURVE",
"121 1014 OFFCURVE",
"119 1008 CURVE",
"227 913 LINE",
"227 913 OFFCURVE",
"246 991 OFFCURVE",
"304 991 CURVE SMOOTH",
"329 991 OFFCURVE",
"352 973 OFFCURVE",
"373 960 CURVE SMOOTH",
"413 934 OFFCURVE",
"458 904 OFFCURVE",
"530 904 CURVE SMOOTH",
"645 904 OFFCURVE",
"713 1044 OFFCURVE",
"715 1051 CURVE"
);
}
);
width = 834;
}
);
note = Ntilde;
rightKerningGroup = space;
unicode = 00D1;
},
{
glyphname = Ograve;
layers = (
{
hints = (
{
horizontal = 1;
place = "{-16, 212}";
type = Stem;
},
{
horizontal = 1;
place = "{628, 212}";
type = Stem;
},
{
place = "{13, 237}";
type = Stem;
},
{
place = "{608, 237}";
type = Stem;
},
{
horizontal = 1;
place = "{899, 21}";
target = up;
type = BottomGhost;
},
{
horizontal = 1;
place = "{1181, -20}";
target = down;
type = TopGhost;
},
{
place = "{236, 326}";
type = Stem;
}
);
layerId = "73AED77B-4167-4914-8C61-5564342D4816";
paths = (
{
closed = 1;
nodes = (
"13 171 OFFCURVE",
"202 -16 OFFCURVE",
"429 -16 CURVE SMOOTH",
"656 -16 OFFCURVE",
"845 171 OFFCURVE",
"845 412 CURVE SMOOTH",
"845 653 OFFCURVE",
"656 840 OFFCURVE",
"429 840 CURVE SMOOTH",
"202 840 OFFCURVE",
"13 653 OFFCURVE",
"13 412 CURVE SMOOTH"
);
},
{
closed = 1;
nodes = (
"250 514 OFFCURVE",
"297 628 OFFCURVE",
"429 628 CURVE SMOOTH",
"561 628 OFFCURVE",
"608 514 OFFCURVE",
"608 412 CURVE SMOOTH",
"608 310 OFFCURVE",
"561 196 OFFCURVE",
"429 196 CURVE SMOOTH",
"297 196 OFFCURVE",
"250 310 OFFCURVE",
"250 412 CURVE SMOOTH"
);
},
{
closed = 1;
nodes = (
"236 1049 LINE",
"498 899 LINE",
"562 987 LINE",
"341 1181 LINE"
);
}
);
width = 858;
}
);
leftKerningGroup = O;
note = Ograve;
rightKerningGroup = O;
unicode = 00D2;
},
{
glyphname = Oacute;
layers = (
{
hints = (
{
horizontal = 1;
place = "{-16, 212}";
type = Stem;
},
{
horizontal = 1;
place = "{628, 212}";
type = Stem;
},
{
place = "{13, 237}";
type = Stem;
},
{
place = "{608, 237}";
type = Stem;
},
{
horizontal = 1;
place = "{899, 21}";
target = up;
type = BottomGhost;
},
{
horizontal = 1;
place = "{1181, -20}";
target = down;
type = TopGhost;
},
{
place = "{296, 326}";
type = Stem;
}
);
layerId = "73AED77B-4167-4914-8C61-5564342D4816";
paths = (
{
closed = 1;
nodes = (
"13 171 OFFCURVE",
"202 -16 OFFCURVE",
"429 -16 CURVE SMOOTH",
"656 -16 OFFCURVE",
"845 171 OFFCURVE",
"845 412 CURVE SMOOTH",
"845 653 OFFCURVE",
"656 840 OFFCURVE",
"429 840 CURVE SMOOTH",
"202 840 OFFCURVE",
"13 653 OFFCURVE",
"13 412 CURVE SMOOTH"
);
},
{
closed = 1;
nodes = (
"250 514 OFFCURVE",
"297 628 OFFCURVE",
"429 628 CURVE SMOOTH",
"561 628 OFFCURVE",
"608 514 OFFCURVE",
"608 412 CURVE SMOOTH",
"608 310 OFFCURVE",
"561 196 OFFCURVE",
"429 196 CURVE SMOOTH",
"297 196 OFFCURVE",
"250 310 OFFCURVE",
"250 412 CURVE SMOOTH"
);
},
{
closed = 1;
nodes = (
"296 987 LINE",
"360 899 LINE",
"622 1049 LINE",
"517 1181 LINE"
);
}
);
width = 858;
}
);
leftKerningGroup = O;
note = Oacute;
rightKerningGroup = O;
unicode = 00D3;
},
{
glyphname = Ocircumflex;
layers = (
{
hints = (
{
horizontal = 1;
place = "{-16, 212}";
type = Stem;
},
{
horizontal = 1;
place = "{628, 212}";
type = Stem;
},
{
place = "{13, 237}";
type = Stem;
},
{
place = "{608, 237}";
type = Stem;
},
{
horizontal = 1;
place = "{899, 21}";
target = up;
type = BottomGhost;
},
{
horizontal = 1;
place = "{1174, -20}";
target = down;
type = TopGhost;
},
{
place = "{198, 462}";
type = Stem;
}
);
layerId = "73AED77B-4167-4914-8C61-5564342D4816";
paths = (
{
closed = 1;
nodes = (
"13 171 OFFCURVE",
"202 -16 OFFCURVE",
"429 -16 CURVE SMOOTH",
"656 -16 OFFCURVE",
"845 171 OFFCURVE",
"845 412 CURVE SMOOTH",
"845 653 OFFCURVE",
"656 840 OFFCURVE",
"429 840 CURVE SMOOTH",
"202 840 OFFCURVE",
"13 653 OFFCURVE",
"13 412 CURVE SMOOTH"
);
},
{
closed = 1;
nodes = (
"250 514 OFFCURVE",
"297 628 OFFCURVE",
"429 628 CURVE SMOOTH",
"561 628 OFFCURVE",
"608 514 OFFCURVE",
"608 412 CURVE SMOOTH",
"608 310 OFFCURVE",
"561 196 OFFCURVE",
"429 196 CURVE SMOOTH",
"297 196 OFFCURVE",
"250 310 OFFCURVE",
"250 412 CURVE SMOOTH"
);
},
{
closed = 1;
nodes = (
"198 1004 LINE",
"276 899 LINE",
"429 1011 LINE",
"582 899 LINE",
"660 1004 LINE",
"429 1174 LINE"
);
}
);
width = 858;
}
);
leftKerningGroup = O;
note = Ocircumflex;
rightKerningGroup = O;
unicode = 00D4;
},
{
glyphname = Otilde;
layers = (
{
hints = (
{
horizontal = 1;
place = "{-16, 212}";
type = Stem;
},
{
horizontal = 1;
place = "{628, 212}";
type = Stem;
},
{
horizontal = 1;
place = "{973, 164}";
type = Stem;
},
{
place = "{13, 237}";
type = Stem;
},
{
place = "{608, 237}";
type = Stem;
},
{
place = "{131, 596}";
type = Stem;
}
);
layerId = "73AED77B-4167-4914-8C61-5564342D4816";
paths = (
{
closed = 1;
nodes = (
"13 171 OFFCURVE",
"202 -16 OFFCURVE",
"429 -16 CURVE SMOOTH",
"656 -16 OFFCURVE",
"845 171 OFFCURVE",
"845 412 CURVE SMOOTH",
"845 653 OFFCURVE",
"656 840 OFFCURVE",
"429 840 CURVE SMOOTH",
"202 840 OFFCURVE",
"13 653 OFFCURVE",
"13 412 CURVE SMOOTH"
);
},
{
closed = 1;
nodes = (
"250 514 OFFCURVE",
"297 628 OFFCURVE",
"429 628 CURVE SMOOTH",
"561 628 OFFCURVE",
"608 514 OFFCURVE",
"608 412 CURVE SMOOTH",
"608 310 OFFCURVE",
"561 196 OFFCURVE",
"429 196 CURVE SMOOTH",
"297 196 OFFCURVE",
"250 310 OFFCURVE",
"250 412 CURVE SMOOTH"
);
},
{
closed = 1;
nodes = (
"619 1128 LINE",
"619 1128 OFFCURVE",
"600 1050 OFFCURVE",
"542 1050 CURVE SMOOTH",
"517 1050 OFFCURVE",
"494 1068 OFFCURVE",
"473 1081 CURVE SMOOTH",
"433 1107 OFFCURVE",
"388 1137 OFFCURVE",
"316 1137 CURVE SMOOTH",
"201 1137 OFFCURVE",
"133 996 OFFCURVE",
"131 990 CURVE",
"239 895 LINE",
"239 895 OFFCURVE",
"258 973 OFFCURVE",
"316 973 CURVE SMOOTH",
"341 973 OFFCURVE",
"364 955 OFFCURVE",
"385 942 CURVE SMOOTH",
"425 916 OFFCURVE",
"470 886 OFFCURVE",
"542 886 CURVE SMOOTH",
"657 886 OFFCURVE",
"725 1026 OFFCURVE",
"727 1033 CURVE"
);
}
);
width = 858;
}
);
leftKerningGroup = O;
note = Otilde;
rightKerningGroup = O;
unicode = 00D5;
},
{
glyphname = Odieresis;
layers = (
{
hints = (
{
horizontal = 1;
place = "{-16, 212}";
type = Stem;
},
{
horizontal = 1;
place = "{628, 212}";
type = Stem;
},
{
place = "{13, 237}";
type = Stem;
},
{
place = "{608, 237}";
type = Stem;
},
{
horizontal = 1;
place = "{905, 212}";
type = Stem;
},
{
place = "{205, 212}";
type = Stem;
},
{
place = "{441, 212}";
type = Stem;
}
);
layerId = "73AED77B-4167-4914-8C61-5564342D4816";
paths = (
{
closed = 1;
nodes = (
"13 171 OFFCURVE",
"202 -16 OFFCURVE",
"429 -16 CURVE SMOOTH",
"656 -16 OFFCURVE",
"845 171 OFFCURVE",
"845 412 CURVE SMOOTH",
"845 653 OFFCURVE",
"656 840 OFFCURVE",
"429 840 CURVE SMOOTH",
"202 840 OFFCURVE",
"13 653 OFFCURVE",
"13 412 CURVE SMOOTH"
);
},
{
closed = 1;
nodes = (
"250 514 OFFCURVE",
"297 628 OFFCURVE",
"429 628 CURVE SMOOTH",
"561 628 OFFCURVE",
"608 514 OFFCURVE",
"608 412 CURVE SMOOTH",
"608 310 OFFCURVE",
"561 196 OFFCURVE",
"429 196 CURVE SMOOTH",
"297 196 OFFCURVE",
"250 310 OFFCURVE",
"250 412 CURVE SMOOTH"
);
},
{
closed = 1;
nodes = (
"252 1117 OFFCURVE",
"205 1070 OFFCURVE",
"205 1011 CURVE SMOOTH",
"205 952 OFFCURVE",
"252 905 OFFCURVE",
"311 905 CURVE SMOOTH",
"370 905 OFFCURVE",
"417 952 OFFCURVE",
"417 1011 CURVE SMOOTH",
"417 1070 OFFCURVE",
"370 1117 OFFCURVE",
"311 1117 CURVE SMOOTH"
);
},
{
closed = 1;
nodes = (
"488 1117 OFFCURVE",
"441 1070 OFFCURVE",
"441 1011 CURVE SMOOTH",
"441 952 OFFCURVE",
"488 905 OFFCURVE",
"547 905 CURVE SMOOTH",
"606 905 OFFCURVE",
"653 952 OFFCURVE",
"653 1011 CURVE SMOOTH",
"653 1070 OFFCURVE",
"606 1117 OFFCURVE",
"547 1117 CURVE SMOOTH"
);
}
);
width = 858;
}
);
leftKerningGroup = O;
note = Odieresis;
rightKerningGroup = O;
unicode = 00D6;
},
{
glyphname = Oslash;
layers = (
{
hints = (
{
horizontal = 1;
place = "{-33, 21}";
target = up;
type = BottomGhost;
},
{
horizontal = 1;
place = "{628, 212}";
type = Stem;
},
{
place = "{14, 237}";
type = Stem;
},
{
place = "{609, 237}";
type = Stem;
},
{
horizontal = 1;
place = "{-16, 212}";
type = Stem;
},
{
horizontal = 1;
place = "{859, -20}";
target = down;
type = TopGhost;
}
);
layerId = "73AED77B-4167-4914-8C61-5564342D4816";
paths = (
{
closed = 1;
nodes = (
"14 308 OFFCURVE",
"49 214 OFFCURVE",
"107 141 CURVE",
"48 67 LINE",
"178 -33 LINE",
"232 35 LINE",
"291 2 OFFCURVE",
"359 -16 OFFCURVE",
"430 -16 CURVE SMOOTH",
"657 -16 OFFCURVE",
"846 171 OFFCURVE",
"846 412 CURVE SMOOTH",
"846 517 OFFCURVE",
"810 611 OFFCURVE",
"751 685 CURVE",
"810 759 LINE",
"680 859 LINE",
"625 790 LINE",
"566 822 OFFCURVE",
"500 840 OFFCURVE",
"430 840 CURVE SMOOTH",
"203 840 OFFCURVE",
"14 653 OFFCURVE",
"14 412 CURVE SMOOTH"
);
},
{
closed = 1;
nodes = (
"609 310 OFFCURVE",
"562 196 OFFCURVE",
"430 196 CURVE SMOOTH",
"407 196 OFFCURVE",
"387 200 OFFCURVE",
"369 206 CURVE",
"598 493 LINE",
"606 467 OFFCURVE",
"609 439 OFFCURVE",
"609 412 CURVE SMOOTH"
);
},
{
closed = 1;
nodes = (
"251 514 OFFCURVE",
"298 628 OFFCURVE",
"430 628 CURVE SMOOTH",
"451 628 OFFCURVE",
"471 624 OFFCURVE",
"488 619 CURVE",
"261 334 LINE",
"254 359 OFFCURVE",
"251 386 OFFCURVE",
"251 412 CURVE SMOOTH"
);
}
);
width = 859;
}
);
leftKerningGroup = O;
note = Oslash;
rightKerningGroup = O;
unicode = 00D8;
},
{
glyphname = Ugrave;
layers = (
{
hints = (
{
horizontal = 1;
place = "{-16, 216}";
type = Stem;
},
{
horizontal = 1;
place = "{825, -20}";
target = down;
type = TopGhost;
},
{
place = "{38, 220}";
type = Stem;
},
{
place = "{484, 220}";
type = Stem;
},
{
horizontal = 1;
place = "{899, 21}";
target = up;
type = BottomGhost;
},
{
horizontal = 1;
place = "{1181, -20}";
target = down;
type = TopGhost;
},
{
place = "{178, 326}";
type = Stem;
}
);
layerId = "73AED77B-4167-4914-8C61-5564342D4816";
paths = (
{
closed = 1;
nodes = (
"484 825 LINE",
"484 357 LINE SMOOTH",
"484 229 OFFCURVE",
"450 200 OFFCURVE",
"371 200 CURVE SMOOTH",
"292 200 OFFCURVE",
"258 229 OFFCURVE",
"258 357 CURVE SMOOTH",
"258 825 LINE",
"38 825 LINE",
"38 291 LINE SMOOTH",
"38 87 OFFCURVE",
"154 -16 OFFCURVE",
"371 -16 CURVE SMOOTH",
"588 -16 OFFCURVE",
"704 87 OFFCURVE",
"704 291 CURVE SMOOTH",
"704 825 LINE"
);
},
{
closed = 1;
nodes = (
"178 1049 LINE",
"440 899 LINE",
"504 987 LINE",
"283 1181 LINE"
);
}
);
width = 742;
}
);
note = Ugrave;
rightKerningGroup = space;
unicode = 00D9;
},
{
glyphname = Uacute;
layers = (
{
hints = (
{
horizontal = 1;
place = "{-16, 216}";
type = Stem;
},
{
horizontal = 1;
place = "{825, -20}";
target = down;
type = TopGhost;
},
{
place = "{38, 220}";
type = Stem;
},
{
place = "{484, 220}";
type = Stem;
},
{
horizontal = 1;
place = "{899, 21}";
target = up;
type = BottomGhost;
},
{
horizontal = 1;
place = "{1181, -20}";
target = down;
type = TopGhost;
},
{
place = "{238, 326}";
type = Stem;
}
);
layerId = "73AED77B-4167-4914-8C61-5564342D4816";
paths = (
{
closed = 1;
nodes = (
"484 825 LINE",
"484 357 LINE SMOOTH",
"484 229 OFFCURVE",
"450 200 OFFCURVE",
"371 200 CURVE SMOOTH",
"292 200 OFFCURVE",
"258 229 OFFCURVE",
"258 357 CURVE SMOOTH",
"258 825 LINE",
"38 825 LINE",
"38 291 LINE SMOOTH",
"38 87 OFFCURVE",
"154 -16 OFFCURVE",
"371 -16 CURVE SMOOTH",
"588 -16 OFFCURVE",
"704 87 OFFCURVE",
"704 291 CURVE SMOOTH",
"704 825 LINE"
);
},
{
closed = 1;
nodes = (
"238 987 LINE",
"302 899 LINE",
"564 1049 LINE",
"459 1181 LINE"
);
}
);
width = 742;
}
);
note = Uacute;
rightKerningGroup = space;
unicode = 00DA;
},
{
glyphname = Ucircumflex;
layers = (
{
hints = (
{
horizontal = 1;
place = "{-16, 216}";
type = Stem;
},
{
horizontal = 1;
place = "{825, -20}";
target = down;
type = TopGhost;
},
{
place = "{38, 220}";
type = Stem;
},
{
place = "{484, 220}";
type = Stem;
},
{
horizontal = 1;
place = "{899, 21}";
target = up;
type = BottomGhost;
},
{
horizontal = 1;
place = "{1174, -20}";
target = down;
type = TopGhost;
},
{
place = "{140, 462}";
type = Stem;
}
);
layerId = "73AED77B-4167-4914-8C61-5564342D4816";
paths = (
{
closed = 1;
nodes = (
"484 825 LINE",
"484 357 LINE SMOOTH",
"484 229 OFFCURVE",
"450 200 OFFCURVE",
"371 200 CURVE SMOOTH",
"292 200 OFFCURVE",
"258 229 OFFCURVE",
"258 357 CURVE SMOOTH",
"258 825 LINE",
"38 825 LINE",
"38 291 LINE SMOOTH",
"38 87 OFFCURVE",
"154 -16 OFFCURVE",
"371 -16 CURVE SMOOTH",
"588 -16 OFFCURVE",
"704 87 OFFCURVE",
"704 291 CURVE SMOOTH",
"704 825 LINE"
);
},
{
closed = 1;
nodes = (
"140 1004 LINE",
"218 899 LINE",
"371 1011 LINE",
"524 899 LINE",
"602 1004 LINE",
"371 1174 LINE"
);
}
);
width = 742;
}
);
note = Ucircumflex;
rightKerningGroup = space;
unicode = 00DB;
},
{
glyphname = Udieresis;
layers = (
{
hints = (
{
horizontal = 1;
place = "{-16, 216}";
type = Stem;
},
{
horizontal = 1;
place = "{825, -20}";
target = down;
type = TopGhost;
},
{
place = "{38, 220}";
type = Stem;
},
{
place = "{484, 220}";
type = Stem;
},
{
horizontal = 1;
place = "{905, 212}";
type = Stem;
},
{
place = "{147, 212}";
type = Stem;
},
{
place = "{383, 212}";
type = Stem;
}
);
layerId = "73AED77B-4167-4914-8C61-5564342D4816";
paths = (
{
closed = 1;
nodes = (
"484 825 LINE",
"484 357 LINE SMOOTH",
"484 229 OFFCURVE",
"450 200 OFFCURVE",
"371 200 CURVE SMOOTH",
"292 200 OFFCURVE",
"258 229 OFFCURVE",
"258 357 CURVE SMOOTH",
"258 825 LINE",
"38 825 LINE",
"38 291 LINE SMOOTH",
"38 87 OFFCURVE",
"154 -16 OFFCURVE",
"371 -16 CURVE SMOOTH",
"588 -16 OFFCURVE",
"704 87 OFFCURVE",
"704 291 CURVE SMOOTH",
"704 825 LINE"
);
},
{
closed = 1;
nodes = (
"194 1117 OFFCURVE",
"147 1070 OFFCURVE",
"147 1011 CURVE SMOOTH",
"147 952 OFFCURVE",
"194 905 OFFCURVE",
"253 905 CURVE SMOOTH",
"312 905 OFFCURVE",
"359 952 OFFCURVE",
"359 1011 CURVE SMOOTH",
"359 1070 OFFCURVE",
"312 1117 OFFCURVE",
"253 1117 CURVE SMOOTH"
);
},
{
closed = 1;
nodes = (
"430 1117 OFFCURVE",
"383 1070 OFFCURVE",
"383 1011 CURVE SMOOTH",
"383 952 OFFCURVE",
"430 905 OFFCURVE",
"489 905 CURVE SMOOTH",
"548 905 OFFCURVE",
"595 952 OFFCURVE",
"595 1011 CURVE SMOOTH",
"595 1070 OFFCURVE",
"548 1117 OFFCURVE",
"489 1117 CURVE SMOOTH"
);
}
);
width = 742;
}
);
note = Udieresis;
rightKerningGroup = space;
unicode = 00DC;
},
{
glyphname = Yacute;
layers = (
{
hints = (
{
horizontal = 1;
place = "{0, 21}";
target = up;
type = BottomGhost;
},
{
horizontal = 1;
place = "{825, -20}";
target = down;
type = TopGhost;
},
{
horizontal = 1;
place = "{899, 21}";
target = up;
type = BottomGhost;
},
{
horizontal = 1;
place = "{1181, -20}";
target = down;
type = TopGhost;
},
{
place = "{-20, 840}";
type = Stem;
},
{
place = "{290, 220}";
type = Stem;
},
{
place = "{257, 326}";
type = Stem;
}
);
layerId = "73AED77B-4167-4914-8C61-5564342D4816";
paths = (
{
closed = 1;
nodes = (
"-20 825 LINE",
"290 374 LINE",
"290 0 LINE",
"510 0 LINE",
"510 374 LINE",
"820 825 LINE",
"555 825 LINE",
"400 596 LINE",
"245 825 LINE"
);
},
{
closed = 1;
nodes = (
"257 987 LINE",
"321 899 LINE",
"583 1049 LINE",
"478 1181 LINE"
);
}
);
width = 800;
}
);
leftKerningGroup = Y;
note = Yacute;
rightKerningGroup = Y;
unicode = 00DD;
},
{
glyphname = Ydieresis;
layers = (
{
hints = (
{
horizontal = 1;
place = "{0, 21}";
target = up;
type = BottomGhost;
},
{
horizontal = 1;
place = "{825, -20}";
target = down;
type = TopGhost;
},
{
horizontal = 1;
place = "{905, 212}";
type = Stem;
},
{
place = "{-20, 840}";
type = Stem;
},
{
place = "{290, 220}";
type = Stem;
},
{
place = "{176, 212}";
type = Stem;
},
{
place = "{412, 212}";
type = Stem;
}
);
layerId = "73AED77B-4167-4914-8C61-5564342D4816";
paths = (
{
closed = 1;
nodes = (
"-20 825 LINE",
"290 374 LINE",
"290 0 LINE",
"510 0 LINE",
"510 374 LINE",
"820 825 LINE",
"555 825 LINE",
"400 596 LINE",
"245 825 LINE"
);
},
{
closed = 1;
nodes = (
"223 1117 OFFCURVE",
"176 1070 OFFCURVE",
"176 1011 CURVE SMOOTH",
"176 952 OFFCURVE",
"223 905 OFFCURVE",
"282 905 CURVE SMOOTH",
"341 905 OFFCURVE",
"388 952 OFFCURVE",
"388 1011 CURVE SMOOTH",
"388 1070 OFFCURVE",
"341 1117 OFFCURVE",
"282 1117 CURVE SMOOTH"
);
},
{
closed = 1;
nodes = (
"459 1117 OFFCURVE",
"412 1070 OFFCURVE",
"412 1011 CURVE SMOOTH",
"412 952 OFFCURVE",
"459 905 OFFCURVE",
"518 905 CURVE SMOOTH",
"577 905 OFFCURVE",
"624 952 OFFCURVE",
"624 1011 CURVE SMOOTH",
"624 1070 OFFCURVE",
"577 1117 OFFCURVE",
"518 1117 CURVE SMOOTH"
);
}
);
width = 800;
}
);
leftKerningGroup = Y;
note = Ydieresis;
rightKerningGroup = Y;
unicode = 0178;
},
{
glyphname = Thorn;
layers = (
{
hints = (
{
horizontal = 1;
place = "{0, 21}";
target = up;
type = BottomGhost;
},
{
horizontal = 1;
place = "{148, 174}";
type = Stem;
},
{
horizontal = 1;
place = "{504, 175}";
type = Stem;
},
{
horizontal = 1;
place = "{825, -20}";
target = down;
type = TopGhost;
},
{
place = "{49, 220}";
type = Stem;
},
{
place = "{424, 238}";
type = Stem;
}
);
layerId = "73AED77B-4167-4914-8C61-5564342D4816";
paths = (
{
closed = 1;
nodes = (
"49 825 LINE",
"49 0 LINE",
"269 0 LINE",
"269 148 LINE",
"375 148 LINE SMOOTH",
"535 148 OFFCURVE",
"662 242 OFFCURVE",
"662 419 CURVE SMOOTH",
"662 597 OFFCURVE",
"535 679 OFFCURVE",
"375 679 CURVE SMOOTH",
"269 679 LINE",
"269 825 LINE"
);
},
{
closed = 1;
nodes = (
"269 504 LINE",
"303 504 LINE SMOOTH",
"362 504 OFFCURVE",
"424 489 OFFCURVE",
"424 412 CURVE SMOOTH",
"424 336 OFFCURVE",
"362 322 OFFCURVE",
"303 322 CURVE SMOOTH",
"269 322 LINE"
);
}
);
width = 604;
}
);
note = Thorn;
rightKerningGroup = space;
unicode = 00DE;
},
{
glyphname = germandbls;
layers = (
{
hints = (
{
horizontal = 1;
place = "{-16, 189}";
type = Stem;
},
{
horizontal = 1;
place = "{314, 157}";
type = Stem;
},
{
horizontal = 1;
place = "{702, 173}";
type = Stem;
},
{
place = "{85, 207}";
type = Stem;
},
{
place = "{417, 195}";
type = Stem;
},
{
horizontal = 1;
place = "{378, 156}";
type = Stem;
},
{
place = "{425, 220}";
type = Stem;
}
);
layerId = "73AED77B-4167-4914-8C61-5564342D4816";
paths = (
{
closed = 1;
nodes = (
"85 471 LINE",
"19 471 LINE",
"19 314 LINE",
"85 314 LINE",
"85 0 LINE",
"292 0 LINE",
"292 622 LINE SMOOTH",
"292 676 OFFCURVE",
"314 702 OFFCURVE",
"345 702 CURVE SMOOTH",
"386 702 OFFCURVE",
"417 672 OFFCURVE",
"417 624 CURVE SMOOTH",
"417 576 OFFCURVE",
"394 534 OFFCURVE",
"347 534 CURVE",
"347 378 LINE",
"405 378 OFFCURVE",
"425 325 OFFCURVE",
"425 271 CURVE SMOOTH",
"425 219 OFFCURVE",
"395 173 OFFCURVE",
"347 173 CURVE",
"347 -16 LINE",
"524 -12 OFFCURVE",
"645 101 OFFCURVE",
"645 260 CURVE SMOOTH",
"645 360 OFFCURVE",
"596 422 OFFCURVE",
"519 460 CURVE",
"576 495 OFFCURVE",
"612 547 OFFCURVE",
"612 624 CURVE SMOOTH",
"612 766 OFFCURVE",
"506 875 OFFCURVE",
"345 875 CURVE SMOOTH",
"208 875 OFFCURVE",
"85 771 OFFCURVE",
"85 614 CURVE SMOOTH"
);
}
);
width = 660;
}
);
note = germandbls;
rightKerningGroup = space;
unicode = 00DF;
},
{
glyphname = agrave;
layers = (
{
hints = (
{
horizontal = 1;
place = "{-16, 176}";
type = Stem;
},
{
horizontal = 1;
place = "{512, -20}";
target = down;
type = TopGhost;
},
{
horizontal = 1;
place = "{588, 21}";
target = up;
type = BottomGhost;
},
{
horizontal = 1;
place = "{870, -20}";
target = down;
type = TopGhost;
},
{
place = "{14, 220}";
type = Stem;
},
{
place = "{423, 208}";
type = Stem;
},
{
horizontal = 1;
place = "{0, 21}";
target = up;
type = BottomGhost;
},
{
horizontal = 1;
place = "{352, 176}";
type = Stem;
},
{
place = "{139, 326}";
type = Stem;
}
);
layerId = "73AED77B-4167-4914-8C61-5564342D4816";
paths = (
{
closed = 1;
nodes = (
"14 108 OFFCURVE",
"116 -16 OFFCURVE",
"267 -16 CURVE SMOOTH",
"329 -16 OFFCURVE",
"383 9 OFFCURVE",
"423 40 CURVE",
"423 0 LINE",
"631 0 LINE",
"631 512 LINE",
"423 512 LINE",
"423 479 LINE",
"381 511 OFFCURVE",
"329 528 OFFCURVE",
"267 528 CURVE SMOOTH",
"116 528 OFFCURVE",
"14 404 OFFCURVE",
"14 256 CURVE SMOOTH"
);
},
{
closed = 1;
nodes = (
"234 312 OFFCURVE",
"277 352 OFFCURVE",
"331 352 CURVE SMOOTH",
"383 352 OFFCURVE",
"427 312 OFFCURVE",
"427 256 CURVE SMOOTH",
"427 201 OFFCURVE",
"387 160 OFFCURVE",
"331 160 CURVE SMOOTH",
"271 160 OFFCURVE",
"234 201 OFFCURVE",
"234 256 CURVE SMOOTH"
);
},
{
closed = 1;
nodes = (
"139 738 LINE",
"401 588 LINE",
"465 676 LINE",
"244 870 LINE"
);
}
);
width = 678;
}
);
leftKerningGroup = a;
note = agrave;
rightKerningGroup = a;
unicode = 00E0;
},
{
glyphname = aacute;
layers = (
{
hints = (
{
horizontal = 1;
place = "{-16, 176}";
type = Stem;
},
{
horizontal = 1;
place = "{512, -20}";
target = down;
type = TopGhost;
},
{
horizontal = 1;
place = "{587, 21}";
target = up;
type = BottomGhost;
},
{
horizontal = 1;
place = "{869, -20}";
target = down;
type = TopGhost;
},
{
place = "{14, 220}";
type = Stem;
},
{
place = "{423, 208}";
type = Stem;
},
{
horizontal = 1;
place = "{0, 21}";
target = up;
type = BottomGhost;
},
{
horizontal = 1;
place = "{352, 176}";
type = Stem;
},
{
place = "{179, 326}";
type = Stem;
}
);
layerId = "73AED77B-4167-4914-8C61-5564342D4816";
paths = (
{
closed = 1;
nodes = (
"14 108 OFFCURVE",
"116 -16 OFFCURVE",
"267 -16 CURVE SMOOTH",
"329 -16 OFFCURVE",
"383 9 OFFCURVE",
"423 40 CURVE",
"423 0 LINE",
"631 0 LINE",
"631 512 LINE",
"423 512 LINE",
"423 479 LINE",
"381 511 OFFCURVE",
"329 528 OFFCURVE",
"267 528 CURVE SMOOTH",
"116 528 OFFCURVE",
"14 404 OFFCURVE",
"14 256 CURVE SMOOTH"
);
},
{
closed = 1;
nodes = (
"234 312 OFFCURVE",
"277 352 OFFCURVE",
"331 352 CURVE SMOOTH",
"383 352 OFFCURVE",
"427 312 OFFCURVE",
"427 256 CURVE SMOOTH",
"427 201 OFFCURVE",
"387 160 OFFCURVE",
"331 160 CURVE SMOOTH",
"271 160 OFFCURVE",
"234 201 OFFCURVE",
"234 256 CURVE SMOOTH"
);
},
{
closed = 1;
nodes = (
"179 675 LINE",
"243 587 LINE",
"505 737 LINE",
"400 869 LINE"
);
}
);
width = 678;
}
);
leftKerningGroup = a;
note = aacute;
rightKerningGroup = a;
unicode = 00E1;
},
{
glyphname = acircumflex;
layers = (
{
hints = (
{
horizontal = 1;
place = "{-16, 176}";
type = Stem;
},
{
horizontal = 1;
place = "{512, -20}";
target = down;
type = TopGhost;
},
{
horizontal = 1;
place = "{587, 21}";
target = up;
type = BottomGhost;
},
{
horizontal = 1;
place = "{862, -20}";
target = down;
type = TopGhost;
},
{
place = "{14, 220}";
type = Stem;
},
{
place = "{423, 208}";
type = Stem;
},
{
horizontal = 1;
place = "{0, 21}";
target = up;
type = BottomGhost;
},
{
horizontal = 1;
place = "{352, 176}";
type = Stem;
},
{
place = "{91, 462}";
type = Stem;
}
);
layerId = "73AED77B-4167-4914-8C61-5564342D4816";
paths = (
{
closed = 1;
nodes = (
"14 108 OFFCURVE",
"116 -16 OFFCURVE",
"267 -16 CURVE SMOOTH",
"329 -16 OFFCURVE",
"383 9 OFFCURVE",
"423 40 CURVE",
"423 0 LINE",
"631 0 LINE",
"631 512 LINE",
"423 512 LINE",
"423 479 LINE",
"381 511 OFFCURVE",
"329 528 OFFCURVE",
"267 528 CURVE SMOOTH",
"116 528 OFFCURVE",
"14 404 OFFCURVE",
"14 256 CURVE SMOOTH"
);
},
{
closed = 1;
nodes = (
"234 312 OFFCURVE",
"277 352 OFFCURVE",
"331 352 CURVE SMOOTH",
"383 352 OFFCURVE",
"427 312 OFFCURVE",
"427 256 CURVE SMOOTH",
"427 201 OFFCURVE",
"387 160 OFFCURVE",
"331 160 CURVE SMOOTH",
"271 160 OFFCURVE",
"234 201 OFFCURVE",
"234 256 CURVE SMOOTH"
);
},
{
closed = 1;
nodes = (
"91 692 LINE",
"169 587 LINE",
"322 699 LINE",
"475 587 LINE",
"553 692 LINE",
"322 862 LINE"
);
}
);
width = 678;
}
);
leftKerningGroup = a;
note = acircumflex;
rightKerningGroup = a;
unicode = 00E2;
},
{
glyphname = atilde;
layers = (
{
hints = (
{
horizontal = 1;
place = "{-16, 176}";
type = Stem;
},
{
horizontal = 1;
place = "{512, -20}";
target = down;
type = TopGhost;
},
{
horizontal = 1;
place = "{691, 164}";
type = Stem;
},
{
place = "{14, 220}";
type = Stem;
},
{
place = "{423, 208}";
type = Stem;
},
{
horizontal = 1;
place = "{0, 21}";
target = up;
type = BottomGhost;
},
{
horizontal = 1;
place = "{352, 176}";
type = Stem;
},
{
place = "{24, 596}";
type = Stem;
}
);
layerId = "73AED77B-4167-4914-8C61-5564342D4816";
paths = (
{
closed = 1;
nodes = (
"14 108 OFFCURVE",
"116 -16 OFFCURVE",
"267 -16 CURVE SMOOTH",
"329 -16 OFFCURVE",
"383 9 OFFCURVE",
"423 40 CURVE",
"423 0 LINE",
"631 0 LINE",
"631 512 LINE",
"423 512 LINE",
"423 479 LINE",
"381 511 OFFCURVE",
"329 528 OFFCURVE",
"267 528 CURVE SMOOTH",
"116 528 OFFCURVE",
"14 404 OFFCURVE",
"14 256 CURVE SMOOTH"
);
},
{
closed = 1;
nodes = (
"234 312 OFFCURVE",
"277 352 OFFCURVE",
"331 352 CURVE SMOOTH",
"383 352 OFFCURVE",
"427 312 OFFCURVE",
"427 256 CURVE SMOOTH",
"427 201 OFFCURVE",
"387 160 OFFCURVE",
"331 160 CURVE SMOOTH",
"271 160 OFFCURVE",
"234 201 OFFCURVE",
"234 256 CURVE SMOOTH"
);
},
{
closed = 1;
nodes = (
"512 846 LINE",
"512 846 OFFCURVE",
"493 768 OFFCURVE",
"435 768 CURVE SMOOTH",
"410 768 OFFCURVE",
"387 786 OFFCURVE",
"366 799 CURVE SMOOTH",
"326 825 OFFCURVE",
"281 855 OFFCURVE",
"209 855 CURVE SMOOTH",
"94 855 OFFCURVE",
"26 714 OFFCURVE",
"24 708 CURVE",
"132 613 LINE",
"132 613 OFFCURVE",
"151 691 OFFCURVE",
"209 691 CURVE SMOOTH",
"234 691 OFFCURVE",
"257 673 OFFCURVE",
"278 660 CURVE SMOOTH",
"318 634 OFFCURVE",
"363 604 OFFCURVE",
"435 604 CURVE SMOOTH",
"550 604 OFFCURVE",
"618 744 OFFCURVE",
"620 751 CURVE"
);
}
);
width = 678;
}
);
leftKerningGroup = a;
note = atilde;
rightKerningGroup = a;
unicode = 00E3;
},
{
glyphname = adieresis;
layers = (
{
hints = (
{
horizontal = 1;
place = "{-16, 176}";
type = Stem;
},
{
horizontal = 1;
place = "{512, -20}";
target = down;
type = TopGhost;
},
{
horizontal = 1;
place = "{593, 212}";
type = Stem;
},
{
place = "{14, 220}";
type = Stem;
},
{
place = "{423, 208}";
type = Stem;
},
{
horizontal = 1;
place = "{0, 21}";
target = up;
type = BottomGhost;
},
{
horizontal = 1;
place = "{352, 176}";
type = Stem;
},
{
place = "{98, 212}";
type = Stem;
},
{
place = "{334, 212}";
type = Stem;
}
);
layerId = "73AED77B-4167-4914-8C61-5564342D4816";
paths = (
{
closed = 1;
nodes = (
"14 108 OFFCURVE",
"116 -16 OFFCURVE",
"267 -16 CURVE SMOOTH",
"329 -16 OFFCURVE",
"383 9 OFFCURVE",
"423 40 CURVE",
"423 0 LINE",
"631 0 LINE",
"631 512 LINE",
"423 512 LINE",
"423 479 LINE",
"381 511 OFFCURVE",
"329 528 OFFCURVE",
"267 528 CURVE SMOOTH",
"116 528 OFFCURVE",
"14 404 OFFCURVE",
"14 256 CURVE SMOOTH"
);
},
{
closed = 1;
nodes = (
"234 312 OFFCURVE",
"277 352 OFFCURVE",
"331 352 CURVE SMOOTH",
"383 352 OFFCURVE",
"427 312 OFFCURVE",
"427 256 CURVE SMOOTH",
"427 201 OFFCURVE",
"387 160 OFFCURVE",
"331 160 CURVE SMOOTH",
"271 160 OFFCURVE",
"234 201 OFFCURVE",
"234 256 CURVE SMOOTH"
);
},
{
closed = 1;
nodes = (
"145 805 OFFCURVE",
"98 758 OFFCURVE",
"98 699 CURVE SMOOTH",
"98 640 OFFCURVE",
"145 593 OFFCURVE",
"204 593 CURVE SMOOTH",
"263 593 OFFCURVE",
"310 640 OFFCURVE",
"310 699 CURVE SMOOTH",
"310 758 OFFCURVE",
"263 805 OFFCURVE",
"204 805 CURVE SMOOTH"
);
},
{
closed = 1;
nodes = (
"381 805 OFFCURVE",
"334 758 OFFCURVE",
"334 699 CURVE SMOOTH",
"334 640 OFFCURVE",
"381 593 OFFCURVE",
"440 593 CURVE SMOOTH",
"499 593 OFFCURVE",
"546 640 OFFCURVE",
"546 699 CURVE SMOOTH",
"546 758 OFFCURVE",
"499 805 OFFCURVE",
"440 805 CURVE SMOOTH"
);
}
);
width = 678;
}
);
leftKerningGroup = a;
note = adieresis;
rightKerningGroup = a;
unicode = 00E4;
},
{
glyphname = aring;
layers = (
{
hints = (
{
horizontal = 1;
place = "{-16, 176}";
type = Stem;
},
{
horizontal = 1;
place = "{512, -20}";
target = down;
type = TopGhost;
},
{
horizontal = 1;
place = "{580, 91}";
type = Stem;
},
{
horizontal = 1;
place = "{795, 91}";
type = Stem;
},
{
place = "{14, 220}";
type = Stem;
},
{
place = "{423, 208}";
type = Stem;
},
{
horizontal = 1;
place = "{0, 21}";
target = up;
type = BottomGhost;
},
{
horizontal = 1;
place = "{352, 176}";
type = Stem;
},
{
place = "{148, 115}";
type = Stem;
},
{
place = "{381, 115}";
type = Stem;
}
);
layerId = "73AED77B-4167-4914-8C61-5564342D4816";
paths = (
{
closed = 1;
nodes = (
"14 108 OFFCURVE",
"116 -16 OFFCURVE",
"267 -16 CURVE SMOOTH",
"329 -16 OFFCURVE",
"383 9 OFFCURVE",
"423 40 CURVE",
"423 0 LINE",
"631 0 LINE",
"631 512 LINE",
"423 512 LINE",
"423 479 LINE",
"381 511 OFFCURVE",
"329 528 OFFCURVE",
"267 528 CURVE SMOOTH",
"116 528 OFFCURVE",
"14 404 OFFCURVE",
"14 256 CURVE SMOOTH"
);
},
{
closed = 1;
nodes = (
"234 312 OFFCURVE",
"277 352 OFFCURVE",
"331 352 CURVE SMOOTH",
"383 352 OFFCURVE",
"427 312 OFFCURVE",
"427 256 CURVE SMOOTH",
"427 201 OFFCURVE",
"387 160 OFFCURVE",
"331 160 CURVE SMOOTH",
"271 160 OFFCURVE",
"234 201 OFFCURVE",
"234 256 CURVE SMOOTH"
);
},
{
closed = 1;
nodes = (
"148 643 OFFCURVE",
"225 580 OFFCURVE",
"322 580 CURVE SMOOTH",
"419 580 OFFCURVE",
"496 643 OFFCURVE",
"496 733 CURVE SMOOTH",
"496 823 OFFCURVE",
"419 886 OFFCURVE",
"322 886 CURVE SMOOTH",
"225 886 OFFCURVE",
"148 823 OFFCURVE",
"148 733 CURVE SMOOTH"
);
},
{
closed = 1;
nodes = (
"263 767 OFFCURVE",
"291 795 OFFCURVE",
"322 795 CURVE SMOOTH",
"353 795 OFFCURVE",
"381 767 OFFCURVE",
"381 733 CURVE SMOOTH",
"381 699 OFFCURVE",
"353 671 OFFCURVE",
"322 671 CURVE SMOOTH",
"291 671 OFFCURVE",
"263 699 OFFCURVE",
"263 733 CURVE SMOOTH"
);
}
);
width = 678;
}
);
leftKerningGroup = a;
note = aring;
rightKerningGroup = a;
unicode = 00E5;
},
{
glyphname = ae;
layers = (
{
hints = (
{
horizontal = 1;
place = "{-16, 123}";
type = Stem;
},
{
horizontal = 1;
place = "{227, 108}";
type = Stem;
},
{
horizontal = 1;
place = "{390, 138}";
type = Stem;
},
{
place = "{40, 206}";
type = Stem;
},
{
place = "{372, 210}";
type = Stem;
},
{
place = "{728, 201}";
type = Stem;
},
{
horizontal = 1;
place = "{190, 108}";
type = Stem;
}
);
layerId = "73AED77B-4167-4914-8C61-5564342D4816";
paths = (
{
closed = 1;
nodes = (
"40 41 OFFCURVE",
"122 -16 OFFCURVE",
"227 -16 CURVE SMOOTH",
"295 -16 OFFCURVE",
"359 6 OFFCURVE",
"410 26 CURVE SMOOTH",
"464 47 LINE",
"515 9 OFFCURVE",
"585 -16 OFFCURVE",
"651 -16 CURVE SMOOTH",
"767 -16 OFFCURVE",
"863 19 OFFCURVE",
"923 120 CURVE",
"774 194 LINE",
"731 153 OFFCURVE",
"716 148 OFFCURVE",
"666 148 CURVE SMOOTH",
"641 148 OFFCURVE",
"582 161 OFFCURVE",
"582 227 CURVE",
"929 227 LINE",
"930 239 OFFCURVE",
"931 251 OFFCURVE",
"931 262 CURVE SMOOTH",
"931 436 OFFCURVE",
"812 528 OFFCURVE",
"653 528 CURVE SMOOTH",
"595 528 OFFCURVE",
"534 512 OFFCURVE",
"484 484 CURVE",
"421 519 OFFCURVE",
"339 528 OFFCURVE",
"274 528 CURVE SMOOTH",
"148 528 OFFCURVE",
"74 484 OFFCURVE",
"74 484 CURVE",
"137 342 LINE",
"137 342 OFFCURVE",
"194 364 OFFCURVE",
"274 364 CURVE SMOOTH",
"312 364 OFFCURVE",
"372 339 OFFCURVE",
"372 297 CURVE SMOOTH",
"372 267 LINE",
"352 276 OFFCURVE",
"306 298 OFFCURVE",
"219 298 CURVE SMOOTH",
"103 298 OFFCURVE",
"40 224 OFFCURVE",
"40 133 CURVE SMOOTH"
);
},
{
closed = 1;
nodes = (
"246 177 OFFCURVE",
"276 190 OFFCURVE",
"313 190 CURVE SMOOTH",
"349 190 OFFCURVE",
"379 170 OFFCURVE",
"379 148 CURVE SMOOTH",
"379 126 OFFCURVE",
"349 107 OFFCURVE",
"313 107 CURVE SMOOTH",
"276 107 OFFCURVE",
"246 125 OFFCURVE",
"246 151 CURVE SMOOTH"
);
},
{
closed = 1;
nodes = (
"588 335 LINE",
"589 366 OFFCURVE",
"610 390 OFFCURVE",
"659 390 CURVE SMOOTH",
"697 390 OFFCURVE",
"721 375 OFFCURVE",
"728 335 CURVE"
);
}
);
width = 945;
}
);
note = ae;
rightKerningGroup = space;
unicode = 00E6;
},
{
glyphname = ccedilla;
layers = (
{
hints = (
{
horizontal = 1;
place = "{-294, 103}";
type = Stem;
},
{
horizontal = 1;
place = "{-123, 65}";
type = Stem;
},
{
horizontal = 1;
place = "{-16, 169}";
type = Stem;
},
{
horizontal = 1;
place = "{359, 169}";
type = Stem;
},
{
place = "{15, 220}";
type = Stem;
},
{
place = "{277, 117}";
type = Stem;
}
);
layerId = "73AED77B-4167-4914-8C61-5564342D4816";
paths = (
{
closed = 1;
nodes = (
"161 -119 LINE",
"173 -129 LINE",
"173 -129 OFFCURVE",
"184 -123 OFFCURVE",
"218 -123 CURVE SMOOTH",
"242 -123 OFFCURVE",
"277 -133 OFFCURVE",
"277 -160 CURVE SMOOTH",
"277 -172 OFFCURVE",
"271 -191 OFFCURVE",
"236 -191 CURVE SMOOTH",
"194 -191 OFFCURVE",
"159 -147 OFFCURVE",
"159 -147 CURVE",
"77 -209 LINE",
"77 -209 OFFCURVE",
"143 -294 OFFCURVE",
"236 -294 CURVE SMOOTH",
"354 -294 OFFCURVE",
"394 -225 OFFCURVE",
"394 -160 CURVE SMOOTH",
"394 -94 OFFCURVE",
"327 -58 OFFCURVE",
"268 -58 CURVE",
"282 -15 LINE",
"288 -16 OFFCURVE",
"294 -16 OFFCURVE",
"301 -16 CURVE SMOOTH",
"414 -16 OFFCURVE",
"472 30 OFFCURVE",
"472 30 CURVE",
"404 170 LINE",
"385 158 OFFCURVE",
"367 153 OFFCURVE",
"332 153 CURVE SMOOTH",
"280 153 OFFCURVE",
"235 201 OFFCURVE",
"235 256 CURVE SMOOTH",
"235 311 OFFCURVE",
"280 359 OFFCURVE",
"332 359 CURVE SMOOTH",
"367 359 OFFCURVE",
"385 354 OFFCURVE",
"404 342 CURVE",
"472 482 LINE",
"472 482 OFFCURVE",
"414 528 OFFCURVE",
"301 528 CURVE SMOOTH",
"153 528 OFFCURVE",
"15 405 OFFCURVE",
"15 256 CURVE SMOOTH",
"15 141 OFFCURVE",
"96 42 OFFCURVE",
"201 2 CURVE"
);
}
);
width = 471;
}
);
leftKerningGroup = c;
note = ccedilla;
rightKerningGroup = c;
unicode = 00E7;
},
{
glyphname = egrave;
layers = (
{
hints = (
{
horizontal = 1;
place = "{-16, 164}";
type = Stem;
},
{
horizontal = 1;
place = "{227, 108}";
type = Stem;
},
{
horizontal = 1;
place = "{390, 138}";
type = Stem;
},
{
place = "{14, 215}";
type = Stem;
},
{
place = "{375, 201}";
type = Stem;
},
{
horizontal = 1;
place = "{587, 21}";
target = up;
type = BottomGhost;
},
{
horizontal = 1;
place = "{869, -20}";
target = down;
type = TopGhost;
},
{
place = "{117, 326}";
type = Stem;
}
);
layerId = "73AED77B-4167-4914-8C61-5564342D4816";
paths = (
{
closed = 1;
nodes = (
"14 110 OFFCURVE",
"142 -16 OFFCURVE",
"298 -16 CURVE SMOOTH",
"414 -16 OFFCURVE",
"510 19 OFFCURVE",
"570 120 CURVE",
"421 194 LINE",
"378 153 OFFCURVE",
"363 148 OFFCURVE",
"313 148 CURVE SMOOTH",
"288 148 OFFCURVE",
"229 161 OFFCURVE",
"229 227 CURVE",
"576 227 LINE",
"577 239 OFFCURVE",
"578 251 OFFCURVE",
"578 262 CURVE SMOOTH",
"578 436 OFFCURVE",
"459 528 OFFCURVE",
"300 528 CURVE SMOOTH",
"143 528 OFFCURVE",
"14 407 OFFCURVE",
"14 257 CURVE SMOOTH"
);
},
{
closed = 1;
nodes = (
"235 335 LINE",
"236 366 OFFCURVE",
"257 390 OFFCURVE",
"306 390 CURVE SMOOTH",
"344 390 OFFCURVE",
"368 375 OFFCURVE",
"375 335 CURVE"
);
},
{
closed = 1;
nodes = (
"117 737 LINE",
"379 587 LINE",
"443 675 LINE",
"222 869 LINE"
);
}
);
width = 592;
}
);
leftKerningGroup = c;
note = egrave;
rightKerningGroup = c;
unicode = 00E8;
},
{
glyphname = eacute;
layers = (
{
hints = (
{
horizontal = 1;
place = "{-16, 164}";
type = Stem;
},
{
horizontal = 1;
place = "{227, 108}";
type = Stem;
},
{
horizontal = 1;
place = "{390, 138}";
type = Stem;
},
{
place = "{14, 215}";
type = Stem;
},
{
place = "{375, 201}";
type = Stem;
},
{
horizontal = 1;
place = "{587, 21}";
target = up;
type = BottomGhost;
},
{
horizontal = 1;
place = "{869, -20}";
target = down;
type = TopGhost;
},
{
place = "{157, 326}";
type = Stem;
}
);
layerId = "73AED77B-4167-4914-8C61-5564342D4816";
paths = (
{
closed = 1;
nodes = (
"14 110 OFFCURVE",
"142 -16 OFFCURVE",
"298 -16 CURVE SMOOTH",
"414 -16 OFFCURVE",
"510 19 OFFCURVE",
"570 120 CURVE",
"421 194 LINE",
"378 153 OFFCURVE",
"363 148 OFFCURVE",
"313 148 CURVE SMOOTH",
"288 148 OFFCURVE",
"229 161 OFFCURVE",
"229 227 CURVE",
"576 227 LINE",
"577 239 OFFCURVE",
"578 251 OFFCURVE",
"578 262 CURVE SMOOTH",
"578 436 OFFCURVE",
"459 528 OFFCURVE",
"300 528 CURVE SMOOTH",
"143 528 OFFCURVE",
"14 407 OFFCURVE",
"14 257 CURVE SMOOTH"
);
},
{
closed = 1;
nodes = (
"235 335 LINE",
"236 366 OFFCURVE",
"257 390 OFFCURVE",
"306 390 CURVE SMOOTH",
"344 390 OFFCURVE",
"368 375 OFFCURVE",
"375 335 CURVE"
);
},
{
closed = 1;
nodes = (
"157 675 LINE",
"221 587 LINE",
"483 737 LINE",
"378 869 LINE"
);
}
);
width = 592;
}
);
leftKerningGroup = c;
note = eacute;
rightKerningGroup = c;
unicode = 00E9;
},
{
glyphname = ecircumflex;
layers = (
{
hints = (
{
horizontal = 1;
place = "{-16, 164}";
type = Stem;
},
{
horizontal = 1;
place = "{227, 108}";
type = Stem;
},
{
horizontal = 1;
place = "{390, 138}";
type = Stem;
},
{
place = "{14, 215}";
type = Stem;
},
{
place = "{375, 201}";
type = Stem;
},
{
horizontal = 1;
place = "{587, 21}";
target = up;
type = BottomGhost;
},
{
horizontal = 1;
place = "{862, -20}";
target = down;
type = TopGhost;
},
{
place = "{69, 462}";
type = Stem;
}
);
layerId = "73AED77B-4167-4914-8C61-5564342D4816";
paths = (
{
closed = 1;
nodes = (
"14 110 OFFCURVE",
"142 -16 OFFCURVE",
"298 -16 CURVE SMOOTH",
"414 -16 OFFCURVE",
"510 19 OFFCURVE",
"570 120 CURVE",
"421 194 LINE",
"378 153 OFFCURVE",
"363 148 OFFCURVE",
"313 148 CURVE SMOOTH",
"288 148 OFFCURVE",
"229 161 OFFCURVE",
"229 227 CURVE",
"576 227 LINE",
"577 239 OFFCURVE",
"578 251 OFFCURVE",
"578 262 CURVE SMOOTH",
"578 436 OFFCURVE",
"459 528 OFFCURVE",
"300 528 CURVE SMOOTH",
"143 528 OFFCURVE",
"14 407 OFFCURVE",
"14 257 CURVE SMOOTH"
);
},
{
closed = 1;
nodes = (
"235 335 LINE",
"236 366 OFFCURVE",
"257 390 OFFCURVE",
"306 390 CURVE SMOOTH",
"344 390 OFFCURVE",
"368 375 OFFCURVE",
"375 335 CURVE"
);
},
{
closed = 1;
nodes = (
"69 692 LINE",
"147 587 LINE",
"300 699 LINE",
"453 587 LINE",
"531 692 LINE",
"300 862 LINE"
);
}
);
width = 592;
}
);
leftKerningGroup = c;
note = ecircumflex;
rightKerningGroup = c;
unicode = 00EA;
},
{
glyphname = edieresis;
layers = (
{
hints = (
{
horizontal = 1;
place = "{-16, 164}";
type = Stem;
},
{
horizontal = 1;
place = "{227, 108}";
type = Stem;
},
{
horizontal = 1;
place = "{390, 138}";
type = Stem;
},
{
place = "{14, 215}";
type = Stem;
},
{
place = "{375, 201}";
type = Stem;
},
{
horizontal = 1;
place = "{607, 212}";
type = Stem;
},
{
place = "{76, 212}";
type = Stem;
},
{
place = "{312, 212}";
type = Stem;
}
);
layerId = "73AED77B-4167-4914-8C61-5564342D4816";
paths = (
{
closed = 1;
nodes = (
"14 110 OFFCURVE",
"142 -16 OFFCURVE",
"298 -16 CURVE SMOOTH",
"414 -16 OFFCURVE",
"510 19 OFFCURVE",
"570 120 CURVE",
"421 194 LINE",
"378 153 OFFCURVE",
"363 148 OFFCURVE",
"313 148 CURVE SMOOTH",
"288 148 OFFCURVE",
"229 161 OFFCURVE",
"229 227 CURVE",
"576 227 LINE",
"577 239 OFFCURVE",
"578 251 OFFCURVE",
"578 262 CURVE SMOOTH",
"578 436 OFFCURVE",
"459 528 OFFCURVE",
"300 528 CURVE SMOOTH",
"143 528 OFFCURVE",
"14 407 OFFCURVE",
"14 257 CURVE SMOOTH"
);
},
{
closed = 1;
nodes = (
"235 335 LINE",
"236 366 OFFCURVE",
"257 390 OFFCURVE",
"306 390 CURVE SMOOTH",
"344 390 OFFCURVE",
"368 375 OFFCURVE",
"375 335 CURVE"
);
},
{
closed = 1;
nodes = (
"123 819 OFFCURVE",
"76 772 OFFCURVE",
"76 713 CURVE SMOOTH",
"76 654 OFFCURVE",
"123 607 OFFCURVE",
"182 607 CURVE SMOOTH",
"241 607 OFFCURVE",
"288 654 OFFCURVE",
"288 713 CURVE SMOOTH",
"288 772 OFFCURVE",
"241 819 OFFCURVE",
"182 819 CURVE SMOOTH"
);
},
{
closed = 1;
nodes = (
"359 819 OFFCURVE",
"312 772 OFFCURVE",
"312 713 CURVE SMOOTH",
"312 654 OFFCURVE",
"359 607 OFFCURVE",
"418 607 CURVE SMOOTH",
"477 607 OFFCURVE",
"524 654 OFFCURVE",
"524 713 CURVE SMOOTH",
"524 772 OFFCURVE",
"477 819 OFFCURVE",
"418 819 CURVE SMOOTH"
);
}
);
width = 592;
}
);
leftKerningGroup = c;
note = edieresis;
rightKerningGroup = c;
unicode = 00EB;
},
{
glyphname = igrave;
layers = (
{
hints = (
{
horizontal = 1;
place = "{0, 21}";
target = up;
type = BottomGhost;
},
{
horizontal = 1;
place = "{512, -20}";
target = down;
type = TopGhost;
},
{
place = "{49, 208}";
type = Stem;
},
{
horizontal = 1;
place = "{587, 21}";
target = up;
type = BottomGhost;
},
{
horizontal = 1;
place = "{869, -20}";
target = down;
type = TopGhost;
},
{
place = "{-109, 326}";
type = Stem;
}
);
layerId = "73AED77B-4167-4914-8C61-5564342D4816";
paths = (
{
closed = 1;
nodes = (
"49 512 LINE",
"49 0 LINE",
"257 0 LINE",
"257 512 LINE"
);
},
{
closed = 1;
nodes = (
"-109 737 LINE",
"153 587 LINE",
"217 675 LINE",
"-4 869 LINE"
);
}
);
width = 306;
}
);
leftKerningGroup = I;
note = igrave;
rightKerningGroup = space;
unicode = 00EC;
},
{
glyphname = iacute;
layers = (
{
hints = (
{
horizontal = 1;
place = "{0, 21}";
target = up;
type = BottomGhost;
},
{
horizontal = 1;
place = "{512, -20}";
target = down;
type = TopGhost;
},
{
place = "{49, 208}";
type = Stem;
},
{
horizontal = 1;
place = "{587, 21}";
target = up;
type = BottomGhost;
},
{
horizontal = 1;
place = "{869, -20}";
target = down;
type = TopGhost;
},
{
place = "{89, 326}";
type = Stem;
}
);
layerId = "73AED77B-4167-4914-8C61-5564342D4816";
paths = (
{
closed = 1;
nodes = (
"49 512 LINE",
"49 0 LINE",
"257 0 LINE",
"257 512 LINE"
);
},
{
closed = 1;
nodes = (
"89 675 LINE",
"153 587 LINE",
"415 737 LINE",
"310 869 LINE"
);
}
);
width = 306;
}
);
leftKerningGroup = I;
note = iacute;
rightKerningGroup = space;
unicode = 00ED;
},
{
glyphname = icircumflex;
layers = (
{
hints = (
{
horizontal = 1;
place = "{0, 21}";
target = up;
type = BottomGhost;
},
{
horizontal = 1;
place = "{512, -20}";
target = down;
type = TopGhost;
},
{
place = "{49, 208}";
type = Stem;
},
{
horizontal = 1;
place = "{587, 21}";
target = up;
type = BottomGhost;
},
{
horizontal = 1;
place = "{862, -20}";
target = down;
type = TopGhost;
},
{
place = "{-78, 462}";
type = Stem;
}
);
layerId = "73AED77B-4167-4914-8C61-5564342D4816";
paths = (
{
closed = 1;
nodes = (
"49 512 LINE",
"49 0 LINE",
"257 0 LINE",
"257 512 LINE"
);
},
{
closed = 1;
nodes = (
"-78 692 LINE",
"0 587 LINE",
"153 699 LINE",
"306 587 LINE",
"384 692 LINE",
"153 862 LINE"
);
}
);
width = 306;
}
);
leftKerningGroup = Icircumflex;
note = icircumflex;
rightKerningGroup = Icircumflex;
unicode = 00EE;
},
{
glyphname = idieresis;
layers = (
{
hints = (
{
horizontal = 1;
place = "{0, 21}";
target = up;
type = BottomGhost;
},
{
horizontal = 1;
place = "{512, -20}";
target = down;
type = TopGhost;
},
{
place = "{49, 208}";
type = Stem;
},
{
horizontal = 1;
place = "{606, 212}";
type = Stem;
},
{
place = "{-71, 212}";
type = Stem;
},
{
place = "{165, 212}";
type = Stem;
}
);
layerId = "73AED77B-4167-4914-8C61-5564342D4816";
paths = (
{
closed = 1;
nodes = (
"49 512 LINE",
"49 0 LINE",
"257 0 LINE",
"257 512 LINE"
);
},
{
closed = 1;
nodes = (
"-24 818 OFFCURVE",
"-71 771 OFFCURVE",
"-71 712 CURVE SMOOTH",
"-71 653 OFFCURVE",
"-24 606 OFFCURVE",
"35 606 CURVE SMOOTH",
"94 606 OFFCURVE",
"141 653 OFFCURVE",
"141 712 CURVE SMOOTH",
"141 771 OFFCURVE",
"94 818 OFFCURVE",
"35 818 CURVE SMOOTH"
);
},
{
closed = 1;
nodes = (
"212 818 OFFCURVE",
"165 771 OFFCURVE",
"165 712 CURVE SMOOTH",
"165 653 OFFCURVE",
"212 606 OFFCURVE",
"271 606 CURVE SMOOTH",
"330 606 OFFCURVE",
"377 653 OFFCURVE",
"377 712 CURVE SMOOTH",
"377 771 OFFCURVE",
"330 818 OFFCURVE",
"271 818 CURVE SMOOTH"
);
}
);
width = 306;
}
);
leftKerningGroup = Icircumflex;
note = idieresis;
rightKerningGroup = Icircumflex;
unicode = 00EF;
},
{
glyphname = eth;
layers = (
{
hints = (
{
horizontal = 1;
place = "{-16, 177}";
type = Stem;
},
{
horizontal = 1;
place = "{352, 184}";
type = Stem;
},
{
horizontal = 1;
place = "{875, -20}";
target = down;
type = TopGhost;
},
{
place = "{35, 221}";
type = Stem;
},
{
place = "{443, 221}";
type = Stem;
}
);
layerId = "73AED77B-4167-4914-8C61-5564342D4816";
paths = (
{
closed = 1;
nodes = (
"35 98 OFFCURVE",
"160 -16 OFFCURVE",
"351 -16 CURVE SMOOTH",
"533 -16 OFFCURVE",
"664 98 OFFCURVE",
"664 256 CURVE SMOOTH",
"664 501 OFFCURVE",
"520 648 OFFCURVE",
"387 738 CURVE",
"434 785 LINE",
"347 875 LINE",
"275 804 LINE",
"179 853 OFFCURVE",
"78 875 OFFCURVE",
"78 875 CURVE",
"30 701 LINE",
"30 701 OFFCURVE",
"80 691 OFFCURVE",
"136 665 CURVE",
"76 606 LINE",
"165 517 LINE",
"249 600 LINE",
"280 580 OFFCURVE",
"316 559 OFFCURVE",
"351 535 CURVE",
"351 535 OFFCURVE",
"343 536 OFFCURVE",
"335 536 CURVE SMOOTH",
"210 536 OFFCURVE",
"35 449 OFFCURVE",
"35 256 CURVE SMOOTH"
);
},
{
closed = 1;
nodes = (
"256 313 OFFCURVE",
"299 352 OFFCURVE",
"350 352 CURVE SMOOTH",
"400 352 OFFCURVE",
"443 313 OFFCURVE",
"443 256 CURVE SMOOTH",
"443 201 OFFCURVE",
"404 161 OFFCURVE",
"350 161 CURVE SMOOTH",
"293 161 OFFCURVE",
"256 201 OFFCURVE",
"256 256 CURVE SMOOTH"
);
}
);
width = 681;
}
);
note = eth;
rightKerningGroup = space;
unicode = 00F0;
},
{
glyphname = ntilde;
layers = (
{
hints = (
{
horizontal = 1;
place = "{0, 21}";
target = up;
type = BottomGhost;
},
{
horizontal = 1;
place = "{512, -20}";
target = down;
type = TopGhost;
},
{
horizontal = 1;
place = "{682, 164}";
type = Stem;
},
{
place = "{49, 208}";
type = Stem;
},
{
place = "{425, 208}";
type = Stem;
},
{
horizontal = 1;
place = "{367, 161}";
type = Stem;
},
{
place = "{43, 596}";
type = Stem;
}
);
layerId = "73AED77B-4167-4914-8C61-5564342D4816";
paths = (
{
closed = 1;
nodes = (
"49 512 LINE",
"49 0 LINE",
"257 0 LINE",
"257 278 LINE SMOOTH",
"257 324 OFFCURVE",
"298 367 OFFCURVE",
"349 367 CURVE SMOOTH",
"396 367 OFFCURVE",
"425 331 OFFCURVE",
"425 286 CURVE SMOOTH",
"425 0 LINE",
"633 0 LINE",
"633 342 LINE SMOOTH",
"633 489 OFFCURVE",
"486 528 OFFCURVE",
"403 528 CURVE SMOOTH",
"347 528 OFFCURVE",
"292 499 OFFCURVE",
"257 464 CURVE",
"257 512 LINE"
);
},
{
closed = 1;
nodes = (
"531 837 LINE",
"531 837 OFFCURVE",
"512 759 OFFCURVE",
"454 759 CURVE SMOOTH",
"429 759 OFFCURVE",
"406 777 OFFCURVE",
"385 790 CURVE SMOOTH",
"345 816 OFFCURVE",
"300 846 OFFCURVE",
"228 846 CURVE SMOOTH",
"113 846 OFFCURVE",
"45 705 OFFCURVE",
"43 699 CURVE",
"151 604 LINE",
"151 604 OFFCURVE",
"170 682 OFFCURVE",
"228 682 CURVE SMOOTH",
"253 682 OFFCURVE",
"276 664 OFFCURVE",
"297 651 CURVE SMOOTH",
"337 625 OFFCURVE",
"382 595 OFFCURVE",
"454 595 CURVE SMOOTH",
"569 595 OFFCURVE",
"637 735 OFFCURVE",
"639 742 CURVE"
);
}
);
width = 673;
}
);
leftKerningGroup = m;
note = ntilde;
rightKerningGroup = b;
unicode = 00F1;
},
{
glyphname = ograve;
layers = (
{
hints = (
{
horizontal = 1;
place = "{-16, 176}";
type = Stem;
},
{
horizontal = 1;
place = "{352, 176}";
type = Stem;
},
{
horizontal = 1;
place = "{587, 21}";
target = up;
type = BottomGhost;
},
{
horizontal = 1;
place = "{869, -20}";
target = down;
type = TopGhost;
},
{
place = "{14, 218}";
type = Stem;
},
{
place = "{420, 218}";
type = Stem;
},
{
horizontal = 1;
place = "{-16, 21}";
target = up;
type = BottomGhost;
},
{
place = "{143, 326}";
type = Stem;
}
);
layerId = "73AED77B-4167-4914-8C61-5564342D4816";
paths = (
{
closed = 1;
nodes = (
"14 96 OFFCURVE",
"150 -16 OFFCURVE",
"326 -16 CURVE SMOOTH",
"502 -16 OFFCURVE",
"638 96 OFFCURVE",
"638 256 CURVE SMOOTH",
"638 416 OFFCURVE",
"502 528 OFFCURVE",
"326 528 CURVE SMOOTH",
"150 528 OFFCURVE",
"14 416 OFFCURVE",
"14 256 CURVE SMOOTH"
);
},
{
closed = 1;
nodes = (
"232 313 OFFCURVE",
"275 352 OFFCURVE",
"326 352 CURVE SMOOTH",
"377 352 OFFCURVE",
"420 313 OFFCURVE",
"420 256 CURVE SMOOTH",
"420 199 OFFCURVE",
"377 160 OFFCURVE",
"326 160 CURVE SMOOTH",
"275 160 OFFCURVE",
"232 199 OFFCURVE",
"232 256 CURVE SMOOTH"
);
},
{
closed = 1;
nodes = (
"143 737 LINE",
"405 587 LINE",
"469 675 LINE",
"248 869 LINE"
);
}
);
width = 652;
}
);
leftKerningGroup = c;
note = ograve;
rightKerningGroup = c;
unicode = 00F2;
},
{
glyphname = oacute;
layers = (
{
hints = (
{
horizontal = 1;
place = "{-16, 176}";
type = Stem;
},
{
horizontal = 1;
place = "{352, 176}";
type = Stem;
},
{
horizontal = 1;
place = "{587, 21}";
target = up;
type = BottomGhost;
},
{
horizontal = 1;
place = "{869, -20}";
target = down;
type = TopGhost;
},
{
place = "{14, 218}";
type = Stem;
},
{
place = "{420, 218}";
type = Stem;
},
{
horizontal = 1;
place = "{-16, 21}";
target = up;
type = BottomGhost;
},
{
place = "{183, 326}";
type = Stem;
}
);
layerId = "73AED77B-4167-4914-8C61-5564342D4816";
paths = (
{
closed = 1;
nodes = (
"14 96 OFFCURVE",
"150 -16 OFFCURVE",
"326 -16 CURVE SMOOTH",
"502 -16 OFFCURVE",
"638 96 OFFCURVE",
"638 256 CURVE SMOOTH",
"638 416 OFFCURVE",
"502 528 OFFCURVE",
"326 528 CURVE SMOOTH",
"150 528 OFFCURVE",
"14 416 OFFCURVE",
"14 256 CURVE SMOOTH"
);
},
{
closed = 1;
nodes = (
"232 313 OFFCURVE",
"275 352 OFFCURVE",
"326 352 CURVE SMOOTH",
"377 352 OFFCURVE",
"420 313 OFFCURVE",
"420 256 CURVE SMOOTH",
"420 199 OFFCURVE",
"377 160 OFFCURVE",
"326 160 CURVE SMOOTH",
"275 160 OFFCURVE",
"232 199 OFFCURVE",
"232 256 CURVE SMOOTH"
);
},
{
closed = 1;
nodes = (
"183 675 LINE",
"247 587 LINE",
"509 737 LINE",
"404 869 LINE"
);
}
);
width = 652;
}
);
leftKerningGroup = c;
note = oacute;
rightKerningGroup = c;
unicode = 00F3;
},
{
glyphname = ocircumflex;
layers = (
{
hints = (
{
horizontal = 1;
place = "{-16, 176}";
type = Stem;
},
{
horizontal = 1;
place = "{352, 176}";
type = Stem;
},
{
horizontal = 1;
place = "{587, 21}";
target = up;
type = BottomGhost;
},
{
horizontal = 1;
place = "{862, -20}";
target = down;
type = TopGhost;
},
{
place = "{14, 218}";
type = Stem;
},
{
place = "{420, 218}";
type = Stem;
},
{
horizontal = 1;
place = "{-16, 21}";
target = up;
type = BottomGhost;
},
{
place = "{95, 462}";
type = Stem;
}
);
layerId = "73AED77B-4167-4914-8C61-5564342D4816";
paths = (
{
closed = 1;
nodes = (
"14 96 OFFCURVE",
"150 -16 OFFCURVE",
"326 -16 CURVE SMOOTH",
"502 -16 OFFCURVE",
"638 96 OFFCURVE",
"638 256 CURVE SMOOTH",
"638 416 OFFCURVE",
"502 528 OFFCURVE",
"326 528 CURVE SMOOTH",
"150 528 OFFCURVE",
"14 416 OFFCURVE",
"14 256 CURVE SMOOTH"
);
},
{
closed = 1;
nodes = (
"232 313 OFFCURVE",
"275 352 OFFCURVE",
"326 352 CURVE SMOOTH",
"377 352 OFFCURVE",
"420 313 OFFCURVE",
"420 256 CURVE SMOOTH",
"420 199 OFFCURVE",
"377 160 OFFCURVE",
"326 160 CURVE SMOOTH",
"275 160 OFFCURVE",
"232 199 OFFCURVE",
"232 256 CURVE SMOOTH"
);
},
{
closed = 1;
nodes = (
"95 692 LINE",
"173 587 LINE",
"326 699 LINE",
"479 587 LINE",
"557 692 LINE",
"326 862 LINE"
);
}
);
width = 652;
}
);
leftKerningGroup = c;
note = ocircumflex;
rightKerningGroup = c;
unicode = 00F4;
},
{
glyphname = otilde;
layers = (
{
hints = (
{
horizontal = 1;
place = "{-16, 176}";
type = Stem;
},
{
horizontal = 1;
place = "{352, 176}";
type = Stem;
},
{
horizontal = 1;
place = "{652, 164}";
type = Stem;
},
{
place = "{14, 218}";
type = Stem;
},
{
place = "{420, 218}";
type = Stem;
},
{
horizontal = 1;
place = "{-16, 21}";
target = up;
type = BottomGhost;
},
{
place = "{28, 596}";
type = Stem;
}
);
layerId = "73AED77B-4167-4914-8C61-5564342D4816";
paths = (
{
closed = 1;
nodes = (
"14 96 OFFCURVE",
"150 -16 OFFCURVE",
"326 -16 CURVE SMOOTH",
"502 -16 OFFCURVE",
"638 96 OFFCURVE",
"638 256 CURVE SMOOTH",
"638 416 OFFCURVE",
"502 528 OFFCURVE",
"326 528 CURVE SMOOTH",
"150 528 OFFCURVE",
"14 416 OFFCURVE",
"14 256 CURVE SMOOTH"
);
},
{
closed = 1;
nodes = (
"232 313 OFFCURVE",
"275 352 OFFCURVE",
"326 352 CURVE SMOOTH",
"377 352 OFFCURVE",
"420 313 OFFCURVE",
"420 256 CURVE SMOOTH",
"420 199 OFFCURVE",
"377 160 OFFCURVE",
"326 160 CURVE SMOOTH",
"275 160 OFFCURVE",
"232 199 OFFCURVE",
"232 256 CURVE SMOOTH"
);
},
{
closed = 1;
nodes = (
"516 807 LINE",
"516 807 OFFCURVE",
"497 729 OFFCURVE",
"439 729 CURVE SMOOTH",
"414 729 OFFCURVE",
"391 747 OFFCURVE",
"370 760 CURVE SMOOTH",
"330 786 OFFCURVE",
"285 816 OFFCURVE",
"213 816 CURVE SMOOTH",
"98 816 OFFCURVE",
"30 675 OFFCURVE",
"28 669 CURVE",
"136 574 LINE",
"136 574 OFFCURVE",
"155 652 OFFCURVE",
"213 652 CURVE SMOOTH",
"238 652 OFFCURVE",
"261 634 OFFCURVE",
"282 621 CURVE SMOOTH",
"322 595 OFFCURVE",
"367 565 OFFCURVE",
"439 565 CURVE SMOOTH",
"554 565 OFFCURVE",
"622 705 OFFCURVE",
"624 712 CURVE"
);
}
);
width = 652;
}
);
leftKerningGroup = c;
note = otilde;
rightKerningGroup = c;
unicode = 00F5;
},
{
glyphname = odieresis;
layers = (
{
hints = (
{
horizontal = 1;
place = "{-16, 176}";
type = Stem;
},
{
horizontal = 1;
place = "{352, 176}";
type = Stem;
},
{
horizontal = 1;
place = "{593, 212}";
type = Stem;
},
{
place = "{14, 218}";
type = Stem;
},
{
place = "{420, 218}";
type = Stem;
},
{
horizontal = 1;
place = "{-16, 21}";
target = up;
type = BottomGhost;
},
{
place = "{102, 212}";
type = Stem;
},
{
place = "{338, 212}";
type = Stem;
}
);
layerId = "73AED77B-4167-4914-8C61-5564342D4816";
paths = (
{
closed = 1;
nodes = (
"14 96 OFFCURVE",
"150 -16 OFFCURVE",
"326 -16 CURVE SMOOTH",
"502 -16 OFFCURVE",
"638 96 OFFCURVE",
"638 256 CURVE SMOOTH",
"638 416 OFFCURVE",
"502 528 OFFCURVE",
"326 528 CURVE SMOOTH",
"150 528 OFFCURVE",
"14 416 OFFCURVE",
"14 256 CURVE SMOOTH"
);
},
{
closed = 1;
nodes = (
"232 313 OFFCURVE",
"275 352 OFFCURVE",
"326 352 CURVE SMOOTH",
"377 352 OFFCURVE",
"420 313 OFFCURVE",
"420 256 CURVE SMOOTH",
"420 199 OFFCURVE",
"377 160 OFFCURVE",
"326 160 CURVE SMOOTH",
"275 160 OFFCURVE",
"232 199 OFFCURVE",
"232 256 CURVE SMOOTH"
);
},
{
closed = 1;
nodes = (
"149 805 OFFCURVE",
"102 758 OFFCURVE",
"102 699 CURVE SMOOTH",
"102 640 OFFCURVE",
"149 593 OFFCURVE",
"208 593 CURVE SMOOTH",
"267 593 OFFCURVE",
"314 640 OFFCURVE",
"314 699 CURVE SMOOTH",
"314 758 OFFCURVE",
"267 805 OFFCURVE",
"208 805 CURVE SMOOTH"
);
},
{
closed = 1;
nodes = (
"385 805 OFFCURVE",
"338 758 OFFCURVE",
"338 699 CURVE SMOOTH",
"338 640 OFFCURVE",
"385 593 OFFCURVE",
"444 593 CURVE SMOOTH",
"503 593 OFFCURVE",
"550 640 OFFCURVE",
"550 699 CURVE SMOOTH",
"550 758 OFFCURVE",
"503 805 OFFCURVE",
"444 805 CURVE SMOOTH"
);
}
);
width = 652;
}
);
leftKerningGroup = c;
note = odieresis;
rightKerningGroup = c;
unicode = 00F6;
},
{
glyphname = oslash;
layers = (
{
hints = (
{
horizontal = 1;
place = "{-29, 21}";
target = up;
type = BottomGhost;
},
{
horizontal = 1;
place = "{352, 176}";
type = Stem;
},
{
place = "{15, 218}";
type = Stem;
},
{
place = "{421, 218}";
type = Stem;
},
{
horizontal = 1;
place = "{-16, 176}";
type = Stem;
},
{
horizontal = 1;
place = "{541, -20}";
target = down;
type = TopGhost;
}
);
layerId = "73AED77B-4167-4914-8C61-5564342D4816";
paths = (
{
closed = 1;
nodes = (
"15 195 OFFCURVE",
"35 142 OFFCURVE",
"68 98 CURVE",
"-15 31 LINE",
"36 -29 LINE",
"126 44 LINE",
"180 6 OFFCURVE",
"249 -16 OFFCURVE",
"327 -16 CURVE SMOOTH",
"503 -16 OFFCURVE",
"639 96 OFFCURVE",
"639 256 CURVE SMOOTH",
"639 317 OFFCURVE",
"618 372 OFFCURVE",
"584 415 CURVE",
"665 481 LINE",
"615 541 LINE",
"526 469 LINE",
"473 507 OFFCURVE",
"404 528 OFFCURVE",
"327 528 CURVE SMOOTH",
"151 528 OFFCURVE",
"15 416 OFFCURVE",
"15 256 CURVE SMOOTH"
);
},
{
closed = 1;
nodes = (
"421 199 OFFCURVE",
"378 160 OFFCURVE",
"327 160 CURVE SMOOTH",
"311 160 OFFCURVE",
"296 164 OFFCURVE",
"282 171 CURVE",
"418 281 LINE",
"420 273 OFFCURVE",
"421 264 OFFCURVE",
"421 256 CURVE SMOOTH"
);
},
{
closed = 1;
nodes = (
"233 313 OFFCURVE",
"276 352 OFFCURVE",
"327 352 CURVE SMOOTH",
"342 352 OFFCURVE",
"356 348 OFFCURVE",
"369 342 CURVE",
"235 233 LINE",
"234 240 OFFCURVE",
"233 248 OFFCURVE",
"233 256 CURVE SMOOTH"
);
}
);
width = 653;
}
);
leftKerningGroup = c;
note = oslash;
rightKerningGroup = c;
unicode = 00F8;
},
{
glyphname = ugrave;
layers = (
{
hints = (
{
horizontal = 1;
place = "{-16, 168}";
type = Stem;
},
{
horizontal = 1;
place = "{512, -20}";
target = down;
type = TopGhost;
},
{
place = "{40, 208}";
type = Stem;
},
{
place = "{424, 208}";
type = Stem;
},
{
horizontal = 1;
place = "{587, 21}";
target = up;
type = BottomGhost;
},
{
horizontal = 1;
place = "{869, -20}";
target = down;
type = TopGhost;
},
{
place = "{153, 326}";
type = Stem;
}
);
layerId = "73AED77B-4167-4914-8C61-5564342D4816";
paths = (
{
closed = 1;
nodes = (
"424 512 LINE",
"424 279 LINE SMOOTH",
"424 191 OFFCURVE",
"405 152 OFFCURVE",
"336 152 CURVE SMOOTH",
"267 152 OFFCURVE",
"248 191 OFFCURVE",
"248 279 CURVE SMOOTH",
"248 512 LINE",
"40 512 LINE",
"40 227 LINE SMOOTH",
"40 54 OFFCURVE",
"130 -16 OFFCURVE",
"336 -16 CURVE SMOOTH",
"542 -16 OFFCURVE",
"632 54 OFFCURVE",
"632 227 CURVE SMOOTH",
"632 512 LINE"
);
},
{
closed = 1;
nodes = (
"153 737 LINE",
"415 587 LINE",
"479 675 LINE",
"258 869 LINE"
);
}
);
width = 672;
}
);
leftKerningGroup = u;
note = ugrave;
rightKerningGroup = u;
unicode = 00F9;
},
{
glyphname = uacute;
layers = (
{
hints = (
{
horizontal = 1;
place = "{-16, 168}";
type = Stem;
},
{
horizontal = 1;
place = "{512, -20}";
target = down;
type = TopGhost;
},
{
place = "{40, 208}";
type = Stem;
},
{
place = "{424, 208}";
type = Stem;
},
{
horizontal = 1;
place = "{587, 21}";
target = up;
type = BottomGhost;
},
{
horizontal = 1;
place = "{869, -20}";
target = down;
type = TopGhost;
},
{
place = "{193, 326}";
type = Stem;
}
);
layerId = "73AED77B-4167-4914-8C61-5564342D4816";
paths = (
{
closed = 1;
nodes = (
"424 512 LINE",
"424 279 LINE SMOOTH",
"424 191 OFFCURVE",
"405 152 OFFCURVE",
"336 152 CURVE SMOOTH",
"267 152 OFFCURVE",
"248 191 OFFCURVE",
"248 279 CURVE SMOOTH",
"248 512 LINE",
"40 512 LINE",
"40 227 LINE SMOOTH",
"40 54 OFFCURVE",
"130 -16 OFFCURVE",
"336 -16 CURVE SMOOTH",
"542 -16 OFFCURVE",
"632 54 OFFCURVE",
"632 227 CURVE SMOOTH",
"632 512 LINE"
);
},
{
closed = 1;
nodes = (
"193 675 LINE",
"257 587 LINE",
"519 737 LINE",
"414 869 LINE"
);
}
);
width = 672;
}
);
leftKerningGroup = u;
note = uacute;
rightKerningGroup = u;
unicode = 00FA;
},
{
glyphname = ucircumflex;
layers = (
{
hints = (
{
horizontal = 1;
place = "{-16, 168}";
type = Stem;
},
{
horizontal = 1;
place = "{512, -20}";
target = down;
type = TopGhost;
},
{
place = "{40, 208}";
type = Stem;
},
{
place = "{424, 208}";
type = Stem;
},
{
horizontal = 1;
place = "{587, 21}";
target = up;
type = BottomGhost;
},
{
horizontal = 1;
place = "{862, -20}";
target = down;
type = TopGhost;
},
{
place = "{105, 462}";
type = Stem;
}
);
layerId = "73AED77B-4167-4914-8C61-5564342D4816";
paths = (
{
closed = 1;
nodes = (
"424 512 LINE",
"424 279 LINE SMOOTH",
"424 191 OFFCURVE",
"405 152 OFFCURVE",
"336 152 CURVE SMOOTH",
"267 152 OFFCURVE",
"248 191 OFFCURVE",
"248 279 CURVE SMOOTH",
"248 512 LINE",
"40 512 LINE",
"40 227 LINE SMOOTH",
"40 54 OFFCURVE",
"130 -16 OFFCURVE",
"336 -16 CURVE SMOOTH",
"542 -16 OFFCURVE",
"632 54 OFFCURVE",
"632 227 CURVE SMOOTH",
"632 512 LINE"
);
},
{
closed = 1;
nodes = (
"105 692 LINE",
"183 587 LINE",
"336 699 LINE",
"489 587 LINE",
"567 692 LINE",
"336 862 LINE"
);
}
);
width = 672;
}
);
leftKerningGroup = u;
note = ucircumflex;
rightKerningGroup = u;
unicode = 00FB;
},
{
glyphname = udieresis;
layers = (
{
hints = (
{
horizontal = 1;
place = "{-16, 168}";
type = Stem;
},
{
horizontal = 1;
place = "{512, -20}";
target = down;
type = TopGhost;
},
{
place = "{40, 208}";
type = Stem;
},
{
place = "{424, 208}";
type = Stem;
},
{
horizontal = 1;
place = "{607, 212}";
type = Stem;
},
{
place = "{112, 212}";
type = Stem;
},
{
place = "{348, 212}";
type = Stem;
}
);
layerId = "73AED77B-4167-4914-8C61-5564342D4816";
paths = (
{
closed = 1;
nodes = (
"424 512 LINE",
"424 279 LINE SMOOTH",
"424 191 OFFCURVE",
"405 152 OFFCURVE",
"336 152 CURVE SMOOTH",
"267 152 OFFCURVE",
"248 191 OFFCURVE",
"248 279 CURVE SMOOTH",
"248 512 LINE",
"40 512 LINE",
"40 227 LINE SMOOTH",
"40 54 OFFCURVE",
"130 -16 OFFCURVE",
"336 -16 CURVE SMOOTH",
"542 -16 OFFCURVE",
"632 54 OFFCURVE",
"632 227 CURVE SMOOTH",
"632 512 LINE"
);
},
{
closed = 1;
nodes = (
"159 819 OFFCURVE",
"112 772 OFFCURVE",
"112 713 CURVE SMOOTH",
"112 654 OFFCURVE",
"159 607 OFFCURVE",
"218 607 CURVE SMOOTH",
"277 607 OFFCURVE",
"324 654 OFFCURVE",
"324 713 CURVE SMOOTH",
"324 772 OFFCURVE",
"277 819 OFFCURVE",
"218 819 CURVE SMOOTH"
);
},
{
closed = 1;
nodes = (
"395 819 OFFCURVE",
"348 772 OFFCURVE",
"348 713 CURVE SMOOTH",
"348 654 OFFCURVE",
"395 607 OFFCURVE",
"454 607 CURVE SMOOTH",
"513 607 OFFCURVE",
"560 654 OFFCURVE",
"560 713 CURVE SMOOTH",
"560 772 OFFCURVE",
"513 819 OFFCURVE",
"454 819 CURVE SMOOTH"
);
}
);
width = 672;
}
);
leftKerningGroup = u;
note = udieresis;
rightKerningGroup = u;
unicode = 00FC;
},
{
glyphname = yacute;
layers = (
{
hints = (
{
horizontal = 1;
place = "{-260, 21}";
target = up;
type = BottomGhost;
},
{
horizontal = 1;
place = "{512, -20}";
target = down;
type = TopGhost;
},
{
place = "{-24, 708}";
type = Stem;
},
{
horizontal = 1;
place = "{587, 21}";
target = up;
type = BottomGhost;
},
{
horizontal = 1;
place = "{869, -20}";
target = down;
type = TopGhost;
},
{
place = "{188, 326}";
type = Stem;
}
);
layerId = "73AED77B-4167-4914-8C61-5564342D4816";
paths = (
{
closed = 1;
nodes = (
"-24 512 LINE",
"219 99 LINE",
"27 -260 LINE",
"266 -260 LINE",
"684 512 LINE",
"445 512 LINE",
"341 296 LINE",
"215 512 LINE"
);
},
{
closed = 1;
nodes = (
"188 675 LINE",
"252 587 LINE",
"514 737 LINE",
"409 869 LINE"
);
}
);
width = 660;
}
);
leftKerningGroup = v;
note = yacute;
rightKerningGroup = v;
unicode = 00FD;
},
{
glyphname = ydieresis;
layers = (
{
hints = (
{
horizontal = 1;
place = "{-260, 21}";
target = up;
type = BottomGhost;
},
{
horizontal = 1;
place = "{512, -20}";
target = down;
type = TopGhost;
},
{
place = "{-24, 708}";
type = Stem;
},
{
horizontal = 1;
place = "{607, 212}";
type = Stem;
},
{
place = "{117, 212}";
type = Stem;
},
{
place = "{353, 212}";
type = Stem;
}
);
layerId = "73AED77B-4167-4914-8C61-5564342D4816";
paths = (
{
closed = 1;
nodes = (
"-24 512 LINE",
"219 99 LINE",
"27 -260 LINE",
"266 -260 LINE",
"684 512 LINE",
"445 512 LINE",
"341 296 LINE",
"215 512 LINE"
);
},
{
closed = 1;
nodes = (
"164 819 OFFCURVE",
"117 772 OFFCURVE",
"117 713 CURVE SMOOTH",
"117 654 OFFCURVE",
"164 607 OFFCURVE",
"223 607 CURVE SMOOTH",
"282 607 OFFCURVE",
"329 654 OFFCURVE",
"329 713 CURVE SMOOTH",
"329 772 OFFCURVE",
"282 819 OFFCURVE",
"223 819 CURVE SMOOTH"
);
},
{
closed = 1;
nodes = (
"400 819 OFFCURVE",
"353 772 OFFCURVE",
"353 713 CURVE SMOOTH",
"353 654 OFFCURVE",
"400 607 OFFCURVE",
"459 607 CURVE SMOOTH",
"518 607 OFFCURVE",
"565 654 OFFCURVE",
"565 713 CURVE SMOOTH",
"565 772 OFFCURVE",
"518 819 OFFCURVE",
"459 819 CURVE SMOOTH"
);
}
);
width = 660;
}
);
leftKerningGroup = v;
note = ydieresis;
rightKerningGroup = v;
unicode = 00FF;
},
{
glyphname = thorn;
layers = (
{
hints = (
{
horizontal = 1;
place = "{-260, 21}";
target = up;
type = BottomGhost;
},
{
horizontal = 1;
place = "{-16, 176}";
type = Stem;
},
{
horizontal = 1;
place = "{352, 176}";
type = Stem;
},
{
horizontal = 1;
place = "{860, -20}";
target = down;
type = TopGhost;
},
{
place = "{47, 208}";
type = Stem;
},
{
place = "{444, 220}";
type = Stem;
}
);
layerId = "73AED77B-4167-4914-8C61-5564342D4816";
paths = (
{
closed = 1;
nodes = (
"664 404 OFFCURVE",
"562 528 OFFCURVE",
"411 528 CURVE SMOOTH",
"349 528 OFFCURVE",
"297 511 OFFCURVE",
"255 479 CURVE",
"255 860 LINE",
"47 860 LINE",
"47 -260 LINE",
"255 -260 LINE",
"255 40 LINE",
"295 9 OFFCURVE",
"349 -16 OFFCURVE",
"411 -16 CURVE SMOOTH",
"562 -16 OFFCURVE",
"664 108 OFFCURVE",
"664 256 CURVE SMOOTH"
);
},
{
closed = 1;
nodes = (
"444 201 OFFCURVE",
"407 160 OFFCURVE",
"347 160 CURVE SMOOTH",
"291 160 OFFCURVE",
"251 201 OFFCURVE",
"251 256 CURVE SMOOTH",
"251 312 OFFCURVE",
"295 352 OFFCURVE",
"347 352 CURVE SMOOTH",
"401 352 OFFCURVE",
"444 312 OFFCURVE",
"444 256 CURVE SMOOTH"
);
}
);
width = 681;
}
);
note = thorn;
rightKerningGroup = b;
unicode = 00FE;
},
{
glyphname = Amacron;
layers = (
{
hints = (
{
horizontal = 1;
place = "{0, 21}";
target = up;
type = BottomGhost;
},
{
horizontal = 1;
place = "{137, 193}";
type = Stem;
},
{
horizontal = 1;
place = "{825, -20}";
target = down;
type = TopGhost;
},
{
place = "{-34, 876}";
type = Stem;
},
{
horizontal = 1;
place = "{946, 140}";
type = Stem;
},
{
place = "{200, 408}";
type = Stem;
}
);
layerId = "73AED77B-4167-4914-8C61-5564342D4816";
paths = (
{
closed = 1;
nodes = (
"302 825 LINE",
"-34 0 LINE",
"203 0 LINE",
"253 137 LINE",
"555 137 LINE",
"605 0 LINE",
"842 0 LINE",
"506 825 LINE"
);
},
{
closed = 1;
nodes = (
"327 330 LINE",
"404 526 LINE",
"481 330 LINE"
);
},
{
closed = 1;
nodes = (
"200 1086 LINE",
"200 946 LINE",
"608 946 LINE",
"608 1086 LINE"
);
}
);
width = 808;
}
);
leftKerningGroup = A;
note = Amacron;
rightKerningGroup = space;
unicode = 0100;
},
